<svg width="1158" height="254" viewBox="0 0 1158 254" fill="none" xmlns="http://www.w3.org/2000/svg">
<circle cx="127" cy="127" r="127" fill="white"/>
<circle cx="126.863" cy="126.863" r="99.8295" fill="#617BFF"/>
<line x1="99.4984" y1="125.611" x2="129.795" y2="159.036" stroke="white" stroke-width="21" stroke-linecap="round"/>
<line x1="201.331" y1="61.2262" x2="131.077" y2="158.502" stroke="white" stroke-width="21" stroke-linecap="round"/>
<path d="M346.688 192V64H377.625V115.375H428.062V64H458.938V192H428.062V140.562H377.625V192H346.688ZM474.156 89.125V64H582.344V89.125H543.531V192H513.031V89.125H474.156ZM666.641 102.375C666.224 97.7917 664.37 94.2292 661.078 91.6875C657.828 89.1042 653.182 87.8125 647.141 87.8125C643.141 87.8125 639.807 88.3333 637.141 89.375C634.474 90.4167 632.474 91.8542 631.141 93.6875C629.807 95.4792 629.12 97.5417 629.078 99.875C628.995 101.792 629.37 103.479 630.203 104.937C631.078 106.396 632.328 107.687 633.953 108.812C635.62 109.896 637.62 110.854 639.953 111.687C642.286 112.521 644.911 113.25 647.828 113.875L658.828 116.375C665.161 117.75 670.745 119.583 675.578 121.875C680.453 124.167 684.536 126.896 687.828 130.062C691.161 133.229 693.682 136.875 695.391 141C697.099 145.125 697.974 149.75 698.016 154.875C697.974 162.958 695.932 169.896 691.891 175.687C687.849 181.479 682.036 185.917 674.453 189C666.911 192.083 657.807 193.625 647.141 193.625C636.432 193.625 627.099 192.021 619.141 188.812C611.182 185.604 604.995 180.729 600.578 174.187C596.161 167.646 593.891 159.375 593.766 149.375H623.391C623.641 153.5 624.745 156.938 626.703 159.688C628.661 162.438 631.349 164.521 634.766 165.937C638.224 167.354 642.224 168.062 646.766 168.062C650.932 168.062 654.474 167.5 657.391 166.375C660.349 165.25 662.62 163.687 664.203 161.687C665.786 159.687 666.599 157.396 666.641 154.812C666.599 152.396 665.849 150.333 664.391 148.625C662.932 146.875 660.682 145.375 657.641 144.125C654.641 142.833 650.807 141.646 646.141 140.562L632.766 137.437C621.682 134.896 612.953 130.792 606.578 125.125C600.203 119.417 597.036 111.708 597.078 102C597.036 94.0833 599.161 87.1458 603.453 81.1875C607.745 75.2292 613.682 70.5833 621.266 67.25C628.849 63.9167 637.495 62.25 647.203 62.25C657.12 62.25 665.724 63.9375 673.016 67.3125C680.349 70.6458 686.036 75.3333 690.078 81.375C694.12 87.4167 696.182 94.4167 696.266 102.375H666.641ZM751.453 192V64H782.391V115.375H832.828V64H863.703V192H832.828V140.562H782.391V192H751.453ZM927.984 193.813C917.943 193.813 909.276 191.833 901.984 187.875C894.734 183.875 889.151 178.187 885.234 170.812C881.359 163.396 879.422 154.583 879.422 144.375C879.422 134.458 881.38 125.792 885.297 118.375C889.214 110.917 894.734 105.125 901.859 101C908.984 96.8333 917.38 94.75 927.047 94.75C933.88 94.75 940.13 95.8125 945.797 97.9375C951.464 100.062 956.359 103.208 960.484 107.375C964.609 111.542 967.818 116.687 970.109 122.812C972.401 128.896 973.547 135.875 973.547 143.75V151.375H890.109V133.625H945.109C945.068 130.375 944.297 127.479 942.797 124.937C941.297 122.396 939.234 120.417 936.609 119C934.026 117.542 931.047 116.812 927.672 116.812C924.255 116.812 921.193 117.583 918.484 119.125C915.776 120.625 913.63 122.688 912.047 125.312C910.464 127.896 909.63 130.833 909.547 134.125V152.187C909.547 156.104 910.318 159.542 911.859 162.5C913.401 165.417 915.589 167.687 918.422 169.312C921.255 170.937 924.63 171.75 928.547 171.75C931.255 171.75 933.714 171.375 935.922 170.625C938.13 169.875 940.026 168.771 941.609 167.312C943.193 165.854 944.38 164.062 945.172 161.937L973.234 162.75C972.068 169.042 969.505 174.521 965.547 179.187C961.63 183.812 956.484 187.417 950.109 190C943.734 192.542 936.359 193.813 927.984 193.813ZM989.156 192V96H1018.84V113.5H1019.84C1021.59 107.167 1024.45 102.458 1028.41 99.375C1032.36 96.25 1036.97 94.6875 1042.22 94.6875C1043.64 94.6875 1045.09 94.7917 1046.59 95C1048.09 95.1667 1049.49 95.4375 1050.78 95.8125V122.375C1049.32 121.875 1047.41 121.479 1045.03 121.188C1042.7 120.896 1040.61 120.75 1038.78 120.75C1035.16 120.75 1031.89 121.562 1028.97 123.187C1026.09 124.771 1023.82 127 1022.16 129.875C1020.53 132.708 1019.72 136.042 1019.72 139.875V192H989.156ZM1103.06 193.813C1092.98 193.813 1084.31 191.75 1077.06 187.625C1069.85 183.458 1064.29 177.667 1060.37 170.25C1056.5 162.792 1054.56 154.146 1054.56 144.312C1054.56 134.437 1056.5 125.792 1060.37 118.375C1064.29 110.917 1069.85 105.125 1077.06 101C1084.31 96.8333 1092.98 94.75 1103.06 94.75C1113.15 94.75 1121.79 96.8333 1129 101C1136.25 105.125 1141.81 110.917 1145.69 118.375C1149.6 125.792 1151.56 134.437 1151.56 144.312C1151.56 154.146 1149.6 162.792 1145.69 170.25C1141.81 177.667 1136.25 183.458 1129 187.625C1121.79 191.75 1113.15 193.813 1103.06 193.813ZM1103.25 170.75C1106.92 170.75 1110.02 169.625 1112.56 167.375C1115.1 165.125 1117.04 162 1118.38 158C1119.75 154 1120.44 149.375 1120.44 144.125C1120.44 138.792 1119.75 134.125 1118.38 130.125C1117.04 126.125 1115.1 123 1112.56 120.75C1110.02 118.5 1106.92 117.375 1103.25 117.375C1099.46 117.375 1096.25 118.5 1093.63 120.75C1091.04 123 1089.06 126.125 1087.69 130.125C1086.35 134.125 1085.69 138.792 1085.69 144.125C1085.69 149.375 1086.35 154 1087.69 158C1089.06 162 1091.04 165.125 1093.63 167.375C1096.25 169.625 1099.46 170.75 1103.25 170.75Z" fill="black"/>
</svg>
