<svg width="3286" height="838" viewBox="0 0 3286 838" fill="none" xmlns="http://www.w3.org/2000/svg">
<g filter="url(#filter0_d_746_738)">
<rect x="110" y="106" width="3066" height="618" rx="150" fill="#202020"/>
</g>
<path d="M793.923 400.091V475H778.085V415.124H777.646L760.492 425.877V411.832L779.036 400.091H793.923ZM810.593 461.832V449.36L841.866 400.091H852.619V417.355H846.255L826.54 448.555V449.14H870.981V461.832H810.593ZM846.548 475V458.028L846.84 452.505V400.091H861.69V475H846.548ZM930.903 476.097C925.221 476.097 920.308 474.89 916.162 472.476C912.041 470.038 908.859 466.648 906.616 462.308C904.372 457.943 903.251 452.883 903.251 447.129C903.251 441.325 904.372 436.253 906.616 431.913C908.859 427.548 912.041 424.158 916.162 421.744C920.308 419.306 925.221 418.087 930.903 418.087C936.584 418.087 941.485 419.306 945.606 421.744C949.752 424.158 952.946 427.548 955.189 431.913C957.433 436.253 958.555 441.325 958.555 447.129C958.555 452.883 957.433 457.943 955.189 462.308C952.946 466.648 949.752 470.038 945.606 472.476C941.485 474.89 936.584 476.097 930.903 476.097ZM930.976 464.027C933.56 464.027 935.718 463.295 937.45 461.832C939.181 460.345 940.486 458.321 941.364 455.761C942.266 453.2 942.717 450.286 942.717 447.019C942.717 443.751 942.266 440.837 941.364 438.277C940.486 435.717 939.181 433.693 937.45 432.205C935.718 430.718 933.56 429.974 930.976 429.974C928.367 429.974 926.172 430.718 924.392 432.205C922.636 433.693 921.307 435.717 920.405 438.277C919.527 440.837 919.088 443.751 919.088 447.019C919.088 450.286 919.527 453.2 920.405 455.761C921.307 458.321 922.636 460.345 924.392 461.832C926.172 463.295 928.367 464.027 930.976 464.027ZM998.899 418.818V430.523H964.224V418.818H998.899ZM972.161 475V414.758C972.161 410.686 972.954 407.309 974.539 404.626C976.148 401.944 978.343 399.932 981.122 398.591C983.902 397.25 987.06 396.58 990.596 396.58C992.985 396.58 995.168 396.762 997.143 397.128C999.143 397.494 1000.63 397.823 1001.61 398.116L998.826 409.82C998.216 409.625 997.46 409.442 996.558 409.272C995.68 409.101 994.778 409.016 993.851 409.016C991.559 409.016 989.962 409.552 989.06 410.625C988.157 411.674 987.706 413.149 987.706 415.051V475H972.161ZM1041.88 496.068C1039.9 496.068 1038.05 495.91 1036.32 495.593C1034.61 495.3 1033.2 494.922 1032.07 494.459L1035.59 482.827C1037.41 483.388 1039.06 483.693 1040.52 483.742C1042.01 483.791 1043.29 483.449 1044.36 482.718C1045.46 481.986 1046.35 480.743 1047.03 478.987L1047.95 476.609L1027.79 418.818H1044.18L1055.81 460.077H1056.4L1068.14 418.818H1084.63L1062.8 481.072C1061.75 484.095 1060.32 486.729 1058.52 488.972C1056.74 491.24 1054.48 492.984 1051.75 494.203C1049.02 495.446 1045.73 496.068 1041.88 496.068ZM1116.18 476.097C1110.5 476.097 1105.59 474.89 1101.44 472.476C1097.32 470.038 1094.14 466.648 1091.89 462.308C1089.65 457.943 1088.53 452.883 1088.53 447.129C1088.53 441.325 1089.65 436.253 1091.89 431.913C1094.14 427.548 1097.32 424.158 1101.44 421.744C1105.59 419.306 1110.5 418.087 1116.18 418.087C1121.86 418.087 1126.76 419.306 1130.89 421.744C1135.03 424.158 1138.23 427.548 1140.47 431.913C1142.71 436.253 1143.83 441.325 1143.83 447.129C1143.83 452.883 1142.71 457.943 1140.47 462.308C1138.23 466.648 1135.03 470.038 1130.89 472.476C1126.76 474.89 1121.86 476.097 1116.18 476.097ZM1116.26 464.027C1118.84 464.027 1121 463.295 1122.73 461.832C1124.46 460.345 1125.76 458.321 1126.64 455.761C1127.55 453.2 1128 450.286 1128 447.019C1128 443.751 1127.55 440.837 1126.64 438.277C1125.76 435.717 1124.46 433.693 1122.73 432.205C1121 430.718 1118.84 429.974 1116.26 429.974C1113.65 429.974 1111.45 430.718 1109.67 432.205C1107.92 433.693 1106.59 435.717 1105.68 438.277C1104.81 440.837 1104.37 443.751 1104.37 447.019C1104.37 450.286 1104.81 453.2 1105.68 455.761C1106.59 458.321 1107.92 460.345 1109.67 461.832C1111.45 463.295 1113.65 464.027 1116.26 464.027ZM1189.99 451.079V418.818H1205.58V475H1190.62V464.795H1190.03C1188.76 468.087 1186.65 470.733 1183.7 472.732C1180.78 474.732 1177.2 475.732 1172.99 475.732C1169.23 475.732 1165.93 474.878 1163.07 473.171C1160.22 471.464 1157.99 469.038 1156.38 465.892C1154.79 462.747 1153.99 458.979 1153.97 454.59V418.818H1169.55V451.81C1169.57 455.127 1170.46 457.748 1172.22 459.674C1173.97 461.601 1176.33 462.564 1179.28 462.564C1181.15 462.564 1182.91 462.137 1184.54 461.284C1186.18 460.406 1187.49 459.114 1188.49 457.407C1189.52 455.7 1190.02 453.59 1189.99 451.079ZM1218.04 475V418.818H1233.15V428.621H1233.73C1234.75 425.134 1236.47 422.5 1238.89 420.72C1241.3 418.916 1244.08 418.013 1247.23 418.013C1248.01 418.013 1248.85 418.062 1249.75 418.16C1250.65 418.257 1251.45 418.391 1252.13 418.562V432.388C1251.4 432.169 1250.38 431.974 1249.09 431.803C1247.8 431.632 1246.62 431.547 1245.54 431.547C1243.25 431.547 1241.2 432.047 1239.4 433.047C1237.62 434.022 1236.21 435.387 1235.16 437.143C1234.13 438.899 1233.62 440.923 1233.62 443.215V475H1218.04ZM1284.02 475V418.818H1299.6V475H1284.02ZM1291.85 411.576C1289.53 411.576 1287.55 410.808 1285.89 409.272C1284.25 407.711 1283.44 405.846 1283.44 403.675C1283.44 401.53 1284.25 399.689 1285.89 398.152C1287.55 396.592 1289.53 395.811 1291.85 395.811C1294.17 395.811 1296.14 396.592 1297.78 398.152C1299.43 399.689 1300.26 401.53 1300.26 403.675C1300.26 405.846 1299.43 407.711 1297.78 409.272C1296.14 410.808 1294.17 411.576 1291.85 411.576ZM1312.09 475V418.818H1326.94V428.73H1327.6C1328.77 425.439 1330.72 422.842 1333.45 420.94C1336.18 419.038 1339.45 418.087 1343.25 418.087C1347.1 418.087 1350.38 419.05 1353.09 420.976C1355.8 422.878 1357.6 425.463 1358.5 428.73H1359.09C1360.23 425.512 1362.31 422.939 1365.31 421.013C1368.33 419.062 1371.9 418.087 1376.02 418.087C1381.27 418.087 1385.52 419.757 1388.79 423.098C1392.08 426.414 1393.73 431.12 1393.73 437.216V475H1378.18V440.289C1378.18 437.167 1377.35 434.827 1375.69 433.266C1374.04 431.705 1371.96 430.925 1369.48 430.925C1366.65 430.925 1364.44 431.827 1362.86 433.632C1361.27 435.412 1360.48 437.765 1360.48 440.691V475H1345.37V439.96C1345.37 437.204 1344.58 435.009 1342.99 433.376C1341.43 431.742 1339.37 430.925 1336.81 430.925C1335.08 430.925 1333.52 431.364 1332.13 432.242C1330.77 433.095 1329.68 434.302 1328.88 435.863C1328.07 437.399 1327.67 439.204 1327.67 441.276V475H1312.09ZM1406.03 496.068V418.818H1421.4V428.255H1422.09C1422.77 426.743 1423.76 425.207 1425.05 423.646C1426.37 422.061 1428.08 420.745 1430.17 419.696C1432.3 418.623 1434.93 418.087 1438.08 418.087C1442.17 418.087 1445.95 419.16 1449.41 421.305C1452.88 423.427 1455.64 426.633 1457.72 430.925C1459.79 435.192 1460.83 440.545 1460.83 446.982C1460.83 453.249 1459.81 458.54 1457.79 462.857C1455.79 467.148 1453.06 470.404 1449.6 472.623C1446.16 474.817 1442.31 475.914 1438.04 475.914C1435.01 475.914 1432.44 475.415 1430.32 474.415C1428.22 473.415 1426.5 472.159 1425.16 470.647C1423.82 469.111 1422.8 467.563 1422.09 466.002H1421.62V496.068H1406.03ZM1421.29 446.909C1421.29 450.25 1421.75 453.164 1422.68 455.651C1423.6 458.138 1424.94 460.077 1426.7 461.467C1428.46 462.832 1430.59 463.515 1433.1 463.515C1435.64 463.515 1437.78 462.82 1439.54 461.43C1441.29 460.016 1442.62 458.065 1443.53 455.578C1444.45 453.066 1444.91 450.177 1444.91 446.909C1444.91 443.666 1444.46 440.813 1443.56 438.35C1442.66 435.887 1441.33 433.961 1439.57 432.571C1437.82 431.181 1435.66 430.486 1433.1 430.486C1430.56 430.486 1428.42 431.157 1426.66 432.498C1424.93 433.839 1423.6 435.741 1422.68 438.204C1421.75 440.667 1421.29 443.568 1421.29 446.909ZM1496.6 476.097C1490.92 476.097 1486 474.89 1481.86 472.476C1477.74 470.038 1474.55 466.648 1472.31 462.308C1470.07 457.943 1468.95 452.883 1468.95 447.129C1468.95 441.325 1470.07 436.253 1472.31 431.913C1474.55 427.548 1477.74 424.158 1481.86 421.744C1486 419.306 1490.92 418.087 1496.6 418.087C1502.28 418.087 1507.18 419.306 1511.3 421.744C1515.45 424.158 1518.64 427.548 1520.88 431.913C1523.13 436.253 1524.25 441.325 1524.25 447.129C1524.25 452.883 1523.13 457.943 1520.88 462.308C1518.64 466.648 1515.45 470.038 1511.3 472.476C1507.18 474.89 1502.28 476.097 1496.6 476.097ZM1496.67 464.027C1499.26 464.027 1501.41 463.295 1503.15 461.832C1504.88 460.345 1506.18 458.321 1507.06 455.761C1507.96 453.2 1508.41 450.286 1508.41 447.019C1508.41 443.751 1507.96 440.837 1507.06 438.277C1506.18 435.717 1504.88 433.693 1503.15 432.205C1501.41 430.718 1499.26 429.974 1496.67 429.974C1494.06 429.974 1491.87 430.718 1490.09 432.205C1488.33 433.693 1487 435.717 1486.1 438.277C1485.22 440.837 1484.78 443.751 1484.78 447.019C1484.78 450.286 1485.22 453.2 1486.1 455.761C1487 458.321 1488.33 460.345 1490.09 461.832C1491.87 463.295 1494.06 464.027 1496.67 464.027ZM1534.38 475V418.818H1549.49V428.621H1550.07C1551.1 425.134 1552.82 422.5 1555.23 420.72C1557.64 418.916 1560.42 418.013 1563.57 418.013C1564.35 418.013 1565.19 418.062 1566.09 418.16C1567 418.257 1567.79 418.391 1568.47 418.562V432.388C1567.74 432.169 1566.73 431.974 1565.44 431.803C1564.14 431.632 1562.96 431.547 1561.89 431.547C1559.6 431.547 1557.55 432.047 1555.74 433.047C1553.96 434.022 1552.55 435.387 1551.5 437.143C1550.48 438.899 1549.96 440.923 1549.96 443.215V475H1534.38ZM1609.23 418.818V430.523H1575.39V418.818H1609.23ZM1583.07 405.358H1598.66V457.736C1598.66 459.174 1598.88 460.296 1599.31 461.101C1599.75 461.881 1600.36 462.43 1601.14 462.747C1601.95 463.064 1602.87 463.222 1603.92 463.222C1604.65 463.222 1605.39 463.161 1606.12 463.039C1606.85 462.893 1607.41 462.783 1607.8 462.71L1610.25 474.305C1609.47 474.549 1608.37 474.829 1606.96 475.146C1605.54 475.488 1603.83 475.695 1601.8 475.768C1598.05 475.914 1594.75 475.415 1591.93 474.268C1589.12 473.122 1586.94 471.342 1585.38 468.928C1583.82 466.514 1583.05 463.466 1583.07 459.784V405.358ZM1665.42 434.839L1651.15 435.717C1650.91 434.497 1650.38 433.4 1649.58 432.425C1648.78 431.425 1647.71 430.632 1646.4 430.047C1645.11 429.438 1643.56 429.133 1641.75 429.133C1639.34 429.133 1637.3 429.645 1635.64 430.669C1633.99 431.669 1633.16 433.01 1633.16 434.692C1633.16 436.034 1633.69 437.167 1634.77 438.094C1635.84 439.021 1637.68 439.764 1640.29 440.325L1650.46 442.374C1655.92 443.495 1659.99 445.3 1662.67 447.787C1665.36 450.274 1666.7 453.542 1666.7 457.589C1666.7 461.272 1665.61 464.502 1663.44 467.282C1661.3 470.062 1658.35 472.232 1654.59 473.793C1650.86 475.329 1646.56 476.097 1641.68 476.097C1634.24 476.097 1628.32 474.549 1623.9 471.452C1619.51 468.331 1616.94 464.088 1616.19 458.723L1631.51 457.919C1631.97 460.186 1633.1 461.918 1634.88 463.113C1636.66 464.283 1638.94 464.868 1641.72 464.868C1644.45 464.868 1646.64 464.344 1648.3 463.295C1649.98 462.223 1650.84 460.845 1650.86 459.162C1650.84 457.748 1650.24 456.59 1649.07 455.688C1647.9 454.761 1646.09 454.054 1643.65 453.566L1633.93 451.627C1628.44 450.53 1624.35 448.628 1621.67 445.922C1619.01 443.215 1617.69 439.764 1617.69 435.57C1617.69 431.961 1618.66 428.852 1620.61 426.243C1622.59 423.634 1625.35 421.622 1628.91 420.208C1632.5 418.794 1636.69 418.087 1641.5 418.087C1648.59 418.087 1654.18 419.586 1658.25 422.586C1662.35 425.585 1664.73 429.669 1665.42 434.839ZM1716.37 476.061C1712.78 476.061 1709.59 475.439 1706.79 474.195C1703.98 472.927 1701.76 471.062 1700.13 468.599C1698.52 466.112 1697.71 463.015 1697.71 459.309C1697.71 456.187 1698.29 453.566 1699.43 451.445C1700.58 449.323 1702.14 447.616 1704.12 446.324C1706.09 445.031 1708.33 444.056 1710.85 443.398C1713.38 442.739 1716.04 442.276 1718.82 442.008C1722.09 441.666 1724.72 441.349 1726.72 441.057C1728.72 440.74 1730.17 440.277 1731.07 439.667C1731.98 439.057 1732.43 438.155 1732.43 436.96V436.741C1732.43 434.424 1731.69 432.632 1730.23 431.364C1728.79 430.096 1726.74 429.462 1724.09 429.462C1721.28 429.462 1719.05 430.084 1717.39 431.327C1715.74 432.547 1714.64 434.083 1714.1 435.936L1699.69 434.766C1700.42 431.352 1701.86 428.401 1704.01 425.914C1706.15 423.402 1708.92 421.476 1712.31 420.135C1715.72 418.769 1719.67 418.087 1724.16 418.087C1727.28 418.087 1730.27 418.452 1733.12 419.184C1736 419.915 1738.55 421.049 1740.77 422.586C1743.01 424.122 1744.78 426.097 1746.07 428.511C1747.36 430.901 1748.01 433.766 1748.01 437.107V475H1733.23V467.209H1732.79C1731.89 468.965 1730.68 470.513 1729.17 471.854C1727.66 473.171 1725.84 474.208 1723.72 474.963C1721.6 475.695 1719.15 476.061 1716.37 476.061ZM1720.83 465.307C1723.12 465.307 1725.15 464.856 1726.9 463.954C1728.66 463.027 1730.04 461.784 1731.04 460.223C1732.04 458.662 1732.54 456.895 1732.54 454.919V448.957C1732.05 449.274 1731.38 449.567 1730.52 449.835C1729.7 450.079 1728.76 450.311 1727.71 450.53C1726.66 450.725 1725.61 450.908 1724.56 451.079C1723.51 451.225 1722.56 451.359 1721.71 451.481C1719.88 451.749 1718.28 452.176 1716.92 452.761C1715.55 453.347 1714.49 454.139 1713.74 455.139C1712.98 456.114 1712.6 457.333 1712.6 458.797C1712.6 460.918 1713.37 462.54 1714.91 463.661C1716.47 464.759 1718.44 465.307 1720.83 465.307ZM1760.1 475V418.818H1775.2V428.621H1775.79C1776.81 425.134 1778.53 422.5 1780.95 420.72C1783.36 418.916 1786.14 418.013 1789.28 418.013C1790.06 418.013 1790.91 418.062 1791.81 418.16C1792.71 418.257 1793.5 418.391 1794.19 418.562V432.388C1793.45 432.169 1792.44 431.974 1791.15 431.803C1789.86 431.632 1788.68 431.547 1787.6 431.547C1785.31 431.547 1783.26 432.047 1781.46 433.047C1779.68 434.022 1778.26 435.387 1777.21 437.143C1776.19 438.899 1775.68 440.923 1775.68 443.215V475H1760.1ZM1825.23 476.097C1819.45 476.097 1814.48 474.927 1810.31 472.586C1806.16 470.221 1802.97 466.88 1800.72 462.564C1798.48 458.223 1797.36 453.091 1797.36 447.165C1797.36 441.386 1798.48 436.314 1800.72 431.949C1802.97 427.584 1806.13 424.183 1810.2 421.744C1814.29 419.306 1819.1 418.087 1824.61 418.087C1828.32 418.087 1831.77 418.684 1834.96 419.879C1838.18 421.049 1840.98 422.817 1843.37 425.183C1845.79 427.548 1847.66 430.523 1849.01 434.107C1850.35 437.667 1851.02 441.837 1851.02 446.616V450.896H1803.58V441.24H1836.35C1836.35 438.996 1835.86 437.009 1834.89 435.278C1833.91 433.546 1832.56 432.193 1830.83 431.218C1829.12 430.218 1827.13 429.718 1824.86 429.718C1822.5 429.718 1820.4 430.267 1818.57 431.364C1816.77 432.437 1815.35 433.888 1814.33 435.717C1813.31 437.521 1812.78 439.533 1812.76 441.752V450.933C1812.76 453.712 1813.27 456.114 1814.29 458.138C1815.34 460.162 1816.82 461.723 1818.72 462.82C1820.62 463.917 1822.88 464.466 1825.49 464.466C1827.22 464.466 1828.8 464.222 1830.24 463.734C1831.68 463.247 1832.91 462.515 1833.94 461.54C1834.96 460.564 1835.74 459.37 1836.28 457.955L1850.69 458.906C1849.96 462.369 1848.46 465.393 1846.19 467.977C1843.95 470.538 1841.04 472.537 1837.48 473.976C1833.95 475.39 1829.86 476.097 1825.23 476.097ZM1901.04 476.061C1897.46 476.061 1894.27 475.439 1891.46 474.195C1888.66 472.927 1886.44 471.062 1884.8 468.599C1883.2 466.112 1882.39 463.015 1882.39 459.309C1882.39 456.187 1882.96 453.566 1884.11 451.445C1885.26 449.323 1886.82 447.616 1888.79 446.324C1890.77 445.031 1893.01 444.056 1895.52 443.398C1898.06 442.739 1900.72 442.276 1903.5 442.008C1906.76 441.666 1909.4 441.349 1911.4 441.057C1913.4 440.74 1914.85 440.277 1915.75 439.667C1916.65 439.057 1917.1 438.155 1917.1 436.96V436.741C1917.1 434.424 1916.37 432.632 1914.91 431.364C1913.47 430.096 1911.42 429.462 1908.76 429.462C1905.96 429.462 1903.73 430.084 1902.07 431.327C1900.41 432.547 1899.31 434.083 1898.78 435.936L1884.37 434.766C1885.1 431.352 1886.54 428.401 1888.68 425.914C1890.83 423.402 1893.6 421.476 1896.98 420.135C1900.4 418.769 1904.35 418.087 1908.84 418.087C1911.96 418.087 1914.94 418.452 1917.8 419.184C1920.67 419.915 1923.22 421.049 1925.44 422.586C1927.68 424.122 1929.45 426.097 1930.75 428.511C1932.04 430.901 1932.68 433.766 1932.68 437.107V475H1917.91V467.209H1917.47C1916.57 468.965 1915.36 470.513 1913.85 471.854C1912.33 473.171 1910.52 474.208 1908.4 474.963C1906.28 475.695 1903.82 476.061 1901.04 476.061ZM1905.51 465.307C1907.8 465.307 1909.82 464.856 1911.58 463.954C1913.33 463.027 1914.71 461.784 1915.71 460.223C1916.71 458.662 1917.21 456.895 1917.21 454.919V448.957C1916.72 449.274 1916.05 449.567 1915.2 449.835C1914.37 450.079 1913.43 450.311 1912.38 450.53C1911.34 450.725 1910.29 450.908 1909.24 451.079C1908.19 451.225 1907.24 451.359 1906.38 451.481C1904.56 451.749 1902.96 452.176 1901.59 452.761C1900.23 453.347 1899.17 454.139 1898.41 455.139C1897.66 456.114 1897.28 457.333 1897.28 458.797C1897.28 460.918 1898.05 462.54 1899.58 463.661C1901.14 464.759 1903.12 465.307 1905.51 465.307ZM1974.98 418.818V430.523H1940.31V418.818H1974.98ZM1948.25 475V414.758C1948.25 410.686 1949.04 407.309 1950.62 404.626C1952.23 401.944 1954.43 399.932 1957.21 398.591C1959.99 397.25 1963.15 396.58 1966.68 396.58C1969.07 396.58 1971.25 396.762 1973.23 397.128C1975.23 397.494 1976.72 397.823 1977.69 398.116L1974.91 409.82C1974.3 409.625 1973.55 409.442 1972.64 409.272C1971.77 409.101 1970.86 409.016 1969.94 409.016C1967.64 409.016 1966.05 409.552 1965.15 410.625C1964.24 411.674 1963.79 413.149 1963.79 415.051V475H1948.25ZM2014.72 418.818V430.523H1980.04V418.818H2014.72ZM1987.98 475V414.758C1987.98 410.686 1988.77 407.309 1990.36 404.626C1991.97 401.944 1994.16 399.932 1996.94 398.591C1999.72 397.25 2002.88 396.58 2006.41 396.58C2008.8 396.58 2010.99 396.762 2012.96 397.128C2014.96 397.494 2016.45 397.823 2017.42 398.116L2014.64 409.82C2014.03 409.625 2013.28 409.442 2012.38 409.272C2011.5 409.101 2010.6 409.016 2009.67 409.016C2007.38 409.016 2005.78 409.552 2004.88 410.625C2003.97 411.674 2003.52 413.149 2003.52 415.051V475H1987.98ZM2047.83 476.097C2042.05 476.097 2037.07 474.927 2032.9 472.586C2028.76 470.221 2025.56 466.88 2023.32 462.564C2021.08 458.223 2019.96 453.091 2019.96 447.165C2019.96 441.386 2021.08 436.314 2023.32 431.949C2025.56 427.584 2028.72 424.183 2032.79 421.744C2036.89 419.306 2041.69 418.087 2047.21 418.087C2050.91 418.087 2054.36 418.684 2057.56 419.879C2060.78 421.049 2063.58 422.817 2065.97 425.183C2068.38 427.548 2070.26 430.523 2071.6 434.107C2072.94 437.667 2073.61 441.837 2073.61 446.616V450.896H2026.17V441.24H2058.95C2058.95 438.996 2058.46 437.009 2057.48 435.278C2056.51 433.546 2055.15 432.193 2053.42 431.218C2051.72 430.218 2049.73 429.718 2047.46 429.718C2045.1 429.718 2043 430.267 2041.17 431.364C2039.37 432.437 2037.95 433.888 2036.93 435.717C2035.9 437.521 2035.38 439.533 2035.35 441.752V450.933C2035.35 453.712 2035.87 456.114 2036.89 458.138C2037.94 460.162 2039.41 461.723 2041.32 462.82C2043.22 463.917 2045.47 464.466 2048.08 464.466C2049.81 464.466 2051.4 464.222 2052.84 463.734C2054.28 463.247 2055.51 462.515 2056.53 461.54C2057.56 460.564 2058.34 459.37 2058.87 457.955L2073.28 458.906C2072.55 462.369 2071.05 465.393 2068.79 467.977C2066.54 470.538 2063.64 472.537 2060.08 473.976C2056.54 475.39 2052.46 476.097 2047.83 476.097ZM2109.17 476.097C2103.41 476.097 2098.46 474.878 2094.32 472.44C2090.2 469.977 2087.03 466.563 2084.81 462.198C2082.61 457.833 2081.51 452.81 2081.51 447.129C2081.51 441.374 2082.62 436.326 2084.84 431.986C2087.09 427.621 2090.27 424.219 2094.39 421.781C2098.51 419.318 2103.41 418.087 2109.09 418.087C2113.99 418.087 2118.29 418.977 2121.97 420.757C2125.65 422.537 2128.56 425.036 2130.71 428.255C2132.86 431.474 2134.04 435.253 2134.26 439.594H2119.55C2119.14 436.79 2118.04 434.534 2116.26 432.827C2114.51 431.096 2112.2 430.23 2109.35 430.23C2106.94 430.23 2104.83 430.888 2103.02 432.205C2101.24 433.498 2099.85 435.387 2098.85 437.875C2097.85 440.362 2097.35 443.373 2097.35 446.909C2097.35 450.494 2097.84 453.542 2098.82 456.053C2099.81 458.565 2101.22 460.479 2103.02 461.796C2104.83 463.113 2106.94 463.771 2109.35 463.771C2111.13 463.771 2112.73 463.405 2114.14 462.674C2115.58 461.942 2116.76 460.881 2117.69 459.491C2118.64 458.077 2119.26 456.382 2119.55 454.407H2134.26C2134.01 458.699 2132.84 462.479 2130.75 465.746C2128.67 468.989 2125.81 471.525 2122.15 473.354C2118.49 475.183 2114.17 476.097 2109.17 476.097ZM2174.12 418.818V430.523H2140.28V418.818H2174.12ZM2147.96 405.358H2163.55V457.736C2163.55 459.174 2163.77 460.296 2164.21 461.101C2164.64 461.881 2165.25 462.43 2166.03 462.747C2166.84 463.064 2167.77 463.222 2168.81 463.222C2169.55 463.222 2170.28 463.161 2171.01 463.039C2171.74 462.893 2172.3 462.783 2172.69 462.71L2175.14 474.305C2174.36 474.549 2173.26 474.829 2171.85 475.146C2170.44 475.488 2168.72 475.695 2166.69 475.768C2162.94 475.914 2159.65 475.415 2156.82 474.268C2154.01 473.122 2151.83 471.342 2150.27 468.928C2148.71 466.514 2147.94 463.466 2147.96 459.784V405.358ZM2209.27 476.097C2203.49 476.097 2198.51 474.927 2194.34 472.586C2190.2 470.221 2187 466.88 2184.76 462.564C2182.52 458.223 2181.4 453.091 2181.4 447.165C2181.4 441.386 2182.52 436.314 2184.76 431.949C2187 427.584 2190.16 424.183 2194.23 421.744C2198.33 419.306 2203.13 418.087 2208.65 418.087C2212.35 418.087 2215.8 418.684 2219 419.879C2222.22 421.049 2225.02 422.817 2227.41 425.183C2229.82 427.548 2231.7 430.523 2233.04 434.107C2234.38 437.667 2235.05 441.837 2235.05 446.616V450.896H2187.61V441.24H2220.39C2220.39 438.996 2219.9 437.009 2218.92 435.278C2217.95 433.546 2216.6 432.193 2214.86 431.218C2213.16 430.218 2211.17 429.718 2208.9 429.718C2206.54 429.718 2204.44 430.267 2202.61 431.364C2200.81 432.437 2199.39 433.888 2198.37 435.717C2197.34 437.521 2196.82 439.533 2196.79 441.752V450.933C2196.79 453.712 2197.31 456.114 2198.33 458.138C2199.38 460.162 2200.85 461.723 2202.76 462.82C2204.66 463.917 2206.91 464.466 2209.52 464.466C2211.25 464.466 2212.84 464.222 2214.28 463.734C2215.72 463.247 2216.95 462.515 2217.97 461.54C2219 460.564 2219.78 459.37 2220.31 457.955L2234.72 458.906C2233.99 462.369 2232.49 465.393 2230.23 467.977C2227.98 470.538 2225.08 472.537 2221.52 473.976C2217.98 475.39 2213.9 476.097 2209.27 476.097ZM2265.92 475.914C2261.66 475.914 2257.79 474.817 2254.33 472.623C2250.89 470.404 2248.16 467.148 2246.14 462.857C2244.14 458.54 2243.14 453.249 2243.14 446.982C2243.14 440.545 2244.17 435.192 2246.25 430.925C2248.32 426.633 2251.07 423.427 2254.51 421.305C2257.98 419.16 2261.77 418.087 2265.89 418.087C2269.03 418.087 2271.66 418.623 2273.75 419.696C2275.87 420.745 2277.58 422.061 2278.87 423.646C2280.19 425.207 2281.19 426.743 2281.87 428.255H2282.35V400.091H2297.89V475H2282.53V466.002H2281.87C2281.14 467.563 2280.1 469.111 2278.76 470.647C2277.45 472.159 2275.73 473.415 2273.61 474.415C2271.51 475.415 2268.95 475.914 2265.92 475.914ZM2270.86 463.515C2273.37 463.515 2275.5 462.832 2277.23 461.467C2278.98 460.077 2280.32 458.138 2281.25 455.651C2282.2 453.164 2282.68 450.25 2282.68 446.909C2282.68 443.568 2282.21 440.667 2281.29 438.204C2280.36 435.741 2279.02 433.839 2277.26 432.498C2275.51 431.157 2273.37 430.486 2270.86 430.486C2268.3 430.486 2266.14 431.181 2264.39 432.571C2262.63 433.961 2261.3 435.887 2260.4 438.35C2259.5 440.813 2259.05 443.666 2259.05 446.909C2259.05 450.177 2259.5 453.066 2260.4 455.578C2261.33 458.065 2262.66 460.016 2264.39 461.43C2266.14 462.82 2268.3 463.515 2270.86 463.515ZM2334.84 475V400.091H2350.42V428.255H2350.89C2351.58 426.743 2352.56 425.207 2353.86 423.646C2355.17 422.061 2356.88 420.745 2358.98 419.696C2361.1 418.623 2363.73 418.087 2366.88 418.087C2370.97 418.087 2374.75 419.16 2378.22 421.305C2381.68 423.427 2384.45 426.633 2386.52 430.925C2388.59 435.192 2389.63 440.545 2389.63 446.982C2389.63 453.249 2388.62 458.54 2386.59 462.857C2384.59 467.148 2381.86 470.404 2378.4 472.623C2374.96 474.817 2371.11 475.914 2366.84 475.914C2363.82 475.914 2361.24 475.415 2359.12 474.415C2357.03 473.415 2355.31 472.159 2353.96 470.647C2352.62 469.111 2351.6 467.563 2350.89 466.002H2350.2V475H2334.84ZM2350.09 446.909C2350.09 450.25 2350.55 453.164 2351.48 455.651C2352.4 458.138 2353.75 460.077 2355.5 461.467C2357.26 462.832 2359.39 463.515 2361.9 463.515C2364.44 463.515 2366.58 462.82 2368.34 461.43C2370.1 460.016 2371.42 458.065 2372.33 455.578C2373.25 453.066 2373.72 450.177 2373.72 446.909C2373.72 443.666 2373.27 440.813 2372.36 438.35C2371.46 435.887 2370.13 433.961 2368.38 432.571C2366.62 431.181 2364.46 430.486 2361.9 430.486C2359.37 430.486 2357.22 431.157 2355.46 432.498C2353.73 433.839 2352.4 435.741 2351.48 438.204C2350.55 440.667 2350.09 443.568 2350.09 446.909ZM2407.83 496.068C2405.86 496.068 2404 495.91 2402.27 495.593C2400.57 495.3 2399.15 494.922 2398.03 494.459L2401.54 482.827C2403.37 483.388 2405.02 483.693 2406.48 483.742C2407.97 483.791 2409.25 483.449 2410.32 482.718C2411.42 481.986 2412.31 480.743 2412.99 478.987L2413.91 476.609L2393.75 418.818H2410.14L2421.77 460.077H2422.35L2434.1 418.818H2450.59L2428.76 481.072C2427.71 484.095 2426.28 486.729 2424.48 488.972C2422.7 491.24 2420.44 492.984 2417.71 494.203C2414.98 495.446 2411.69 496.068 2407.83 496.068ZM2497.99 442.52V475H2482.4V418.818H2497.25V428.73H2497.91C2499.16 425.463 2501.24 422.878 2504.17 420.976C2507.09 419.05 2510.64 418.087 2514.81 418.087C2518.71 418.087 2522.11 418.94 2525.02 420.647C2527.92 422.354 2530.17 424.792 2531.78 427.962C2533.39 431.108 2534.2 434.863 2534.2 439.228V475H2518.62V442.008C2518.64 438.57 2517.76 435.887 2515.98 433.961C2514.2 432.01 2511.75 431.035 2508.63 431.035C2506.53 431.035 2504.68 431.486 2503.07 432.388C2501.48 433.29 2500.24 434.607 2499.34 436.338C2498.46 438.045 2498.01 440.106 2497.99 442.52ZM2572.08 476.097C2566.3 476.097 2561.33 474.927 2557.16 472.586C2553.01 470.221 2549.82 466.88 2547.57 462.564C2545.33 458.223 2544.21 453.091 2544.21 447.165C2544.21 441.386 2545.33 436.314 2547.57 431.949C2549.82 427.584 2552.98 424.183 2557.05 421.744C2561.14 419.306 2565.95 418.087 2571.46 418.087C2575.17 418.087 2578.62 418.684 2581.81 419.879C2585.03 421.049 2587.83 422.817 2590.22 425.183C2592.64 427.548 2594.51 430.523 2595.86 434.107C2597.2 437.667 2597.87 441.837 2597.87 446.616V450.896H2550.43V441.24H2583.2C2583.2 438.996 2582.71 437.009 2581.74 435.278C2580.76 433.546 2579.41 432.193 2577.68 431.218C2575.97 430.218 2573.98 429.718 2571.72 429.718C2569.35 429.718 2567.25 430.267 2565.42 431.364C2563.62 432.437 2562.21 433.888 2561.18 435.717C2560.16 437.521 2559.63 439.533 2559.61 441.752V450.933C2559.61 453.712 2560.12 456.114 2561.14 458.138C2562.19 460.162 2563.67 461.723 2565.57 462.82C2567.47 463.917 2569.73 464.466 2572.34 464.466C2574.07 464.466 2575.65 464.222 2577.09 463.734C2578.53 463.247 2579.76 462.515 2580.79 461.54C2581.81 460.564 2582.59 459.37 2583.13 457.955L2597.54 458.906C2596.81 462.369 2595.31 465.393 2593.04 467.977C2590.8 470.538 2587.89 472.537 2584.33 473.976C2580.8 475.39 2576.71 476.097 2572.08 476.097ZM2618.72 475L2603.43 418.818H2619.19L2627.9 456.565H2628.41L2637.48 418.818H2652.95L2662.17 456.346H2662.64L2671.2 418.818H2686.93L2671.68 475H2655.18L2645.53 439.667H2644.83L2635.18 475H2618.72ZM2748.97 418.818V430.523H2715.13V418.818H2748.97ZM2722.81 405.358H2738.4V457.736C2738.4 459.174 2738.61 460.296 2739.05 461.101C2739.49 461.881 2740.1 462.43 2740.88 462.747C2741.69 463.064 2742.61 463.222 2743.66 463.222C2744.39 463.222 2745.13 463.161 2745.86 463.039C2746.59 462.893 2747.15 462.783 2747.54 462.71L2749.99 474.305C2749.21 474.549 2748.11 474.829 2746.7 475.146C2745.28 475.488 2743.56 475.695 2741.54 475.768C2737.79 475.914 2734.49 475.415 2731.67 474.268C2728.86 473.122 2726.68 471.342 2725.12 468.928C2723.56 466.514 2722.79 463.466 2722.81 459.784V405.358ZM2775.14 476.061C2771.55 476.061 2768.36 475.439 2765.55 474.195C2762.75 472.927 2760.53 471.062 2758.9 468.599C2757.29 466.112 2756.48 463.015 2756.48 459.309C2756.48 456.187 2757.06 453.566 2758.2 451.445C2759.35 449.323 2760.91 447.616 2762.88 446.324C2764.86 445.031 2767.1 444.056 2769.61 443.398C2772.15 442.739 2774.81 442.276 2777.59 442.008C2780.85 441.666 2783.49 441.349 2785.49 441.057C2787.49 440.74 2788.94 440.277 2789.84 439.667C2790.74 439.057 2791.19 438.155 2791.19 436.96V436.741C2791.19 434.424 2790.46 432.632 2789 431.364C2787.56 430.096 2785.51 429.462 2782.85 429.462C2780.05 429.462 2777.82 430.084 2776.16 431.327C2774.5 432.547 2773.41 434.083 2772.87 435.936L2758.46 434.766C2759.19 431.352 2760.63 428.401 2762.77 425.914C2764.92 423.402 2767.69 421.476 2771.08 420.135C2774.49 418.769 2778.44 418.087 2782.93 418.087C2786.05 418.087 2789.04 418.452 2791.89 419.184C2794.77 419.915 2797.31 421.049 2799.53 422.586C2801.78 424.122 2803.54 426.097 2804.84 428.511C2806.13 430.901 2806.78 433.766 2806.78 437.107V475H2792V467.209H2791.56C2790.66 468.965 2789.45 470.513 2787.94 471.854C2786.43 473.171 2784.61 474.208 2782.49 474.963C2780.37 475.695 2777.92 476.061 2775.14 476.061ZM2779.6 465.307C2781.89 465.307 2783.91 464.856 2785.67 463.954C2787.43 463.027 2788.8 461.784 2789.8 460.223C2790.8 458.662 2791.3 456.895 2791.3 454.919V448.957C2790.82 449.274 2790.15 449.567 2789.29 449.835C2788.46 450.079 2787.52 450.311 2786.48 450.53C2785.43 450.725 2784.38 450.908 2783.33 451.079C2782.28 451.225 2781.33 451.359 2780.48 451.481C2778.65 451.749 2777.05 452.176 2775.69 452.761C2774.32 453.347 2773.26 454.139 2772.5 455.139C2771.75 456.114 2771.37 457.333 2771.37 458.797C2771.37 460.918 2772.14 462.54 2773.67 463.661C2775.23 464.759 2777.21 465.307 2779.6 465.307ZM2818.86 475V418.818H2833.97V428.621H2834.56C2835.58 425.134 2837.3 422.5 2839.71 420.72C2842.13 418.916 2844.91 418.013 2848.05 418.013C2848.83 418.013 2849.67 418.062 2850.58 418.16C2851.48 418.257 2852.27 418.391 2852.95 418.562V432.388C2852.22 432.169 2851.21 431.974 2849.92 431.803C2848.63 431.632 2847.44 431.547 2846.37 431.547C2844.08 431.547 2842.03 432.047 2840.22 433.047C2838.44 434.022 2837.03 435.387 2835.98 437.143C2834.96 438.899 2834.45 440.923 2834.45 443.215V475H2818.86ZM2861.01 475V418.818H2876.59V475H2861.01ZM2868.84 411.576C2866.52 411.576 2864.53 410.808 2862.87 409.272C2861.24 407.711 2860.42 405.846 2860.42 403.675C2860.42 401.53 2861.24 399.689 2862.87 398.152C2864.53 396.592 2866.52 395.811 2868.84 395.811C2871.15 395.811 2873.13 396.592 2874.76 398.152C2876.42 399.689 2877.25 401.53 2877.25 403.675C2877.25 405.846 2876.42 407.711 2874.76 409.272C2873.13 410.808 2871.15 411.576 2868.84 411.576ZM2919.29 418.818V430.523H2884.61V418.818H2919.29ZM2892.55 475V414.758C2892.55 410.686 2893.34 407.309 2894.93 404.626C2896.53 401.944 2898.73 399.932 2901.51 398.591C2904.29 397.25 2907.45 396.58 2910.98 396.58C2913.37 396.58 2915.55 396.762 2917.53 397.128C2919.53 397.494 2921.02 397.823 2921.99 398.116L2919.21 409.82C2918.6 409.625 2917.85 409.442 2916.94 409.272C2916.07 409.101 2915.16 409.016 2914.24 409.016C2911.95 409.016 2910.35 409.552 2909.45 410.625C2908.54 411.674 2908.09 413.149 2908.09 415.051V475H2892.55ZM2959.02 418.818V430.523H2924.34V418.818H2959.02ZM2932.28 475V414.758C2932.28 410.686 2933.07 407.309 2934.66 404.626C2936.27 401.944 2938.46 399.932 2941.24 398.591C2944.02 397.25 2947.18 396.58 2950.71 396.58C2953.1 396.58 2955.29 396.762 2957.26 397.128C2959.26 397.494 2960.75 397.823 2961.72 398.116L2958.94 409.82C2958.33 409.625 2957.58 409.442 2956.68 409.272C2955.8 409.101 2954.9 409.016 2953.97 409.016C2951.68 409.016 2950.08 409.552 2949.18 410.625C2948.28 411.674 2947.82 413.149 2947.82 415.051V475H2932.28ZM3013.47 434.839L2999.21 435.717C2998.96 434.497 2998.44 433.4 2997.63 432.425C2996.83 431.425 2995.77 430.632 2994.45 430.047C2993.16 429.438 2991.61 429.133 2989.81 429.133C2987.39 429.133 2985.36 429.645 2983.7 430.669C2982.04 431.669 2981.21 433.01 2981.21 434.692C2981.21 436.034 2981.75 437.167 2982.82 438.094C2983.89 439.021 2985.73 439.764 2988.34 440.325L2998.51 442.374C3003.97 443.495 3008.04 445.3 3010.73 447.787C3013.41 450.274 3014.75 453.542 3014.75 457.589C3014.75 461.272 3013.67 464.502 3011.5 467.282C3009.35 470.062 3006.4 472.232 3002.64 473.793C2998.91 475.329 2994.61 476.097 2989.73 476.097C2982.29 476.097 2976.37 474.549 2971.96 471.452C2967.57 468.331 2964.99 464.088 2964.24 458.723L2979.56 457.919C2980.03 460.186 2981.15 461.918 2982.93 463.113C2984.71 464.283 2986.99 464.868 2989.77 464.868C2992.5 464.868 2994.69 464.344 2996.35 463.295C2998.04 462.223 2998.89 460.845 2998.91 459.162C2998.89 457.748 2998.29 456.59 2997.12 455.688C2995.95 454.761 2994.15 454.054 2991.71 453.566L2981.98 451.627C2976.49 450.53 2972.41 448.628 2969.72 445.922C2967.07 443.215 2965.74 439.764 2965.74 435.57C2965.74 431.961 2966.71 428.852 2968.66 426.243C2970.64 423.634 2973.41 421.622 2976.97 420.208C2980.55 418.794 2984.75 418.087 2989.55 418.087C2996.65 418.087 3002.23 419.586 3006.3 422.586C3010.4 425.585 3012.79 429.669 3013.47 434.839ZM3043.18 400.091L3041.75 452.542H3028.37L3026.9 400.091H3043.18ZM3035.06 475.951C3032.65 475.951 3030.57 475.098 3028.84 473.391C3027.11 471.659 3026.26 469.587 3026.28 467.173C3026.26 464.783 3027.11 462.735 3028.84 461.028C3030.57 459.321 3032.65 458.467 3035.06 458.467C3037.38 458.467 3039.41 459.321 3041.17 461.028C3042.92 462.735 3043.81 464.783 3043.84 467.173C3043.81 468.782 3043.39 470.257 3042.56 471.598C3041.75 472.915 3040.69 473.976 3039.38 474.781C3038.06 475.561 3036.62 475.951 3035.06 475.951Z" fill="#C9C9C9"/>
<path d="M798.236 543.455C797.857 540.252 796.318 537.766 793.621 535.996C790.924 534.226 787.616 533.341 783.697 533.341C780.832 533.341 778.325 533.804 776.175 534.732C774.047 535.659 772.383 536.933 771.182 538.556C770.002 540.178 769.412 542.022 769.412 544.087C769.412 545.814 769.823 547.3 770.645 548.543C771.487 549.765 772.562 550.787 773.868 551.609C775.175 552.409 776.544 553.073 777.977 553.6C779.41 554.105 780.727 554.516 781.928 554.832L788.501 556.602C790.187 557.045 792.062 557.656 794.127 558.435C796.213 559.215 798.204 560.279 800.1 561.627C802.018 562.955 803.598 564.662 804.841 566.748C806.084 568.833 806.706 571.393 806.706 574.428C806.706 577.925 805.789 581.086 803.956 583.909C802.144 586.732 799.489 588.976 795.992 590.641C792.515 592.306 788.291 593.138 783.318 593.138C778.683 593.138 774.669 592.39 771.277 590.894C767.905 589.398 765.251 587.312 763.312 584.636C761.395 581.96 760.31 578.852 760.057 575.312H768.148C768.358 577.757 769.18 579.779 770.613 581.381C772.067 582.961 773.9 584.141 776.112 584.92C778.346 585.679 780.748 586.058 783.318 586.058C786.31 586.058 788.997 585.574 791.377 584.604C793.758 583.614 795.644 582.245 797.035 580.496C798.425 578.726 799.121 576.661 799.121 574.301C799.121 572.152 798.52 570.403 797.319 569.055C796.118 567.706 794.538 566.611 792.578 565.768C790.619 564.925 788.501 564.187 786.226 563.555L778.261 561.28C773.205 559.826 769.201 557.751 766.251 555.054C763.302 552.357 761.827 548.827 761.827 544.466C761.827 540.842 762.806 537.681 764.766 534.984C766.747 532.266 769.401 530.159 772.73 528.663C776.081 527.146 779.821 526.388 783.95 526.388C788.122 526.388 791.83 527.136 795.075 528.632C798.32 530.107 800.891 532.129 802.787 534.7C804.704 537.27 805.716 540.189 805.821 543.455H798.236ZM838.935 593.011C834.258 593.011 830.223 591.979 826.831 589.914C823.459 587.828 820.857 584.92 819.024 581.191C817.212 577.441 816.306 573.079 816.306 568.107C816.306 563.134 817.212 558.751 819.024 554.959C820.857 551.145 823.407 548.174 826.672 546.046C829.959 543.897 833.794 542.822 838.177 542.822C840.705 542.822 843.202 543.244 845.667 544.087C848.132 544.929 850.376 546.299 852.399 548.195C854.422 550.071 856.034 552.557 857.235 555.654C858.436 558.751 859.036 562.565 859.036 567.095V570.256H821.616V563.808H851.451C851.451 561.069 850.903 558.625 849.807 556.476C848.733 554.327 847.195 552.631 845.193 551.387C843.213 550.144 840.874 549.523 838.177 549.523C835.206 549.523 832.635 550.26 830.465 551.735C828.316 553.189 826.662 555.085 825.503 557.424C824.344 559.763 823.765 562.27 823.765 564.946V569.244C823.765 572.911 824.397 576.018 825.661 578.568C826.946 581.096 828.727 583.024 831.002 584.352C833.278 585.658 835.922 586.311 838.935 586.311C840.895 586.311 842.665 586.037 844.245 585.489C845.846 584.92 847.226 584.078 848.385 582.961C849.544 581.823 850.44 580.411 851.072 578.726L858.278 580.749C857.519 583.193 856.244 585.342 854.453 587.196C852.662 589.029 850.45 590.462 847.816 591.494C845.183 592.506 842.222 593.011 838.935 593.011ZM890.736 593.011C886.059 593.011 882.024 591.979 878.631 589.914C875.26 587.828 872.658 584.92 870.825 581.191C869.013 577.441 868.107 573.079 868.107 568.107C868.107 563.134 869.013 558.751 870.825 554.959C872.658 551.145 875.207 548.174 878.473 546.046C881.76 543.897 885.595 542.822 889.978 542.822C892.506 542.822 895.003 543.244 897.468 544.087C899.933 544.929 902.177 546.299 904.2 548.195C906.223 550.071 907.834 552.557 909.035 555.654C910.236 558.751 910.837 562.565 910.837 567.095V570.256H873.416V563.808H903.252C903.252 561.069 902.704 558.625 901.608 556.476C900.534 554.327 898.996 552.631 896.994 551.387C895.013 550.144 892.675 549.523 889.978 549.523C887.007 549.523 884.436 550.26 882.266 551.735C880.117 553.189 878.463 555.085 877.304 557.424C876.145 559.763 875.566 562.27 875.566 564.946V569.244C875.566 572.911 876.198 576.018 877.462 578.568C878.747 581.096 880.528 583.024 882.803 584.352C885.079 585.658 887.723 586.311 890.736 586.311C892.696 586.311 894.465 586.037 896.046 585.489C897.647 584.92 899.027 584.078 900.186 582.961C901.345 581.823 902.24 580.411 902.872 578.726L910.078 580.749C909.32 583.193 908.045 585.342 906.254 587.196C904.463 589.029 902.251 590.462 899.617 591.494C896.983 592.506 894.023 593.011 890.736 593.011ZM968.327 543.455V549.776H943.169V543.455H968.327ZM950.501 531.824H957.96V578.094C957.96 580.201 958.266 581.781 958.877 582.835C959.509 583.867 960.309 584.562 961.279 584.92C962.269 585.258 963.312 585.426 964.408 585.426C965.229 585.426 965.904 585.384 966.43 585.3C966.957 585.194 967.378 585.11 967.695 585.047L969.212 591.747C968.706 591.937 968 592.126 967.094 592.316C966.188 592.527 965.04 592.632 963.649 592.632C961.542 592.632 959.477 592.179 957.454 591.273C955.453 590.367 953.788 588.987 952.461 587.133C951.155 585.279 950.501 582.94 950.501 580.116V531.824ZM988.048 562.797V592H980.589V527.273H988.048V551.04H988.68C989.818 548.532 991.525 546.541 993.8 545.066C996.097 543.57 999.152 542.822 1002.97 542.822C1006.27 542.822 1009.17 543.486 1011.66 544.814C1014.14 546.12 1016.07 548.132 1017.44 550.85C1018.83 553.547 1019.53 556.982 1019.53 561.153V592H1012.07V561.659C1012.07 557.803 1011.07 554.822 1009.07 552.715C1007.09 550.587 1004.34 549.523 1000.82 549.523C998.373 549.523 996.181 550.039 994.243 551.071C992.325 552.104 990.808 553.61 989.692 555.591C988.596 557.571 988.048 559.973 988.048 562.797ZM1053.53 593.011C1048.85 593.011 1044.81 591.979 1041.42 589.914C1038.05 587.828 1035.45 584.92 1033.61 581.191C1031.8 577.441 1030.9 573.079 1030.9 568.107C1030.9 563.134 1031.8 558.751 1033.61 554.959C1035.45 551.145 1038 548.174 1041.26 546.046C1044.55 543.897 1048.39 542.822 1052.77 542.822C1055.3 542.822 1057.79 543.244 1060.26 544.087C1062.72 544.929 1064.97 546.299 1066.99 548.195C1069.01 550.071 1070.62 552.557 1071.83 555.654C1073.03 558.751 1073.63 562.565 1073.63 567.095V570.256H1036.21V563.808H1066.04C1066.04 561.069 1065.49 558.625 1064.4 556.476C1063.32 554.327 1061.79 552.631 1059.78 551.387C1057.8 550.144 1055.46 549.523 1052.77 549.523C1049.8 549.523 1047.23 550.26 1045.06 551.735C1042.91 553.189 1041.25 555.085 1040.09 557.424C1038.94 559.763 1038.36 562.27 1038.36 564.946V569.244C1038.36 572.911 1038.99 576.018 1040.25 578.568C1041.54 581.096 1043.32 583.024 1045.59 584.352C1047.87 585.658 1050.51 586.311 1053.53 586.311C1055.49 586.311 1057.26 586.037 1058.84 585.489C1060.44 584.92 1061.82 584.078 1062.98 582.961C1064.13 581.823 1065.03 580.411 1065.66 578.726L1072.87 580.749C1072.11 583.193 1070.84 585.342 1069.04 587.196C1067.25 589.029 1065.04 590.462 1062.41 591.494C1059.77 592.506 1056.81 593.011 1053.53 593.011ZM1110 592V543.455H1117.46V592H1110ZM1113.8 535.364C1112.34 535.364 1111.09 534.868 1110.04 533.878C1109 532.888 1108.49 531.697 1108.49 530.307C1108.49 528.916 1109 527.726 1110.04 526.735C1111.09 525.745 1112.34 525.25 1113.8 525.25C1115.25 525.25 1116.49 525.745 1117.53 526.735C1118.58 527.726 1119.11 528.916 1119.11 530.307C1119.11 531.697 1118.58 532.888 1117.53 533.878C1116.49 534.868 1115.25 535.364 1113.8 535.364ZM1131.12 592V543.455H1138.33V551.04H1138.96C1139.97 548.448 1141.61 546.436 1143.86 545.003C1146.12 543.549 1148.82 542.822 1151.98 542.822C1155.19 542.822 1157.85 543.549 1159.98 545.003C1162.13 546.436 1163.8 548.448 1165.01 551.04H1165.51C1166.75 548.532 1168.62 546.541 1171.11 545.066C1173.59 543.57 1176.57 542.822 1180.05 542.822C1184.39 542.822 1187.94 544.181 1190.7 546.9C1193.46 549.596 1194.84 553.8 1194.84 559.51V592H1187.38V559.51C1187.38 555.928 1186.4 553.368 1184.44 551.83C1182.48 550.292 1180.18 549.523 1177.52 549.523C1174.11 549.523 1171.46 550.555 1169.59 552.62C1167.71 554.664 1166.78 557.255 1166.78 560.395V592H1159.19V558.751C1159.19 555.991 1158.29 553.768 1156.5 552.083C1154.71 550.376 1152.41 549.523 1149.58 549.523C1147.64 549.523 1145.83 550.039 1144.15 551.071C1142.48 552.104 1141.13 553.537 1140.1 555.37C1139.09 557.182 1138.58 559.278 1138.58 561.659V592H1131.12ZM1208.48 610.205V543.455H1215.68V551.166H1216.57C1217.12 550.323 1217.88 549.249 1218.84 547.942C1219.83 546.615 1221.25 545.435 1223.08 544.403C1224.93 543.349 1227.44 542.822 1230.6 542.822C1234.69 542.822 1238.29 543.844 1241.41 545.888C1244.53 547.932 1246.96 550.829 1248.71 554.58C1250.46 558.33 1251.33 562.755 1251.33 567.854C1251.33 572.995 1250.46 577.451 1248.71 581.223C1246.96 584.973 1244.54 587.881 1241.44 589.946C1238.34 591.989 1234.77 593.011 1230.73 593.011C1227.61 593.011 1225.11 592.495 1223.24 591.463C1221.36 590.409 1219.92 589.219 1218.91 587.891C1217.9 586.543 1217.12 585.426 1216.57 584.541H1215.94V610.205H1208.48ZM1215.81 567.727C1215.81 571.393 1216.35 574.628 1217.42 577.43C1218.5 580.211 1220.07 582.392 1222.13 583.972C1224.2 585.531 1226.72 586.311 1229.72 586.311C1232.84 586.311 1235.44 585.489 1237.52 583.846C1239.63 582.181 1241.21 579.948 1242.26 577.146C1243.34 574.322 1243.88 571.183 1243.88 567.727C1243.88 564.314 1243.35 561.238 1242.3 558.499C1241.26 555.738 1239.69 553.558 1237.59 551.956C1235.5 550.334 1232.88 549.523 1229.72 549.523C1226.68 549.523 1224.13 550.292 1222.07 551.83C1220 553.347 1218.44 555.475 1217.39 558.214C1216.34 560.932 1215.81 564.103 1215.81 567.727ZM1277 593.138C1273.92 593.138 1271.13 592.558 1268.62 591.4C1266.12 590.22 1264.12 588.523 1262.65 586.311C1261.17 584.078 1260.44 581.381 1260.44 578.22C1260.44 575.439 1260.98 573.184 1262.08 571.457C1263.18 569.708 1264.64 568.338 1266.47 567.348C1268.31 566.358 1270.33 565.62 1272.54 565.136C1274.78 564.63 1277.02 564.23 1279.27 563.935C1282.22 563.555 1284.61 563.271 1286.45 563.081C1288.3 562.871 1289.65 562.523 1290.49 562.038C1291.36 561.554 1291.79 560.711 1291.79 559.51V559.257C1291.79 556.139 1290.94 553.716 1289.23 551.988C1287.54 550.26 1284.98 549.396 1281.55 549.396C1277.99 549.396 1275.2 550.176 1273.17 551.735C1271.15 553.294 1269.73 554.959 1268.91 556.729L1261.83 554.2C1263.09 551.25 1264.78 548.954 1266.88 547.31C1269.01 545.646 1271.33 544.487 1273.84 543.834C1276.37 543.16 1278.85 542.822 1281.3 542.822C1282.86 542.822 1284.65 543.012 1286.67 543.391C1288.71 543.75 1290.68 544.498 1292.58 545.635C1294.5 546.773 1296.09 548.49 1297.35 550.787C1298.62 553.084 1299.25 556.16 1299.25 560.016V592H1291.79V585.426H1291.41C1290.9 586.48 1290.06 587.607 1288.88 588.808C1287.7 590.009 1286.13 591.031 1284.17 591.874C1282.21 592.716 1279.82 593.138 1277 593.138ZM1278.14 586.438C1281.09 586.438 1283.57 585.858 1285.59 584.699C1287.64 583.54 1289.18 582.044 1290.21 580.211C1291.26 578.378 1291.79 576.45 1291.79 574.428V567.601C1291.47 567.98 1290.78 568.328 1289.7 568.644C1288.65 568.939 1287.43 569.202 1286.04 569.434C1284.67 569.645 1283.33 569.834 1282.02 570.003C1280.74 570.15 1279.69 570.277 1278.89 570.382C1276.96 570.635 1275.14 571.046 1273.46 571.615C1271.79 572.163 1270.45 572.995 1269.41 574.112C1268.4 575.207 1267.9 576.703 1267.9 578.599C1267.9 581.191 1268.85 583.151 1270.77 584.478C1272.71 585.784 1275.16 586.438 1278.14 586.438ZM1332.58 593.011C1328.03 593.011 1324.11 591.937 1320.83 589.788C1317.54 587.638 1315.01 584.678 1313.24 580.907C1311.47 577.135 1310.59 572.826 1310.59 567.98C1310.59 563.05 1311.49 558.699 1313.3 554.927C1315.14 551.135 1317.69 548.174 1320.95 546.046C1324.24 543.897 1328.07 542.822 1332.46 542.822C1335.87 542.822 1338.95 543.455 1341.69 544.719C1344.42 545.983 1346.67 547.753 1348.42 550.028C1350.17 552.304 1351.25 554.959 1351.67 557.993H1344.21C1343.65 555.781 1342.38 553.821 1340.42 552.114C1338.48 550.387 1335.87 549.523 1332.58 549.523C1329.68 549.523 1327.13 550.281 1324.94 551.798C1322.76 553.294 1321.07 555.412 1319.85 558.151C1318.65 560.869 1318.05 564.061 1318.05 567.727C1318.05 571.478 1318.64 574.744 1319.81 577.525C1321.02 580.306 1322.7 582.466 1324.87 584.004C1327.06 585.542 1329.63 586.311 1332.58 586.311C1334.52 586.311 1336.28 585.974 1337.86 585.3C1339.44 584.625 1340.78 583.656 1341.88 582.392C1342.97 581.128 1343.75 579.611 1344.21 577.841H1351.67C1351.25 580.706 1350.21 583.288 1348.54 585.584C1346.9 587.86 1344.72 589.672 1342 591.02C1339.3 592.348 1336.17 593.011 1332.58 593.011ZM1383.69 543.455V549.776H1358.53V543.455H1383.69ZM1365.86 531.824H1373.32V578.094C1373.32 580.201 1373.63 581.781 1374.24 582.835C1374.87 583.867 1375.67 584.562 1376.64 584.92C1377.63 585.258 1378.67 585.426 1379.77 585.426C1380.59 585.426 1381.27 585.384 1381.79 585.3C1382.32 585.194 1382.74 585.11 1383.06 585.047L1384.57 591.747C1384.07 591.937 1383.36 592.126 1382.46 592.316C1381.55 592.527 1380.4 592.632 1379.01 592.632C1376.9 592.632 1374.84 592.179 1372.82 591.273C1370.82 590.367 1369.15 588.987 1367.82 587.133C1366.52 585.279 1365.86 582.94 1365.86 580.116V531.824ZM1434.23 593.138C1431.15 593.138 1428.36 592.558 1425.85 591.4C1423.34 590.22 1421.35 588.523 1419.88 586.311C1418.4 584.078 1417.66 581.381 1417.66 578.22C1417.66 575.439 1418.21 573.184 1419.31 571.457C1420.4 569.708 1421.87 568.338 1423.7 567.348C1425.53 566.358 1427.56 565.62 1429.77 565.136C1432 564.63 1434.25 564.23 1436.5 563.935C1439.45 563.555 1441.84 563.271 1443.68 563.081C1445.53 562.871 1446.88 562.523 1447.72 562.038C1448.58 561.554 1449.02 560.711 1449.02 559.51V559.257C1449.02 556.139 1448.16 553.716 1446.46 551.988C1444.77 550.26 1442.21 549.396 1438.78 549.396C1435.22 549.396 1432.42 550.176 1430.4 551.735C1428.38 553.294 1426.96 554.959 1426.13 556.729L1419.06 554.2C1420.32 551.25 1422 548.954 1424.11 547.31C1426.24 545.646 1428.56 544.487 1431.06 543.834C1433.59 543.16 1436.08 542.822 1438.52 542.822C1440.08 542.822 1441.87 543.012 1443.9 543.391C1445.94 543.75 1447.91 544.498 1449.81 545.635C1451.72 546.773 1453.31 548.49 1454.58 550.787C1455.84 553.084 1456.48 556.16 1456.48 560.016V592H1449.02V585.426H1448.64C1448.13 586.48 1447.29 587.607 1446.11 588.808C1444.93 590.009 1443.36 591.031 1441.4 591.874C1439.44 592.716 1437.05 593.138 1434.23 593.138ZM1435.36 586.438C1438.31 586.438 1440.8 585.858 1442.82 584.699C1444.87 583.54 1446.4 582.044 1447.44 580.211C1448.49 578.378 1449.02 576.45 1449.02 574.428V567.601C1448.7 567.98 1448.01 568.328 1446.93 568.644C1445.88 568.939 1444.66 569.202 1443.26 569.434C1441.9 569.645 1440.56 569.834 1439.25 570.003C1437.97 570.15 1436.92 570.277 1436.12 570.382C1434.18 570.635 1432.37 571.046 1430.69 571.615C1429.02 572.163 1427.67 572.995 1426.64 574.112C1425.63 575.207 1425.12 576.703 1425.12 578.599C1425.12 581.191 1426.08 583.151 1428 584.478C1429.94 585.784 1432.39 586.438 1435.36 586.438ZM1477.55 562.797V592H1470.09V543.455H1477.3V551.04H1477.93C1479.07 548.575 1480.79 546.594 1483.11 545.098C1485.43 543.581 1488.42 542.822 1492.09 542.822C1495.37 542.822 1498.25 543.497 1500.71 544.845C1503.18 546.173 1505.1 548.195 1506.47 550.913C1507.84 553.61 1508.52 557.024 1508.52 561.153V592H1501.06V561.659C1501.06 557.845 1500.07 554.875 1498.09 552.746C1496.11 550.597 1493.39 549.523 1489.94 549.523C1487.56 549.523 1485.43 550.039 1483.55 551.071C1481.7 552.104 1480.23 553.61 1479.16 555.591C1478.09 557.571 1477.55 559.973 1477.55 562.797ZM1540.48 593.011C1536.44 593.011 1532.87 591.989 1529.77 589.946C1526.67 587.881 1524.25 584.973 1522.5 581.223C1520.75 577.451 1519.88 572.995 1519.88 567.854C1519.88 562.755 1520.75 558.33 1522.5 554.58C1524.25 550.829 1526.68 547.932 1529.8 545.888C1532.92 543.844 1536.52 542.822 1540.61 542.822C1543.77 542.822 1546.27 543.349 1548.1 544.403C1549.95 545.435 1551.36 546.615 1552.33 547.942C1553.32 549.249 1554.09 550.323 1554.64 551.166H1555.27V527.273H1562.73V592H1555.53V584.541H1554.64C1554.09 585.426 1553.31 586.543 1552.3 587.891C1551.29 589.219 1549.85 590.409 1547.97 591.463C1546.1 592.495 1543.6 593.011 1540.48 593.011ZM1541.49 586.311C1544.49 586.311 1547.01 585.531 1549.08 583.972C1551.14 582.392 1552.71 580.211 1553.79 577.43C1554.86 574.628 1555.4 571.393 1555.4 567.727C1555.4 564.103 1554.87 560.932 1553.82 558.214C1552.77 555.475 1551.21 553.347 1549.14 551.83C1547.08 550.292 1544.53 549.523 1541.49 549.523C1538.33 549.523 1535.7 550.334 1533.59 551.956C1531.51 553.558 1529.94 555.738 1528.88 558.499C1527.85 561.238 1527.33 564.314 1527.33 567.727C1527.33 571.183 1527.86 574.322 1528.91 577.146C1529.99 579.948 1531.57 582.181 1533.66 583.846C1535.76 585.489 1538.37 586.311 1541.49 586.311ZM1622.81 593.011C1618.14 593.011 1614.1 591.979 1610.71 589.914C1607.34 587.828 1604.74 584.92 1602.9 581.191C1601.09 577.441 1600.18 573.079 1600.18 568.107C1600.18 563.134 1601.09 558.751 1602.9 554.959C1604.74 551.145 1607.28 548.174 1610.55 546.046C1613.84 543.897 1617.67 542.822 1622.05 542.822C1624.58 542.822 1627.08 543.244 1629.55 544.087C1632.01 544.929 1634.25 546.299 1636.28 548.195C1638.3 550.071 1639.91 552.557 1641.11 555.654C1642.31 558.751 1642.91 562.565 1642.91 567.095V570.256H1605.49V563.808H1635.33C1635.33 561.069 1634.78 558.625 1633.69 556.476C1632.61 554.327 1631.07 552.631 1629.07 551.387C1627.09 550.144 1624.75 549.523 1622.05 549.523C1619.08 549.523 1616.51 550.26 1614.34 551.735C1612.19 553.189 1610.54 555.085 1609.38 557.424C1608.22 559.763 1607.64 562.27 1607.64 564.946V569.244C1607.64 572.911 1608.27 576.018 1609.54 578.568C1610.82 581.096 1612.6 583.024 1614.88 584.352C1617.16 585.658 1619.8 586.311 1622.81 586.311C1624.77 586.311 1626.54 586.037 1628.12 585.489C1629.72 584.92 1631.1 584.078 1632.26 582.961C1633.42 581.823 1634.32 580.411 1634.95 578.726L1642.16 580.749C1641.4 583.193 1640.12 585.342 1638.33 587.196C1636.54 589.029 1634.33 590.462 1631.69 591.494C1629.06 592.506 1626.1 593.011 1622.81 593.011ZM1658.52 543.455L1670.15 563.303L1681.78 543.455H1690.38L1674.7 567.727L1690.38 592H1681.78L1670.15 573.163L1658.52 592H1649.92L1665.35 567.727L1649.92 543.455H1658.52ZM1701.02 610.205V543.455H1708.23V551.166H1709.11C1709.66 550.323 1710.42 549.249 1711.39 547.942C1712.38 546.615 1713.79 545.435 1715.62 544.403C1717.48 543.349 1719.98 542.822 1723.14 542.822C1727.23 542.822 1730.83 543.844 1733.95 545.888C1737.07 547.932 1739.5 550.829 1741.25 554.58C1743 558.33 1743.88 562.755 1743.88 567.854C1743.88 572.995 1743 577.451 1741.25 581.223C1739.5 584.973 1737.08 587.881 1733.98 589.946C1730.89 591.989 1727.32 593.011 1723.27 593.011C1720.15 593.011 1717.65 592.495 1715.78 591.463C1713.9 590.409 1712.46 589.219 1711.45 587.891C1710.44 586.543 1709.66 585.426 1709.11 584.541H1708.48V610.205H1701.02ZM1708.35 567.727C1708.35 571.393 1708.89 574.628 1709.96 577.43C1711.04 580.211 1712.61 582.392 1714.67 583.972C1716.74 585.531 1719.27 586.311 1722.26 586.311C1725.38 586.311 1727.98 585.489 1730.07 583.846C1732.17 582.181 1733.75 579.948 1734.81 577.146C1735.88 574.322 1736.42 571.183 1736.42 567.727C1736.42 564.314 1735.89 561.238 1734.84 558.499C1733.81 555.738 1732.24 553.558 1730.13 551.956C1728.04 550.334 1725.42 549.523 1722.26 549.523C1719.22 549.523 1716.68 550.292 1714.61 551.83C1712.55 553.347 1710.99 555.475 1709.93 558.214C1708.88 560.932 1708.35 564.103 1708.35 567.727ZM1762.71 527.273V592H1755.25V527.273H1762.71ZM1796.1 593.011C1791.71 593.011 1787.87 591.968 1784.56 589.882C1781.27 587.797 1778.7 584.878 1776.85 581.128C1775.02 577.377 1774.1 572.995 1774.1 567.98C1774.1 562.923 1775.02 558.509 1776.85 554.738C1778.7 550.966 1781.27 548.037 1784.56 545.951C1787.87 543.865 1791.71 542.822 1796.1 542.822C1800.48 542.822 1804.31 543.865 1807.6 545.951C1810.91 548.037 1813.48 550.966 1815.31 554.738C1817.17 558.509 1818.09 562.923 1818.09 567.98C1818.09 572.995 1817.17 577.377 1815.31 581.128C1813.48 584.878 1810.91 587.797 1807.6 589.882C1804.31 591.968 1800.48 593.011 1796.1 593.011ZM1796.1 586.311C1799.43 586.311 1802.16 585.458 1804.31 583.751C1806.46 582.044 1808.05 579.8 1809.09 577.019C1810.12 574.238 1810.63 571.225 1810.63 567.98C1810.63 564.735 1810.12 561.712 1809.09 558.909C1808.05 556.107 1806.46 553.842 1804.31 552.114C1802.16 550.387 1799.43 549.523 1796.1 549.523C1792.77 549.523 1790.03 550.387 1787.88 552.114C1785.73 553.842 1784.14 556.107 1783.11 558.909C1782.07 561.712 1781.56 564.735 1781.56 567.98C1781.56 571.225 1782.07 574.238 1783.11 577.019C1784.14 579.8 1785.73 582.044 1787.88 583.751C1790.03 585.458 1792.77 586.311 1796.1 586.311ZM1829.48 592V543.455H1836.69V550.787H1837.19C1838.08 548.385 1839.68 546.436 1841.99 544.94C1844.31 543.444 1846.93 542.696 1849.83 542.696C1850.38 542.696 1851.07 542.707 1851.89 542.728C1852.71 542.749 1853.33 542.78 1853.75 542.822V550.408C1853.5 550.344 1852.92 550.25 1852.01 550.123C1851.13 549.976 1850.19 549.902 1849.2 549.902C1846.84 549.902 1844.73 550.397 1842.88 551.387C1841.05 552.357 1839.59 553.705 1838.52 555.433C1837.46 557.14 1836.94 559.089 1836.94 561.28V592H1829.48ZM1881.47 593.011C1876.79 593.011 1872.76 591.979 1869.36 589.914C1865.99 587.828 1863.39 584.92 1861.56 581.191C1859.75 577.441 1858.84 573.079 1858.84 568.107C1858.84 563.134 1859.75 558.751 1861.56 554.959C1863.39 551.145 1865.94 548.174 1869.21 546.046C1872.49 543.897 1876.33 542.822 1880.71 542.822C1883.24 542.822 1885.74 543.244 1888.2 544.087C1890.67 544.929 1892.91 546.299 1894.93 548.195C1896.96 550.071 1898.57 552.557 1899.77 555.654C1900.97 558.751 1901.57 562.565 1901.57 567.095V570.256H1864.15V563.808H1893.99C1893.99 561.069 1893.44 558.625 1892.34 556.476C1891.27 554.327 1889.73 552.631 1887.73 551.387C1885.75 550.144 1883.41 549.523 1880.71 549.523C1877.74 549.523 1875.17 550.26 1873 551.735C1870.85 553.189 1869.2 555.085 1868.04 557.424C1866.88 559.763 1866.3 562.27 1866.3 564.946V569.244C1866.3 572.911 1866.93 576.018 1868.2 578.568C1869.48 581.096 1871.26 583.024 1873.54 584.352C1875.81 585.658 1878.46 586.311 1881.47 586.311C1883.43 586.311 1885.2 586.037 1886.78 585.489C1888.38 584.92 1889.76 584.078 1890.92 582.961C1892.08 581.823 1892.97 580.411 1893.61 578.726L1900.81 580.749C1900.05 583.193 1898.78 585.342 1896.99 587.196C1895.2 589.029 1892.98 590.462 1890.35 591.494C1887.72 592.506 1884.76 593.011 1881.47 593.011ZM1952.23 593.138C1949.16 593.138 1946.37 592.558 1943.86 591.4C1941.35 590.22 1939.36 588.523 1937.88 586.311C1936.41 584.078 1935.67 581.381 1935.67 578.22C1935.67 575.439 1936.22 573.184 1937.32 571.457C1938.41 569.708 1939.88 568.338 1941.71 567.348C1943.54 566.358 1945.56 565.62 1947.78 565.136C1950.01 564.63 1952.25 564.23 1954.51 563.935C1957.46 563.555 1959.85 563.271 1961.68 563.081C1963.54 562.871 1964.89 562.523 1965.73 562.038C1966.59 561.554 1967.02 560.711 1967.02 559.51V559.257C1967.02 556.139 1966.17 553.716 1964.46 551.988C1962.78 550.26 1960.22 549.396 1956.78 549.396C1953.22 549.396 1950.43 550.176 1948.41 551.735C1946.39 553.294 1944.96 554.959 1944.14 556.729L1937.06 554.2C1938.33 551.25 1940.01 548.954 1942.12 547.31C1944.25 545.646 1946.57 544.487 1949.07 543.834C1951.6 543.16 1954.09 542.822 1956.53 542.822C1958.09 542.822 1959.88 543.012 1961.9 543.391C1963.95 543.75 1965.92 544.498 1967.81 545.635C1969.73 546.773 1971.32 548.49 1972.59 550.787C1973.85 553.084 1974.48 556.16 1974.48 560.016V592H1967.02V585.426H1966.65C1966.14 586.48 1965.3 587.607 1964.12 588.808C1962.94 590.009 1961.37 591.031 1959.41 591.874C1957.45 592.716 1955.06 593.138 1952.23 593.138ZM1953.37 586.438C1956.32 586.438 1958.81 585.858 1960.83 584.699C1962.87 583.54 1964.41 582.044 1965.44 580.211C1966.5 578.378 1967.02 576.45 1967.02 574.428V567.601C1966.71 567.98 1966.01 568.328 1964.94 568.644C1963.89 568.939 1962.66 569.202 1961.27 569.434C1959.9 569.645 1958.56 569.834 1957.26 570.003C1955.97 570.15 1954.93 570.277 1954.13 570.382C1952.19 570.635 1950.38 571.046 1948.69 571.615C1947.03 572.163 1945.68 572.995 1944.65 574.112C1943.64 575.207 1943.13 576.703 1943.13 578.599C1943.13 581.191 1944.09 583.151 1946.01 584.478C1947.95 585.784 1950.4 586.438 1953.37 586.438ZM1995.56 527.273V592H1988.1V527.273H1995.56ZM2030.33 543.455V549.776H2005.17V543.455H2030.33ZM2012.5 531.824H2019.96V578.094C2019.96 580.201 2020.27 581.781 2020.88 582.835C2021.51 583.867 2022.31 584.562 2023.28 584.92C2024.27 585.258 2025.31 585.426 2026.41 585.426C2027.23 585.426 2027.91 585.384 2028.43 585.3C2028.96 585.194 2029.38 585.11 2029.7 585.047L2031.21 591.747C2030.71 591.937 2030 592.126 2029.1 592.316C2028.19 592.527 2027.04 592.632 2025.65 592.632C2023.54 592.632 2021.48 592.179 2019.46 591.273C2017.46 590.367 2015.79 588.987 2014.46 587.133C2013.16 585.279 2012.5 582.94 2012.5 580.116V531.824ZM2061.38 593.011C2056.7 593.011 2052.67 591.979 2049.28 589.914C2045.91 587.828 2043.3 584.92 2041.47 581.191C2039.66 577.441 2038.75 573.079 2038.75 568.107C2038.75 563.134 2039.66 558.751 2041.47 554.959C2043.3 551.145 2045.85 548.174 2049.12 546.046C2052.41 543.897 2056.24 542.822 2060.62 542.822C2063.15 542.822 2065.65 543.244 2068.11 544.087C2070.58 544.929 2072.82 546.299 2074.85 548.195C2076.87 550.071 2078.48 552.557 2079.68 555.654C2080.88 558.751 2081.48 562.565 2081.48 567.095V570.256H2044.06V563.808H2073.9C2073.9 561.069 2073.35 558.625 2072.25 556.476C2071.18 554.327 2069.64 552.631 2067.64 551.387C2065.66 550.144 2063.32 549.523 2060.62 549.523C2057.65 549.523 2055.08 550.26 2052.91 551.735C2050.76 553.189 2049.11 555.085 2047.95 557.424C2046.79 559.763 2046.21 562.27 2046.21 564.946V569.244C2046.21 572.911 2046.84 576.018 2048.11 578.568C2049.39 581.096 2051.17 583.024 2053.45 584.352C2055.72 585.658 2058.37 586.311 2061.38 586.311C2063.34 586.311 2065.11 586.037 2066.69 585.489C2068.29 584.92 2069.67 584.078 2070.83 582.961C2071.99 581.823 2072.89 580.411 2073.52 578.726L2080.72 580.749C2079.97 583.193 2078.69 585.342 2076.9 587.196C2075.11 589.029 2072.9 590.462 2070.26 591.494C2067.63 592.506 2064.67 593.011 2061.38 593.011ZM2092.83 592V543.455H2100.03V550.787H2100.54C2101.43 548.385 2103.03 546.436 2105.34 544.94C2107.66 543.444 2110.27 542.696 2113.18 542.696C2113.73 542.696 2114.41 542.707 2115.24 542.728C2116.06 542.749 2116.68 542.78 2117.1 542.822V550.408C2116.85 550.344 2116.27 550.25 2115.36 550.123C2114.48 549.976 2113.54 549.902 2112.55 549.902C2110.19 549.902 2108.08 550.397 2106.23 551.387C2104.4 552.357 2102.94 553.705 2101.87 555.433C2100.81 557.14 2100.29 559.089 2100.29 561.28V592H2092.83ZM2133.4 562.797V592H2125.94V543.455H2133.15V551.04H2133.78C2134.92 548.575 2136.65 546.594 2138.96 545.098C2141.28 543.581 2144.27 542.822 2147.94 542.822C2151.23 542.822 2154.1 543.497 2156.57 544.845C2159.03 546.173 2160.95 548.195 2162.32 550.913C2163.69 553.61 2164.37 557.024 2164.37 561.153V592H2156.92V561.659C2156.92 557.845 2155.93 554.875 2153.95 552.746C2151.96 550.597 2149.25 549.523 2145.79 549.523C2143.41 549.523 2141.28 550.039 2139.41 551.071C2137.55 552.104 2136.09 553.61 2135.01 555.591C2133.94 557.571 2133.4 559.973 2133.4 562.797ZM2192.29 593.138C2189.21 593.138 2186.42 592.558 2183.91 591.4C2181.41 590.22 2179.42 588.523 2177.94 586.311C2176.47 584.078 2175.73 581.381 2175.73 578.22C2175.73 575.439 2176.28 573.184 2177.37 571.457C2178.47 569.708 2179.93 568.338 2181.77 567.348C2183.6 566.358 2185.62 565.62 2187.83 565.136C2190.07 564.63 2192.31 564.23 2194.57 563.935C2197.52 563.555 2199.91 563.271 2201.74 563.081C2203.59 562.871 2204.94 562.523 2205.79 562.038C2206.65 561.554 2207.08 560.711 2207.08 559.51V559.257C2207.08 556.139 2206.23 553.716 2204.52 551.988C2202.84 550.26 2200.28 549.396 2196.84 549.396C2193.28 549.396 2190.49 550.176 2188.47 551.735C2186.44 553.294 2185.02 554.959 2184.2 556.729L2177.12 554.2C2178.38 551.25 2180.07 548.954 2182.18 547.31C2184.3 545.646 2186.62 544.487 2189.13 543.834C2191.66 543.16 2194.14 542.822 2196.59 542.822C2198.15 542.822 2199.94 543.012 2201.96 543.391C2204 543.75 2205.97 544.498 2207.87 545.635C2209.79 546.773 2211.38 548.49 2212.64 550.787C2213.91 553.084 2214.54 556.16 2214.54 560.016V592H2207.08V585.426H2206.7C2206.2 586.48 2205.35 587.607 2204.17 588.808C2202.99 590.009 2201.42 591.031 2199.46 591.874C2197.5 592.716 2195.11 593.138 2192.29 593.138ZM2193.43 586.438C2196.38 586.438 2198.86 585.858 2200.89 584.699C2202.93 583.54 2204.47 582.044 2205.5 580.211C2206.55 578.378 2207.08 576.45 2207.08 574.428V567.601C2206.77 567.98 2206.07 568.328 2205 568.644C2203.94 568.939 2202.72 569.202 2201.33 569.434C2199.96 569.645 2198.62 569.834 2197.32 570.003C2196.03 570.15 2194.99 570.277 2194.19 570.382C2192.25 570.635 2190.44 571.046 2188.75 571.615C2187.09 572.163 2185.74 572.995 2184.7 574.112C2183.69 575.207 2183.19 576.703 2183.19 578.599C2183.19 581.191 2184.15 583.151 2186.06 584.478C2188 585.784 2190.46 586.438 2193.43 586.438ZM2249.27 543.455V549.776H2224.11V543.455H2249.27ZM2231.44 531.824H2238.9V578.094C2238.9 580.201 2239.21 581.781 2239.82 582.835C2240.45 583.867 2241.25 584.562 2242.22 584.92C2243.21 585.258 2244.25 585.426 2245.35 585.426C2246.17 585.426 2246.84 585.384 2247.37 585.3C2247.9 585.194 2248.32 585.11 2248.63 585.047L2250.15 591.747C2249.65 591.937 2248.94 592.126 2248.03 592.316C2247.13 592.527 2245.98 592.632 2244.59 592.632C2242.48 592.632 2240.42 592.179 2238.39 591.273C2236.39 590.367 2234.73 588.987 2233.4 587.133C2232.09 585.279 2231.44 582.94 2231.44 580.116V531.824ZM2260.49 592V543.455H2267.94V592H2260.49ZM2264.28 535.364C2262.82 535.364 2261.57 534.868 2260.52 533.878C2259.49 532.888 2258.97 531.697 2258.97 530.307C2258.97 528.916 2259.49 527.726 2260.52 526.735C2261.57 525.745 2262.82 525.25 2264.28 525.25C2265.73 525.25 2266.98 525.745 2268.01 526.735C2269.06 527.726 2269.59 528.916 2269.59 530.307C2269.59 531.697 2269.06 532.888 2268.01 533.878C2266.98 534.868 2265.73 535.364 2264.28 535.364ZM2321.3 543.455L2303.35 592H2295.77L2277.81 543.455H2285.9L2299.3 582.139H2299.81L2313.21 543.455H2321.3ZM2349.76 593.011C2345.08 593.011 2341.05 591.979 2337.66 589.914C2334.29 587.828 2331.68 584.92 2329.85 581.191C2328.04 577.441 2327.13 573.079 2327.13 568.107C2327.13 563.134 2328.04 558.751 2329.85 554.959C2331.68 551.145 2334.23 548.174 2337.5 546.046C2340.79 543.897 2344.62 542.822 2349 542.822C2351.53 542.822 2354.03 543.244 2356.49 544.087C2358.96 544.929 2361.2 546.299 2363.23 548.195C2365.25 550.071 2366.86 552.557 2368.06 555.654C2369.26 558.751 2369.86 562.565 2369.86 567.095V570.256H2332.44V563.808H2362.28C2362.28 561.069 2361.73 558.625 2360.63 556.476C2359.56 554.327 2358.02 552.631 2356.02 551.387C2354.04 550.144 2351.7 549.523 2349 549.523C2346.03 549.523 2343.46 550.26 2341.29 551.735C2339.14 553.189 2337.49 555.085 2336.33 557.424C2335.17 559.763 2334.59 562.27 2334.59 564.946V569.244C2334.59 572.911 2335.22 576.018 2336.49 578.568C2337.77 581.096 2339.55 583.024 2341.83 584.352C2344.11 585.658 2346.75 586.311 2349.76 586.311C2351.72 586.311 2353.49 586.037 2355.07 585.489C2356.67 584.92 2358.05 584.078 2359.21 582.961C2360.37 581.823 2361.27 580.411 2361.9 578.726L2369.1 580.749C2368.35 583.193 2367.07 585.342 2365.28 587.196C2363.49 589.029 2361.28 590.462 2358.64 591.494C2356.01 592.506 2353.05 593.011 2349.76 593.011ZM2415.6 554.327L2408.9 556.223C2408.47 555.106 2407.85 554.021 2407.03 552.968C2406.23 551.893 2405.13 551.008 2403.74 550.313C2402.35 549.618 2400.57 549.27 2398.4 549.27C2395.43 549.27 2392.96 549.955 2390.98 551.324C2389.02 552.673 2388.04 554.39 2388.04 556.476C2388.04 558.33 2388.71 559.794 2390.06 560.869C2391.41 561.944 2393.51 562.839 2396.38 563.555L2403.59 565.325C2407.93 566.379 2411.16 567.991 2413.29 570.161C2415.42 572.31 2416.48 575.081 2416.48 578.473C2416.48 581.254 2415.68 583.741 2414.08 585.932C2412.5 588.123 2410.29 589.851 2407.44 591.115C2404.6 592.379 2401.29 593.011 2397.52 593.011C2392.57 593.011 2388.47 591.937 2385.22 589.788C2381.98 587.638 2379.92 584.499 2379.06 580.369L2386.14 578.599C2386.81 581.212 2388.09 583.172 2389.96 584.478C2391.86 585.784 2394.34 586.438 2397.39 586.438C2400.87 586.438 2403.63 585.7 2405.67 584.225C2407.74 582.729 2408.77 580.938 2408.77 578.852C2408.77 577.167 2408.18 575.755 2407 574.617C2405.82 573.458 2404.01 572.594 2401.56 572.026L2393.47 570.129C2389.03 569.076 2385.76 567.443 2383.67 565.23C2381.61 562.997 2380.58 560.205 2380.58 556.855C2380.58 554.116 2381.35 551.693 2382.88 549.586C2384.44 547.479 2386.56 545.825 2389.24 544.624C2391.93 543.423 2394.99 542.822 2398.4 542.822C2403.21 542.822 2406.98 543.876 2409.72 545.983C2412.48 548.09 2414.44 550.871 2415.6 554.327Z" fill="#6B6B6B"/>
<path d="M2596.46 304.726C2593.41 304.726 2590.68 304.121 2588.24 302.911C2585.8 301.701 2583.85 300.042 2582.38 297.934C2580.91 295.826 2580.11 293.423 2579.97 290.727H2586.19C2586.43 293.129 2587.52 295.117 2589.46 296.69C2591.41 298.245 2593.74 299.023 2596.46 299.023C2598.63 299.023 2600.57 298.513 2602.26 297.493C2603.97 296.474 2605.31 295.074 2606.28 293.294C2607.27 291.496 2607.76 289.466 2607.76 287.202C2607.76 284.886 2607.25 282.821 2606.23 281.006C2605.23 279.174 2603.84 277.731 2602.08 276.677C2600.32 275.623 2598.31 275.087 2596.04 275.07C2594.42 275.052 2592.75 275.303 2591.04 275.821C2589.33 276.323 2587.92 276.971 2586.81 277.766L2580.8 277.04L2584.01 250.909H2611.6V256.612H2589.41L2587.54 272.27H2587.85C2588.94 271.406 2590.3 270.689 2591.95 270.118C2593.59 269.548 2595.3 269.263 2597.08 269.263C2600.33 269.263 2603.22 270.04 2605.76 271.596C2608.32 273.134 2610.33 275.242 2611.78 277.921C2613.25 280.6 2613.98 283.659 2613.98 287.098C2613.98 290.485 2613.22 293.51 2611.7 296.171C2610.2 298.815 2608.12 300.906 2605.48 302.445C2602.83 303.965 2599.83 304.726 2596.46 304.726ZM2644.91 304V264.182H2650.82V270.403H2651.34C2652.17 268.278 2653.51 266.627 2655.36 265.452C2657.21 264.26 2659.43 263.663 2662.02 263.663C2664.65 263.663 2666.84 264.26 2668.58 265.452C2670.34 266.627 2671.72 268.278 2672.7 270.403H2673.12C2674.14 268.347 2675.67 266.714 2677.71 265.504C2679.75 264.277 2682.19 263.663 2685.04 263.663C2688.6 263.663 2691.51 264.778 2693.78 267.007C2696.04 269.22 2697.17 272.667 2697.17 277.351V304H2691.06V277.351C2691.06 274.413 2690.25 272.313 2688.65 271.051C2687.04 269.79 2685.15 269.159 2682.97 269.159C2680.17 269.159 2678 270.006 2676.46 271.7C2674.92 273.376 2674.15 275.502 2674.15 278.077V304H2667.93V276.729C2667.93 274.465 2667.2 272.641 2665.73 271.259C2664.26 269.859 2662.37 269.159 2660.05 269.159C2658.46 269.159 2656.98 269.583 2655.59 270.429C2654.23 271.276 2653.12 272.451 2652.28 273.955C2651.45 275.441 2651.03 277.161 2651.03 279.114V304H2644.91ZM2708.36 304V264.182H2714.48V304H2708.36ZM2711.47 257.545C2710.28 257.545 2709.25 257.139 2708.39 256.327C2707.54 255.515 2707.12 254.538 2707.12 253.398C2707.12 252.257 2707.54 251.281 2708.39 250.468C2709.25 249.656 2710.28 249.25 2711.47 249.25C2712.66 249.25 2713.68 249.656 2714.53 250.468C2715.39 251.281 2715.83 252.257 2715.83 253.398C2715.83 254.538 2715.39 255.515 2714.53 256.327C2713.68 257.139 2712.66 257.545 2711.47 257.545ZM2731.8 280.047V304H2725.68V264.182H2731.59V270.403H2732.11C2733.05 268.381 2734.46 266.757 2736.36 265.53C2738.27 264.286 2740.72 263.663 2743.73 263.663C2746.42 263.663 2748.78 264.216 2750.8 265.322C2752.83 266.411 2754.4 268.07 2755.52 270.3C2756.64 272.512 2757.21 275.312 2757.21 278.699V304H2751.09V279.114C2751.09 275.986 2750.28 273.549 2748.65 271.803C2747.03 270.04 2744.8 269.159 2741.96 269.159C2740.01 269.159 2738.27 269.583 2736.73 270.429C2735.21 271.276 2734.01 272.512 2733.12 274.136C2732.24 275.761 2731.8 277.731 2731.8 280.047ZM2793.48 287.72V264.182H2799.6V304H2793.48V297.26H2793.07C2792.13 299.282 2790.68 301.002 2788.71 302.419C2786.74 303.819 2784.25 304.518 2781.24 304.518C2778.76 304.518 2776.54 303.974 2774.61 302.885C2772.67 301.779 2771.15 300.12 2770.05 297.908C2768.94 295.679 2768.39 292.87 2768.39 289.483V264.182H2774.5V289.068C2774.5 291.972 2775.32 294.287 2776.94 296.016C2778.58 297.744 2780.67 298.608 2783.21 298.608C2784.74 298.608 2786.28 298.219 2787.85 297.441C2789.44 296.664 2790.78 295.471 2791.85 293.864C2792.94 292.257 2793.48 290.209 2793.48 287.72ZM2828.12 264.182V269.366H2807.48V264.182H2828.12ZM2813.5 254.642H2819.62V292.594C2819.62 294.322 2819.87 295.618 2820.37 296.482C2820.89 297.329 2821.54 297.899 2822.34 298.193C2823.15 298.47 2824.01 298.608 2824.91 298.608C2825.58 298.608 2826.13 298.573 2826.56 298.504C2827 298.418 2827.34 298.349 2827.6 298.297L2828.85 303.793C2828.43 303.948 2827.85 304.104 2827.11 304.259C2826.37 304.432 2825.42 304.518 2824.28 304.518C2822.55 304.518 2820.86 304.147 2819.2 303.404C2817.56 302.661 2816.2 301.529 2815.11 300.008C2814.03 298.487 2813.5 296.569 2813.5 294.253V254.642ZM2853.59 304.83C2849.75 304.83 2846.44 303.983 2843.66 302.289C2840.9 300.578 2838.76 298.193 2837.26 295.134C2835.77 292.058 2835.03 288.481 2835.03 284.402C2835.03 280.323 2835.77 276.729 2837.26 273.618C2838.76 270.49 2840.85 268.053 2843.53 266.308C2846.23 264.545 2849.37 263.663 2852.97 263.663C2855.04 263.663 2857.09 264.009 2859.11 264.7C2861.13 265.392 2862.97 266.515 2864.63 268.07C2866.29 269.608 2867.61 271.648 2868.6 274.188C2869.58 276.729 2870.08 279.857 2870.08 283.572V286.165H2839.38V280.876H2863.86C2863.86 278.63 2863.41 276.625 2862.51 274.862C2861.63 273.099 2860.36 271.708 2858.72 270.689C2857.1 269.669 2855.18 269.159 2852.97 269.159C2850.53 269.159 2848.42 269.764 2846.64 270.974C2844.88 272.166 2843.52 273.722 2842.57 275.64C2841.62 277.558 2841.15 279.615 2841.15 281.81V285.335C2841.15 288.342 2841.66 290.891 2842.7 292.983C2843.76 295.056 2845.22 296.638 2847.08 297.727C2848.95 298.798 2851.12 299.334 2853.59 299.334C2855.2 299.334 2856.65 299.109 2857.94 298.66C2859.26 298.193 2860.39 297.502 2861.34 296.586C2862.29 295.653 2863.03 294.495 2863.54 293.112L2869.45 294.771C2868.83 296.776 2867.79 298.539 2866.32 300.06C2864.85 301.563 2863.03 302.738 2860.87 303.585C2858.71 304.415 2856.29 304.83 2853.59 304.83ZM2907.59 273.099L2902.09 274.655C2901.75 273.739 2901.24 272.849 2900.56 271.985C2899.91 271.103 2899.01 270.377 2897.87 269.807C2896.73 269.237 2895.27 268.952 2893.49 268.952C2891.05 268.952 2889.02 269.513 2887.39 270.637C2885.79 271.743 2884.98 273.151 2884.98 274.862C2884.98 276.383 2885.54 277.584 2886.64 278.466C2887.75 279.347 2889.48 280.081 2891.83 280.669L2897.74 282.121C2901.3 282.985 2903.95 284.307 2905.7 286.087C2907.44 287.85 2908.31 290.122 2908.31 292.905C2908.31 295.186 2907.66 297.225 2906.34 299.023C2905.05 300.82 2903.23 302.237 2900.9 303.274C2898.57 304.311 2895.85 304.83 2892.76 304.83C2888.7 304.83 2885.34 303.948 2882.68 302.185C2880.01 300.423 2878.33 297.848 2877.62 294.46L2883.43 293.009C2883.98 295.152 2885.03 296.759 2886.56 297.83C2888.12 298.902 2890.15 299.438 2892.66 299.438C2895.51 299.438 2897.77 298.833 2899.45 297.623C2901.14 296.396 2901.99 294.927 2901.99 293.216C2901.99 291.833 2901.5 290.675 2900.54 289.742C2899.57 288.792 2898.08 288.083 2896.08 287.616L2889.44 286.061C2885.79 285.197 2883.12 283.858 2881.41 282.043C2879.71 280.211 2878.86 277.921 2878.86 275.173C2878.86 272.927 2879.5 270.939 2880.76 269.211C2882.04 267.483 2883.77 266.126 2885.97 265.141C2888.18 264.156 2890.69 263.663 2893.49 263.663C2897.43 263.663 2900.52 264.527 2902.77 266.256C2905.03 267.984 2906.64 270.265 2907.59 273.099ZM2949.77 304.933C2947.25 304.933 2944.96 304.458 2942.9 303.507C2940.85 302.54 2939.21 301.148 2938 299.334C2936.79 297.502 2936.19 295.29 2936.19 292.697C2936.19 290.416 2936.64 288.567 2937.54 287.15C2938.43 285.715 2939.64 284.592 2941.14 283.78C2942.64 282.968 2944.3 282.363 2946.12 281.965C2947.95 281.55 2949.79 281.222 2951.64 280.98C2954.06 280.669 2956.02 280.436 2957.52 280.28C2959.04 280.107 2960.15 279.822 2960.84 279.425C2961.55 279.027 2961.9 278.336 2961.9 277.351V277.143C2961.9 274.586 2961.2 272.598 2959.8 271.181C2958.42 269.764 2956.32 269.055 2953.5 269.055C2950.58 269.055 2948.29 269.695 2946.63 270.974C2944.98 272.253 2943.81 273.618 2943.13 275.07L2937.33 272.996C2938.37 270.576 2939.75 268.692 2941.48 267.344C2943.22 265.979 2945.12 265.029 2947.18 264.493C2949.25 263.94 2951.29 263.663 2953.3 263.663C2954.58 263.663 2956.04 263.819 2957.7 264.13C2959.38 264.424 2961 265.037 2962.55 265.971C2964.12 266.904 2965.43 268.312 2966.47 270.196C2967.5 272.08 2968.02 274.603 2968.02 277.766V304H2961.9V298.608H2961.59C2961.18 299.472 2960.49 300.397 2959.52 301.382C2958.55 302.367 2957.26 303.205 2955.66 303.896C2954.05 304.588 2952.09 304.933 2949.77 304.933ZM2950.7 299.438C2953.12 299.438 2955.16 298.962 2956.82 298.012C2958.5 297.061 2959.76 295.834 2960.61 294.331C2961.47 292.827 2961.9 291.246 2961.9 289.587V283.987C2961.64 284.298 2961.07 284.583 2960.19 284.843C2959.33 285.085 2958.33 285.301 2957.19 285.491C2956.06 285.664 2954.96 285.819 2953.89 285.957C2952.84 286.078 2951.98 286.182 2951.33 286.268C2949.74 286.476 2948.25 286.813 2946.87 287.279C2945.5 287.729 2944.4 288.411 2943.55 289.327C2942.72 290.226 2942.31 291.453 2942.31 293.009C2942.31 295.134 2943.09 296.741 2944.66 297.83C2946.25 298.902 2948.27 299.438 2950.7 299.438ZM2995.26 319.761C2992.3 319.761 2989.76 319.381 2987.64 318.621C2985.51 317.878 2983.74 316.893 2982.32 315.665C2980.92 314.456 2979.81 313.16 2978.98 311.777L2983.85 308.355C2984.41 309.081 2985.11 309.911 2985.95 310.844C2986.8 311.794 2987.96 312.615 2989.43 313.306C2990.91 314.015 2992.86 314.369 2995.26 314.369C2998.47 314.369 3001.13 313.592 3003.22 312.036C3005.31 310.481 3006.36 308.044 3006.36 304.726V296.638H3005.84C3005.39 297.364 3004.75 298.262 3003.92 299.334C3003.11 300.388 3001.93 301.33 3000.39 302.159C2998.87 302.972 2996.82 303.378 2994.22 303.378C2991.01 303.378 2988.12 302.617 2985.56 301.097C2983.02 299.576 2981.01 297.364 2979.52 294.46C2978.06 291.557 2977.32 288.031 2977.32 283.884C2977.32 279.805 2978.04 276.253 2979.47 273.229C2980.91 270.187 2982.9 267.837 2985.46 266.178C2988.02 264.502 2990.97 263.663 2994.33 263.663C2996.92 263.663 2998.98 264.095 3000.5 264.96C3002.03 265.806 3003.21 266.774 3004.02 267.863C3004.85 268.934 3005.49 269.816 3005.94 270.507H3006.56V264.182H3012.47V305.141C3012.47 308.562 3011.7 311.345 3010.14 313.488C3008.6 315.648 3006.53 317.23 3003.92 318.232C3001.33 319.252 2998.44 319.761 2995.26 319.761ZM2995.05 297.882C2997.51 297.882 2999.58 297.32 3001.27 296.197C3002.97 295.074 3004.26 293.458 3005.14 291.349C3006.02 289.241 3006.46 286.718 3006.46 283.78C3006.46 280.911 3006.03 278.379 3005.16 276.184C3004.3 273.989 3003.02 272.27 3001.33 271.026C2999.63 269.781 2997.54 269.159 2995.05 269.159C2992.46 269.159 2990.3 269.816 2988.57 271.129C2986.86 272.443 2985.57 274.205 2984.71 276.418C2983.86 278.63 2983.44 281.084 2983.44 283.78C2983.44 286.545 2983.87 288.99 2984.74 291.116C2985.62 293.225 2986.91 294.884 2988.62 296.093C2990.35 297.286 2992.5 297.882 2995.05 297.882ZM3039.85 304.83C3036.25 304.83 3033.1 303.974 3030.39 302.263C3027.69 300.552 3025.58 298.159 3024.06 295.082C3022.56 292.006 3021.81 288.411 3021.81 284.298C3021.81 280.151 3022.56 276.53 3024.06 273.436C3025.58 270.343 3027.69 267.941 3030.39 266.23C3033.1 264.519 3036.25 263.663 3039.85 263.663C3043.44 263.663 3046.59 264.519 3049.28 266.23C3052 267.941 3054.11 270.343 3055.61 273.436C3057.13 276.53 3057.89 280.151 3057.89 284.298C3057.89 288.411 3057.13 292.006 3055.61 295.082C3054.11 298.159 3052 300.552 3049.28 302.263C3046.59 303.974 3043.44 304.83 3039.85 304.83ZM3039.85 299.334C3042.58 299.334 3044.83 298.634 3046.59 297.234C3048.35 295.834 3049.66 293.994 3050.5 291.712C3051.35 289.431 3051.77 286.96 3051.77 284.298C3051.77 281.637 3051.35 279.157 3050.5 276.858C3049.66 274.56 3048.35 272.702 3046.59 271.285C3044.83 269.868 3042.58 269.159 3039.85 269.159C3037.12 269.159 3034.87 269.868 3033.11 271.285C3031.35 272.702 3030.04 274.56 3029.19 276.858C3028.35 279.157 3027.92 281.637 3027.92 284.298C3027.92 286.96 3028.35 289.431 3029.19 291.712C3030.04 293.994 3031.35 295.834 3033.11 297.234C3034.87 298.634 3037.12 299.334 3039.85 299.334Z" fill="#919191"/>
<path d="M759.828 315V240.091H780.165V269.352H807.085V240.091H827.422V315H807.085V285.739H780.165V315H759.828ZM835.03 256.477V240.091H900.136V256.477H877.605V315H857.561V256.477H835.03ZM948.171 263.5C947.976 261.062 947.061 259.16 945.427 257.794C943.818 256.429 941.367 255.746 938.076 255.746C935.978 255.746 934.259 256.002 932.918 256.514C931.601 257.002 930.626 257.672 929.992 258.526C929.358 259.379 929.029 260.354 929.005 261.452C928.956 262.354 929.114 263.171 929.48 263.902C929.87 264.609 930.48 265.256 931.309 265.841C932.138 266.402 933.199 266.914 934.491 267.377C935.783 267.84 937.32 268.255 939.1 268.621L945.245 269.938C949.39 270.815 952.938 271.974 955.888 273.412C958.839 274.851 961.253 276.546 963.131 278.496C965.008 280.423 966.386 282.593 967.264 285.007C968.166 287.421 968.629 290.055 968.654 292.908C968.629 297.833 967.398 302.003 964.959 305.417C962.521 308.831 959.034 311.428 954.498 313.208C949.987 314.988 944.562 315.878 938.222 315.878C931.711 315.878 926.03 314.915 921.177 312.988C916.349 311.062 912.594 308.099 909.911 304.1C907.254 300.077 905.912 294.932 905.888 288.665H925.201C925.322 290.957 925.896 292.883 926.92 294.444C927.944 296.004 929.382 297.187 931.236 297.992C933.113 298.797 935.344 299.199 937.929 299.199C940.099 299.199 941.916 298.931 943.379 298.394C944.842 297.858 945.952 297.114 946.708 296.163C947.464 295.212 947.854 294.127 947.878 292.908C947.854 291.762 947.476 290.762 946.744 289.908C946.037 289.031 944.867 288.25 943.233 287.567C941.599 286.86 939.392 286.202 936.612 285.592L929.151 283.983C922.518 282.544 917.288 280.142 913.459 276.777C909.655 273.388 907.766 268.767 907.79 262.915C907.766 258.16 909.034 254.002 911.594 250.442C914.179 246.858 917.751 244.066 922.311 242.066C926.895 240.067 932.15 239.067 938.076 239.067C944.123 239.067 949.353 240.079 953.767 242.103C958.181 244.127 961.582 246.98 963.972 250.662C966.386 254.319 967.605 258.599 967.63 263.5H948.171ZM996.909 315V240.091H1017.25V269.352H1044.17V240.091H1064.5V315H1044.17V285.739H1017.25V315H996.909ZM1101.37 316.024C1095.37 316.024 1090.2 314.878 1085.86 312.586C1081.55 310.269 1078.22 306.953 1075.88 302.637C1073.56 298.297 1072.4 293.103 1072.4 287.055C1072.4 281.252 1073.57 276.18 1075.91 271.839C1078.26 267.499 1081.56 264.122 1085.83 261.708C1090.09 259.294 1095.13 258.087 1100.93 258.087C1105.18 258.087 1109.02 258.745 1112.45 260.062C1115.89 261.379 1118.83 263.293 1121.27 265.804C1123.71 268.292 1125.59 271.315 1126.9 274.875C1128.22 278.435 1128.88 282.447 1128.88 286.909V291.591H1078.69V280.472H1110.3C1110.27 278.862 1109.86 277.448 1109.05 276.229C1108.27 274.985 1107.21 274.022 1105.87 273.339C1104.55 272.632 1103.05 272.278 1101.37 272.278C1099.74 272.278 1098.24 272.632 1096.87 273.339C1095.51 274.022 1094.41 274.973 1093.58 276.192C1092.78 277.411 1092.35 278.838 1092.3 280.472V292.469C1092.3 294.273 1092.68 295.883 1093.44 297.297C1094.19 298.711 1095.28 299.821 1096.69 300.625C1098.1 301.43 1099.81 301.832 1101.81 301.832C1103.2 301.832 1104.47 301.637 1105.62 301.247C1106.79 300.857 1107.79 300.296 1108.61 299.565C1109.44 298.809 1110.05 297.906 1110.44 296.858H1128.88C1128.24 300.759 1126.74 304.149 1124.38 307.026C1122.01 309.879 1118.88 312.098 1114.98 313.683C1111.1 315.244 1106.57 316.024 1101.37 316.024ZM1137.12 315V258.818H1156.72V269.499H1157.31C1158.33 265.548 1159.95 262.659 1162.17 260.83C1164.42 259.001 1167.04 258.087 1170.04 258.087C1170.91 258.087 1171.78 258.16 1172.63 258.306C1173.51 258.428 1174.35 258.611 1175.16 258.855V276.082C1174.16 275.741 1172.93 275.485 1171.46 275.314C1170 275.144 1168.74 275.058 1167.69 275.058C1165.72 275.058 1163.94 275.509 1162.35 276.412C1160.79 277.289 1159.56 278.533 1158.66 280.142C1157.76 281.727 1157.31 283.593 1157.31 285.739V315H1137.12ZM1205.62 316.024C1199.53 316.024 1194.31 314.817 1189.97 312.403C1185.63 309.965 1182.3 306.575 1179.98 302.235C1177.67 297.87 1176.51 292.81 1176.51 287.055C1176.51 281.301 1177.67 276.253 1179.98 271.913C1182.3 267.548 1185.63 264.158 1189.97 261.744C1194.31 259.306 1199.53 258.087 1205.62 258.087C1211.72 258.087 1216.94 259.306 1221.28 261.744C1225.62 264.158 1228.95 267.548 1231.27 271.913C1233.58 276.253 1234.74 281.301 1234.74 287.055C1234.74 292.81 1233.58 297.87 1231.27 302.235C1228.95 306.575 1225.62 309.965 1221.28 312.403C1216.94 314.817 1211.72 316.024 1205.62 316.024ZM1205.77 301.101C1207.48 301.101 1208.95 300.528 1210.2 299.382C1211.44 298.236 1212.4 296.602 1213.09 294.48C1213.77 292.359 1214.11 289.835 1214.11 286.909C1214.11 283.959 1213.77 281.435 1213.09 279.338C1212.4 277.216 1211.44 275.583 1210.2 274.436C1208.95 273.29 1207.48 272.717 1205.77 272.717C1203.97 272.717 1202.42 273.29 1201.13 274.436C1199.83 275.583 1198.85 277.216 1198.16 279.338C1197.48 281.435 1197.14 283.959 1197.14 286.909C1197.14 289.835 1197.48 292.359 1198.16 294.48C1198.85 296.602 1199.83 298.236 1201.13 299.382C1202.42 300.528 1203.97 301.101 1205.77 301.101Z" fill="#D6D6D6"/>
<rect x="227" y="215" width="400" height="400" rx="56" fill="#617BFF"/>
<rect x="275.165" y="321" width="303" height="186" rx="34" fill="#D9D9D9"/>
<path d="M589.524 516L430.414 397.5L265.001 516" stroke="#617BFF" stroke-width="6" stroke-linecap="round"/>
<rect x="403.107" y="390" width="56.7128" height="28" fill="#D9D9D9"/>
<path d="M266.576 314L411.386 422.368C422.932 431.008 438.83 430.858 450.211 422.002L588.999 314" stroke="#617BFF" stroke-width="6" stroke-linecap="round"/>
<defs>
<filter id="filter0_d_746_738" x="0" y="0" width="3286" height="838" filterUnits="userSpaceOnUse" color-interpolation-filters="sRGB">
<feFlood flood-opacity="0" result="BackgroundImageFix"/>
<feColorMatrix in="SourceAlpha" type="matrix" values="0 0 0 0 0 0 0 0 0 0 0 0 0 0 0 0 0 0 127 0" result="hardAlpha"/>
<feMorphology radius="42" operator="dilate" in="SourceAlpha" result="effect1_dropShadow_746_738"/>
<feOffset dy="4"/>
<feGaussianBlur stdDeviation="34"/>
<feComposite in2="hardAlpha" operator="out"/>
<feColorMatrix type="matrix" values="0 0 0 0 0.37863 0 0 0 0 0.482191 0 0 0 0 1 0 0 0 1 0"/>
<feBlend mode="normal" in2="BackgroundImageFix" result="effect1_dropShadow_746_738"/>
<feBlend mode="normal" in="SourceGraphic" in2="effect1_dropShadow_746_738" result="shape"/>
</filter>
</defs>
</svg>
