<svg width="2804" height="772" viewBox="0 0 2804 772" fill="none" xmlns="http://www.w3.org/2000/svg">
<g filter="url(#filter0_d_771_736)">
<rect x="77" y="77" width="2650" height="618" rx="150" fill="#202020"/>
</g>
<path d="M791.469 371.091V446H777.79L745.2 398.853H744.651V446H728.813V371.091H742.713L775.046 418.202H775.705V371.091H791.469ZM829.866 447.097C824.087 447.097 819.112 445.927 814.942 443.586C810.797 441.221 807.603 437.88 805.359 433.564C803.116 429.223 801.994 424.091 801.994 418.165C801.994 412.386 803.116 407.314 805.359 402.949C807.603 398.584 810.76 395.183 814.833 392.744C818.929 390.306 823.733 389.087 829.244 389.087C832.95 389.087 836.401 389.684 839.595 390.879C842.814 392.049 845.618 393.817 848.008 396.183C850.422 398.548 852.299 401.523 853.641 405.107C854.982 408.667 855.652 412.837 855.652 417.616V421.896H808.212V412.24H840.985C840.985 409.996 840.497 408.009 839.522 406.278C838.547 404.546 837.193 403.193 835.462 402.218C833.755 401.218 831.768 400.718 829.5 400.718C827.135 400.718 825.038 401.267 823.209 402.364C821.404 403.437 819.99 404.888 818.966 406.717C817.942 408.521 817.417 410.533 817.393 412.752V421.933C817.393 424.712 817.905 427.114 818.929 429.138C819.978 431.162 821.453 432.723 823.355 433.82C825.257 434.917 827.513 435.466 830.122 435.466C831.853 435.466 833.438 435.222 834.877 434.734C836.315 434.247 837.547 433.515 838.571 432.54C839.595 431.564 840.375 430.37 840.912 428.955L855.323 429.906C854.592 433.369 853.092 436.393 850.824 438.977C848.581 441.538 845.679 443.537 842.119 444.976C838.583 446.39 834.499 447.097 829.866 447.097ZM876.501 446L861.212 389.818H876.976L885.682 427.565H886.194L895.265 389.818H910.737L919.954 427.346H920.43L928.989 389.818H944.717L929.464 446H912.968L903.312 410.667H902.617L892.96 446H876.501ZM974.307 384.149V371.091H1035.83V384.149H1012.9V446H997.241V384.149H974.307ZM1054.04 447.061C1050.46 447.061 1047.27 446.439 1044.46 445.195C1041.66 443.927 1039.44 442.062 1037.8 439.599C1036.19 437.112 1035.39 434.015 1035.39 430.309C1035.39 427.187 1035.96 424.566 1037.11 422.445C1038.26 420.323 1039.82 418.616 1041.79 417.324C1043.77 416.031 1046.01 415.056 1048.52 414.398C1051.06 413.739 1053.72 413.276 1056.49 413.008C1059.76 412.666 1062.4 412.349 1064.4 412.057C1066.4 411.74 1067.85 411.277 1068.75 410.667C1069.65 410.057 1070.1 409.155 1070.1 407.96V407.741C1070.1 405.424 1069.37 403.632 1067.91 402.364C1066.47 401.096 1064.42 400.462 1061.76 400.462C1058.96 400.462 1056.73 401.084 1055.07 402.327C1053.41 403.547 1052.31 405.083 1051.78 406.936L1037.37 405.766C1038.1 402.352 1039.54 399.401 1041.68 396.914C1043.83 394.402 1046.59 392.476 1049.98 391.135C1053.4 389.769 1057.35 389.087 1061.84 389.087C1064.96 389.087 1067.94 389.452 1070.8 390.184C1073.67 390.915 1076.22 392.049 1078.44 393.586C1080.68 395.122 1082.45 397.097 1083.74 399.511C1085.04 401.901 1085.68 404.766 1085.68 408.107V446H1070.91V438.209H1070.47C1069.57 439.965 1068.36 441.513 1066.85 442.854C1065.33 444.171 1063.52 445.208 1061.4 445.963C1059.27 446.695 1056.82 447.061 1054.04 447.061ZM1058.51 436.307C1060.8 436.307 1062.82 435.856 1064.58 434.954C1066.33 434.027 1067.71 432.784 1068.71 431.223C1069.71 429.662 1070.21 427.895 1070.21 425.919V419.957C1069.72 420.274 1069.05 420.567 1068.2 420.835C1067.37 421.079 1066.43 421.311 1065.38 421.53C1064.33 421.725 1063.29 421.908 1062.24 422.079C1061.19 422.225 1060.24 422.359 1059.38 422.481C1057.56 422.749 1055.96 423.176 1054.59 423.761C1053.23 424.347 1052.17 425.139 1051.41 426.139C1050.65 427.114 1050.28 428.333 1050.28 429.797C1050.28 431.918 1051.05 433.54 1052.58 434.661C1054.14 435.759 1056.12 436.307 1058.51 436.307ZM1097.77 446V389.818H1112.88V399.621H1113.46C1114.49 396.134 1116.21 393.5 1118.62 391.72C1121.03 389.916 1123.81 389.013 1126.96 389.013C1127.74 389.013 1128.58 389.062 1129.48 389.16C1130.39 389.257 1131.18 389.391 1131.86 389.562V403.388C1131.13 403.169 1130.12 402.974 1128.83 402.803C1127.53 402.632 1126.35 402.547 1125.28 402.547C1122.99 402.547 1120.94 403.047 1119.13 404.047C1117.35 405.022 1115.94 406.387 1114.89 408.143C1113.87 409.899 1113.35 411.923 1113.35 414.215V446H1097.77ZM1139.92 446V389.818H1155.5V446H1139.92ZM1147.74 382.576C1145.43 382.576 1143.44 381.808 1141.78 380.272C1140.15 378.711 1139.33 376.846 1139.33 374.675C1139.33 372.53 1140.15 370.689 1141.78 369.152C1143.44 367.592 1145.43 366.811 1147.74 366.811C1150.06 366.811 1152.04 367.592 1153.67 369.152C1155.33 370.689 1156.16 372.53 1156.16 374.675C1156.16 376.846 1155.33 378.711 1153.67 380.272C1152.04 381.808 1150.06 382.576 1147.74 382.576ZM1198.19 389.818V401.523H1163.52V389.818H1198.19ZM1171.46 446V385.758C1171.46 381.686 1172.25 378.309 1173.83 375.626C1175.44 372.944 1177.64 370.932 1180.42 369.591C1183.2 368.25 1186.35 367.58 1189.89 367.58C1192.28 367.58 1194.46 367.762 1196.44 368.128C1198.44 368.494 1199.92 368.823 1200.9 369.116L1198.12 380.82C1197.51 380.625 1196.75 380.442 1195.85 380.272C1194.97 380.101 1194.07 380.016 1193.15 380.016C1190.85 380.016 1189.26 380.552 1188.35 381.625C1187.45 382.674 1187 384.149 1187 386.051V446H1171.46ZM1237.92 389.818V401.523H1203.25V389.818H1237.92ZM1211.19 446V385.758C1211.19 381.686 1211.98 378.309 1213.56 375.626C1215.17 372.944 1217.37 370.932 1220.15 369.591C1222.93 368.25 1226.09 367.58 1229.62 367.58C1232.01 367.58 1234.19 367.762 1236.17 368.128C1238.17 368.494 1239.66 368.823 1240.63 369.116L1237.85 380.82C1237.24 380.625 1236.49 380.442 1235.58 380.272C1234.71 380.101 1233.8 380.016 1232.88 380.016C1230.58 380.016 1228.99 380.552 1228.09 381.625C1227.18 382.674 1226.73 384.149 1226.73 386.051V446H1211.19ZM1292.38 405.839L1278.11 406.717C1277.87 405.497 1277.35 404.4 1276.54 403.425C1275.74 402.425 1274.67 401.632 1273.36 401.047C1272.07 400.438 1270.52 400.133 1268.71 400.133C1266.3 400.133 1264.26 400.645 1262.6 401.669C1260.95 402.669 1260.12 404.01 1260.12 405.692C1260.12 407.034 1260.65 408.167 1261.73 409.094C1262.8 410.021 1264.64 410.764 1267.25 411.325L1277.42 413.374C1282.88 414.495 1286.95 416.3 1289.63 418.787C1292.32 421.274 1293.66 424.542 1293.66 428.589C1293.66 432.272 1292.57 435.502 1290.4 438.282C1288.26 441.062 1285.31 443.232 1281.55 444.793C1277.82 446.329 1273.52 447.097 1268.64 447.097C1261.2 447.097 1255.28 445.549 1250.86 442.452C1246.47 439.331 1243.9 435.088 1243.15 429.723L1258.47 428.919C1258.93 431.186 1260.06 432.918 1261.84 434.113C1263.62 435.283 1265.9 435.868 1268.68 435.868C1271.41 435.868 1273.6 435.344 1275.26 434.295C1276.94 433.223 1277.8 431.845 1277.82 430.162C1277.8 428.748 1277.2 427.59 1276.03 426.688C1274.86 425.761 1273.05 425.054 1270.61 424.566L1260.89 422.627C1255.4 421.53 1251.31 419.628 1248.63 416.922C1245.97 414.215 1244.65 410.764 1244.65 406.57C1244.65 402.961 1245.62 399.852 1247.57 397.243C1249.55 394.634 1252.31 392.622 1255.87 391.208C1259.46 389.794 1263.65 389.087 1268.46 389.087C1275.55 389.087 1281.14 390.586 1285.21 393.586C1289.31 396.585 1291.7 400.669 1292.38 405.839ZM1340.51 446H1323.54L1349.4 371.091H1369.81L1395.63 446H1378.66L1359.9 388.209H1359.31L1340.51 446ZM1339.45 416.556H1379.54V428.919H1339.45V416.556ZM1433.56 389.818V401.523H1398.89V389.818H1433.56ZM1406.83 446V385.758C1406.83 381.686 1407.62 378.309 1409.2 375.626C1410.81 372.944 1413.01 370.932 1415.79 369.591C1418.57 368.25 1421.73 367.58 1425.26 367.58C1427.65 367.58 1429.83 367.762 1431.81 368.128C1433.81 368.494 1435.3 368.823 1436.27 369.116L1433.49 380.82C1432.88 380.625 1432.13 380.442 1431.22 380.272C1430.35 380.101 1429.44 380.016 1428.52 380.016C1426.22 380.016 1424.63 380.552 1423.73 381.625C1422.82 382.674 1422.37 384.149 1422.37 386.051V446H1406.83ZM1473.3 389.818V401.523H1438.62V389.818H1473.3ZM1446.56 446V385.758C1446.56 381.686 1447.35 378.309 1448.94 375.626C1450.54 372.944 1452.74 370.932 1455.52 369.591C1458.3 368.25 1461.46 367.58 1464.99 367.58C1467.38 367.58 1469.56 367.762 1471.54 368.128C1473.54 368.494 1475.03 368.823 1476 369.116L1473.22 380.82C1472.61 380.625 1471.86 380.442 1470.95 380.272C1470.08 380.101 1469.17 380.016 1468.25 380.016C1465.96 380.016 1464.36 380.552 1463.46 381.625C1462.55 382.674 1462.1 384.149 1462.1 386.051V446H1446.56ZM1506.41 447.097C1500.63 447.097 1495.65 445.927 1491.48 443.586C1487.34 441.221 1484.14 437.88 1481.9 433.564C1479.66 429.223 1478.54 424.091 1478.54 418.165C1478.54 412.386 1479.66 407.314 1481.9 402.949C1484.14 398.584 1487.3 395.183 1491.37 392.744C1495.47 390.306 1500.27 389.087 1505.78 389.087C1509.49 389.087 1512.94 389.684 1516.14 390.879C1519.35 392.049 1522.16 393.817 1524.55 396.183C1526.96 398.548 1528.84 401.523 1530.18 405.107C1531.52 408.667 1532.19 412.837 1532.19 417.616V421.896H1484.75V412.24H1517.53C1517.53 409.996 1517.04 408.009 1516.06 406.278C1515.09 404.546 1513.73 403.193 1512 402.218C1510.3 401.218 1508.31 400.718 1506.04 400.718C1503.68 400.718 1501.58 401.267 1499.75 402.364C1497.95 403.437 1496.53 404.888 1495.51 406.717C1494.48 408.521 1493.96 410.533 1493.93 412.752V421.933C1493.93 424.712 1494.45 427.114 1495.47 429.138C1496.52 431.162 1497.99 432.723 1499.9 433.82C1501.8 434.917 1504.05 435.466 1506.66 435.466C1508.39 435.466 1509.98 435.222 1511.42 434.734C1512.86 434.247 1514.09 433.515 1515.11 432.54C1516.14 431.564 1516.92 430.37 1517.45 428.955L1531.86 429.906C1531.13 433.369 1529.63 436.393 1527.37 438.977C1525.12 441.538 1522.22 443.537 1518.66 444.976C1515.12 446.39 1511.04 447.097 1506.41 447.097ZM1567.75 447.097C1561.99 447.097 1557.04 445.878 1552.9 443.44C1548.77 440.977 1545.6 437.563 1543.39 433.198C1541.19 428.833 1540.09 423.81 1540.09 418.129C1540.09 412.374 1541.2 407.326 1543.42 402.986C1545.67 398.621 1548.85 395.219 1552.97 392.781C1557.09 390.318 1561.99 389.087 1567.67 389.087C1572.57 389.087 1576.87 389.977 1580.55 391.757C1584.23 393.537 1587.14 396.036 1589.29 399.255C1591.44 402.474 1592.62 406.253 1592.84 410.594H1578.13C1577.72 407.79 1576.62 405.534 1574.84 403.827C1573.09 402.096 1570.78 401.23 1567.93 401.23C1565.51 401.23 1563.41 401.888 1561.6 403.205C1559.82 404.498 1558.43 406.387 1557.43 408.875C1556.43 411.362 1555.93 414.373 1555.93 417.909C1555.93 421.494 1556.42 424.542 1557.39 427.053C1558.39 429.565 1559.8 431.479 1561.6 432.796C1563.41 434.113 1565.51 434.771 1567.93 434.771C1569.71 434.771 1571.31 434.405 1572.72 433.674C1574.16 432.942 1575.34 431.881 1576.27 430.491C1577.22 429.077 1577.84 427.382 1578.13 425.407H1592.84C1592.59 429.699 1591.42 433.479 1589.33 436.746C1587.25 439.989 1584.39 442.525 1580.73 444.354C1577.07 446.183 1572.74 447.097 1567.75 447.097ZM1632.7 389.818V401.523H1598.86V389.818H1632.7ZM1606.54 376.358H1622.13V428.736C1622.13 430.174 1622.35 431.296 1622.78 432.101C1623.22 432.881 1623.83 433.43 1624.61 433.747C1625.42 434.064 1626.34 434.222 1627.39 434.222C1628.12 434.222 1628.86 434.161 1629.59 434.039C1630.32 433.893 1630.88 433.783 1631.27 433.71L1633.72 445.305C1632.94 445.549 1631.84 445.829 1630.43 446.146C1629.01 446.488 1627.3 446.695 1625.27 446.768C1621.52 446.914 1618.22 446.415 1615.4 445.268C1612.59 444.122 1610.41 442.342 1608.85 439.928C1607.29 437.514 1606.52 434.466 1606.54 430.784V376.358ZM1699.13 371.091V446H1683.29V386.124H1682.85L1665.7 396.877V382.832L1684.24 371.091H1699.13ZM1715.8 432.832V420.36L1747.07 371.091H1757.83V388.355H1751.46L1731.75 419.555V420.14H1776.19V432.832H1715.8ZM1751.75 446V429.028L1752.05 423.505V371.091H1766.9V446H1751.75ZM1836.11 447.097C1830.43 447.097 1825.51 445.89 1821.37 443.476C1817.25 441.038 1814.07 437.648 1811.82 433.308C1809.58 428.943 1808.46 423.883 1808.46 418.129C1808.46 412.325 1809.58 407.253 1811.82 402.913C1814.07 398.548 1817.25 395.158 1821.37 392.744C1825.51 390.306 1830.43 389.087 1836.11 389.087C1841.79 389.087 1846.69 390.306 1850.81 392.744C1854.96 395.158 1858.15 398.548 1860.4 402.913C1862.64 407.253 1863.76 412.325 1863.76 418.129C1863.76 423.883 1862.64 428.943 1860.4 433.308C1858.15 437.648 1854.96 441.038 1850.81 443.476C1846.69 445.89 1841.79 447.097 1836.11 447.097ZM1836.18 435.027C1838.77 435.027 1840.93 434.295 1842.66 432.832C1844.39 431.345 1845.69 429.321 1846.57 426.761C1847.47 424.2 1847.92 421.286 1847.92 418.019C1847.92 414.751 1847.47 411.837 1846.57 409.277C1845.69 406.717 1844.39 404.693 1842.66 403.205C1840.93 401.718 1838.77 400.974 1836.18 400.974C1833.57 400.974 1831.38 401.718 1829.6 403.205C1827.84 404.693 1826.51 406.717 1825.61 409.277C1824.73 411.837 1824.29 414.751 1824.29 418.019C1824.29 421.286 1824.73 424.2 1825.61 426.761C1826.51 429.321 1827.84 431.345 1829.6 432.832C1831.38 434.295 1833.57 435.027 1836.18 435.027ZM1904.11 389.818V401.523H1869.43V389.818H1904.11ZM1877.37 446V385.758C1877.37 381.686 1878.16 378.309 1879.75 375.626C1881.35 372.944 1883.55 370.932 1886.33 369.591C1889.11 368.25 1892.27 367.58 1895.8 367.58C1898.19 367.58 1900.37 367.762 1902.35 368.128C1904.35 368.494 1905.84 368.823 1906.81 369.116L1904.03 380.82C1903.42 380.625 1902.67 380.442 1901.76 380.272C1900.89 380.101 1899.98 380.016 1899.06 380.016C1896.77 380.016 1895.17 380.552 1894.27 381.625C1893.36 382.674 1892.91 384.149 1892.91 386.051V446H1877.37ZM1947.08 467.068C1945.11 467.068 1943.25 466.91 1941.52 466.593C1939.82 466.3 1938.4 465.922 1937.28 465.459L1940.79 453.827C1942.62 454.388 1944.27 454.693 1945.73 454.742C1947.22 454.791 1948.5 454.449 1949.57 453.718C1950.67 452.986 1951.56 451.743 1952.24 449.987L1953.15 447.609L1933 389.818H1949.39L1961.02 431.077H1961.6L1973.34 389.818H1989.84L1968 452.072C1966.96 455.095 1965.53 457.729 1963.73 459.972C1961.95 462.24 1959.69 463.984 1956.96 465.203C1954.23 466.446 1950.94 467.068 1947.08 467.068ZM2021.39 447.097C2015.71 447.097 2010.79 445.89 2006.65 443.476C2002.53 441.038 1999.34 437.648 1997.1 433.308C1994.86 428.943 1993.74 423.883 1993.74 418.129C1993.74 412.325 1994.86 407.253 1997.1 402.913C1999.34 398.548 2002.53 395.158 2006.65 392.744C2010.79 390.306 2015.71 389.087 2021.39 389.087C2027.07 389.087 2031.97 390.306 2036.09 392.744C2040.24 395.158 2043.43 398.548 2045.68 402.913C2047.92 407.253 2049.04 412.325 2049.04 418.129C2049.04 423.883 2047.92 428.943 2045.68 433.308C2043.43 437.648 2040.24 441.038 2036.09 443.476C2031.97 445.89 2027.07 447.097 2021.39 447.097ZM2021.46 435.027C2024.05 435.027 2026.2 434.295 2027.94 432.832C2029.67 431.345 2030.97 429.321 2031.85 426.761C2032.75 424.2 2033.2 421.286 2033.2 418.019C2033.2 414.751 2032.75 411.837 2031.85 409.277C2030.97 406.717 2029.67 404.693 2027.94 403.205C2026.2 401.718 2024.05 400.974 2021.46 400.974C2018.85 400.974 2016.66 401.718 2014.88 403.205C2013.12 404.693 2011.79 406.717 2010.89 409.277C2010.01 411.837 2009.57 414.751 2009.57 418.019C2009.57 421.286 2010.01 424.2 2010.89 426.761C2011.79 429.321 2013.12 431.345 2014.88 432.832C2016.66 434.295 2018.85 435.027 2021.46 435.027ZM2095.2 422.079V389.818H2110.78V446H2095.82V435.795H2095.24C2093.97 439.087 2091.86 441.733 2088.91 443.732C2085.98 445.732 2082.41 446.732 2078.19 446.732C2074.44 446.732 2071.13 445.878 2068.28 444.171C2065.43 442.464 2063.2 440.038 2061.59 436.892C2060 433.747 2059.2 429.979 2059.17 425.59V389.818H2074.75V422.81C2074.78 426.127 2075.67 428.748 2077.42 430.674C2079.18 432.601 2081.53 433.564 2084.48 433.564C2086.36 433.564 2088.12 433.137 2089.75 432.284C2091.38 431.406 2092.7 430.114 2093.7 428.407C2094.72 426.7 2095.22 424.59 2095.2 422.079ZM2123.25 446V389.818H2138.35V399.621H2138.94C2139.96 396.134 2141.68 393.5 2144.09 391.72C2146.51 389.916 2149.29 389.013 2152.43 389.013C2153.21 389.013 2154.06 389.062 2154.96 389.16C2155.86 389.257 2156.65 389.391 2157.33 389.562V403.388C2156.6 403.169 2155.59 402.974 2154.3 402.803C2153.01 402.632 2151.82 402.547 2150.75 402.547C2148.46 402.547 2146.41 403.047 2144.61 404.047C2142.83 405.022 2141.41 406.387 2140.36 408.143C2139.34 409.899 2138.83 411.923 2138.83 414.215V446H2123.25ZM2205.36 371.091V446H2189.52V371.091H2205.36ZM2218.1 446V389.818H2232.95V399.73H2233.61C2234.78 396.439 2236.73 393.842 2239.46 391.94C2242.19 390.038 2245.46 389.087 2249.26 389.087C2253.11 389.087 2256.39 390.05 2259.1 391.976C2261.81 393.878 2263.61 396.463 2264.51 399.73H2265.1C2266.25 396.512 2268.32 393.939 2271.32 392.013C2274.34 390.062 2277.91 389.087 2282.03 389.087C2287.28 389.087 2291.53 390.757 2294.8 394.098C2298.09 397.414 2299.74 402.12 2299.74 408.216V446H2284.19V411.289C2284.19 408.167 2283.36 405.827 2281.7 404.266C2280.05 402.705 2277.97 401.925 2275.49 401.925C2272.66 401.925 2270.45 402.827 2268.87 404.632C2267.28 406.412 2266.49 408.765 2266.49 411.691V446H2251.38V410.96C2251.38 408.204 2250.59 406.009 2249.01 404.376C2247.44 402.742 2245.38 401.925 2242.82 401.925C2241.09 401.925 2239.53 402.364 2238.14 403.242C2236.78 404.095 2235.69 405.302 2234.89 406.863C2234.08 408.399 2233.68 410.204 2233.68 412.276V446H2218.1ZM2312.05 467.068V389.818H2327.41V399.255H2328.1C2328.79 397.743 2329.77 396.207 2331.07 394.646C2332.38 393.061 2334.09 391.745 2336.19 390.696C2338.31 389.623 2340.94 389.087 2344.09 389.087C2348.18 389.087 2351.96 390.16 2355.43 392.305C2358.89 394.427 2361.66 397.633 2363.73 401.925C2365.8 406.192 2366.84 411.545 2366.84 417.982C2366.84 424.249 2365.83 429.54 2363.8 433.857C2361.8 438.148 2359.07 441.404 2355.61 443.623C2352.17 445.817 2348.32 446.914 2344.05 446.914C2341.03 446.914 2338.45 446.415 2336.33 445.415C2334.24 444.415 2332.52 443.159 2331.17 441.647C2329.83 440.111 2328.81 438.563 2328.1 437.002H2327.63V467.068H2312.05ZM2327.3 417.909C2327.3 421.25 2327.76 424.164 2328.69 426.651C2329.61 429.138 2330.96 431.077 2332.71 432.467C2334.47 433.832 2336.6 434.515 2339.11 434.515C2341.65 434.515 2343.79 433.82 2345.55 432.43C2347.31 431.016 2348.63 429.065 2349.54 426.578C2350.46 424.066 2350.93 421.177 2350.93 417.909C2350.93 414.666 2350.48 411.813 2349.57 409.35C2348.67 406.887 2347.34 404.961 2345.59 403.571C2343.83 402.181 2341.67 401.486 2339.11 401.486C2336.58 401.486 2334.43 402.157 2332.67 403.498C2330.94 404.839 2329.61 406.741 2328.69 409.204C2327.76 411.667 2327.3 414.568 2327.3 417.909ZM2402.61 447.097C2396.93 447.097 2392.01 445.89 2387.87 443.476C2383.75 441.038 2380.57 437.648 2378.32 433.308C2376.08 428.943 2374.96 423.883 2374.96 418.129C2374.96 412.325 2376.08 407.253 2378.32 402.913C2380.57 398.548 2383.75 395.158 2387.87 392.744C2392.01 390.306 2396.93 389.087 2402.61 389.087C2408.29 389.087 2413.19 390.306 2417.31 392.744C2421.46 395.158 2424.65 398.548 2426.9 402.913C2429.14 407.253 2430.26 412.325 2430.26 418.129C2430.26 423.883 2429.14 428.943 2426.9 433.308C2424.65 437.648 2421.46 441.038 2417.31 443.476C2413.19 445.89 2408.29 447.097 2402.61 447.097ZM2402.68 435.027C2405.27 435.027 2407.43 434.295 2409.16 432.832C2410.89 431.345 2412.19 429.321 2413.07 426.761C2413.97 424.2 2414.42 421.286 2414.42 418.019C2414.42 414.751 2413.97 411.837 2413.07 409.277C2412.19 406.717 2410.89 404.693 2409.16 403.205C2407.43 401.718 2405.27 400.974 2402.68 400.974C2400.07 400.974 2397.88 401.718 2396.1 403.205C2394.34 404.693 2393.01 406.717 2392.11 409.277C2391.23 411.837 2390.79 414.751 2390.79 418.019C2390.79 421.286 2391.23 424.2 2392.11 426.761C2393.01 429.321 2394.34 431.345 2396.1 432.832C2397.88 434.295 2400.07 435.027 2402.68 435.027ZM2440.39 446V389.818H2455.5V399.621H2456.08C2457.11 396.134 2458.83 393.5 2461.24 391.72C2463.66 389.916 2466.44 389.013 2469.58 389.013C2470.36 389.013 2471.2 389.062 2472.1 389.16C2473.01 389.257 2473.8 389.391 2474.48 389.562V403.388C2473.75 403.169 2472.74 402.974 2471.45 402.803C2470.15 402.632 2468.97 402.547 2467.9 402.547C2465.61 402.547 2463.56 403.047 2461.75 404.047C2459.97 405.022 2458.56 406.387 2457.51 408.143C2456.49 409.899 2455.97 411.923 2455.97 414.215V446H2440.39ZM2515.24 389.818V401.523H2481.4V389.818H2515.24ZM2489.09 376.358H2504.67V428.736C2504.67 430.174 2504.89 431.296 2505.33 432.101C2505.76 432.881 2506.37 433.43 2507.15 433.747C2507.96 434.064 2508.89 434.222 2509.93 434.222C2510.67 434.222 2511.4 434.161 2512.13 434.039C2512.86 433.893 2513.42 433.783 2513.81 433.71L2516.26 445.305C2515.48 445.549 2514.38 445.829 2512.97 446.146C2511.56 446.488 2509.84 446.695 2507.81 446.768C2504.06 446.914 2500.77 446.415 2497.94 445.268C2495.13 444.122 2492.95 442.342 2491.39 439.928C2489.83 437.514 2489.06 434.466 2489.09 430.784V376.358ZM2571.43 405.839L2557.16 406.717C2556.92 405.497 2556.4 404.4 2555.59 403.425C2554.79 402.425 2553.73 401.632 2552.41 401.047C2551.12 400.438 2549.57 400.133 2547.76 400.133C2545.35 400.133 2543.31 400.645 2541.66 401.669C2540 402.669 2539.17 404.01 2539.17 405.692C2539.17 407.034 2539.7 408.167 2540.78 409.094C2541.85 410.021 2543.69 410.764 2546.3 411.325L2556.47 413.374C2561.93 414.495 2566 416.3 2568.69 418.787C2571.37 421.274 2572.71 424.542 2572.71 428.589C2572.71 432.272 2571.62 435.502 2569.45 438.282C2567.31 441.062 2564.36 443.232 2560.6 444.793C2556.87 446.329 2552.57 447.097 2547.69 447.097C2540.25 447.097 2534.33 445.549 2529.91 442.452C2525.53 439.331 2522.95 435.088 2522.2 429.723L2537.52 428.919C2537.99 431.186 2539.11 432.918 2540.89 434.113C2542.67 435.283 2544.95 435.868 2547.73 435.868C2550.46 435.868 2552.65 435.344 2554.31 434.295C2555.99 433.223 2556.85 431.845 2556.87 430.162C2556.85 428.748 2556.25 427.59 2555.08 426.688C2553.91 425.761 2552.1 425.054 2549.67 424.566L2539.94 422.627C2534.45 421.53 2530.37 419.628 2527.68 416.922C2525.03 414.215 2523.7 410.764 2523.7 406.57C2523.7 402.961 2524.67 399.852 2526.62 397.243C2528.6 394.634 2531.37 392.622 2534.93 391.208C2538.51 389.794 2542.7 389.087 2547.51 389.087C2554.6 389.087 2560.19 390.586 2564.26 393.586C2568.36 396.585 2570.75 400.669 2571.43 405.839ZM2601.14 371.091L2599.71 423.542H2586.32L2584.86 371.091H2601.14ZM2593.02 446.951C2590.6 446.951 2588.53 446.098 2586.8 444.391C2585.07 442.659 2584.22 440.587 2584.24 438.173C2584.22 435.783 2585.07 433.735 2586.8 432.028C2588.53 430.321 2590.6 429.467 2593.02 429.467C2595.33 429.467 2597.37 430.321 2599.13 432.028C2600.88 433.735 2601.77 435.783 2601.8 438.173C2601.77 439.782 2601.35 441.257 2600.52 442.598C2599.71 443.915 2598.65 444.976 2597.33 445.781C2596.02 446.561 2594.58 446.951 2593.02 446.951Z" fill="#C9C9C9"/>
<path d="M765.236 514.455C764.857 511.252 763.318 508.766 760.621 506.996C757.924 505.226 754.616 504.341 750.697 504.341C747.832 504.341 745.325 504.804 743.175 505.732C741.047 506.659 739.383 507.933 738.182 509.556C737.002 511.178 736.412 513.022 736.412 515.087C736.412 516.814 736.823 518.3 737.645 519.543C738.487 520.765 739.562 521.787 740.868 522.609C742.175 523.409 743.544 524.073 744.977 524.6C746.41 525.105 747.727 525.516 748.928 525.832L755.501 527.602C757.187 528.045 759.062 528.656 761.127 529.435C763.213 530.215 765.204 531.279 767.1 532.627C769.018 533.955 770.598 535.662 771.841 537.748C773.084 539.833 773.706 542.393 773.706 545.428C773.706 548.925 772.789 552.086 770.956 554.909C769.144 557.732 766.489 559.976 762.992 561.641C759.515 563.306 755.291 564.138 750.318 564.138C745.683 564.138 741.669 563.39 738.277 561.894C734.905 560.398 732.251 558.312 730.312 555.636C728.395 552.96 727.31 549.852 727.057 546.312H735.148C735.358 548.757 736.18 550.779 737.613 552.381C739.067 553.961 740.9 555.141 743.112 555.92C745.346 556.679 747.748 557.058 750.318 557.058C753.31 557.058 755.997 556.574 758.377 555.604C760.758 554.614 762.644 553.245 764.035 551.496C765.425 549.726 766.121 547.661 766.121 545.301C766.121 543.152 765.52 541.403 764.319 540.055C763.118 538.706 761.538 537.611 759.578 536.768C757.619 535.925 755.501 535.187 753.226 534.555L745.261 532.28C740.205 530.826 736.201 528.751 733.251 526.054C730.302 523.357 728.827 519.827 728.827 515.466C728.827 511.842 729.806 508.681 731.766 505.984C733.747 503.266 736.401 501.159 739.73 499.663C743.081 498.146 746.821 497.388 750.95 497.388C755.122 497.388 758.83 498.136 762.075 499.632C765.32 501.107 767.891 503.129 769.787 505.7C771.704 508.27 772.716 511.189 772.821 514.455H765.236ZM805.935 564.011C801.258 564.011 797.223 562.979 793.831 560.914C790.459 558.828 787.857 555.92 786.024 552.191C784.212 548.441 783.306 544.079 783.306 539.107C783.306 534.134 784.212 529.751 786.024 525.959C787.857 522.145 790.407 519.174 793.672 517.046C796.959 514.897 800.794 513.822 805.177 513.822C807.705 513.822 810.202 514.244 812.667 515.087C815.132 515.929 817.376 517.299 819.399 519.195C821.422 521.071 823.034 523.557 824.235 526.654C825.436 529.751 826.036 533.565 826.036 538.095V541.256H788.616V534.808H818.451C818.451 532.069 817.903 529.625 816.807 527.476C815.733 525.327 814.195 523.631 812.193 522.387C810.213 521.144 807.874 520.523 805.177 520.523C802.206 520.523 799.635 521.26 797.465 522.735C795.316 524.189 793.662 526.085 792.503 528.424C791.344 530.763 790.765 533.27 790.765 535.946V540.244C790.765 543.911 791.397 547.018 792.661 549.568C793.946 552.096 795.727 554.024 798.002 555.352C800.278 556.658 802.922 557.311 805.935 557.311C807.895 557.311 809.665 557.037 811.245 556.489C812.846 555.92 814.226 555.078 815.385 553.961C816.544 552.823 817.44 551.411 818.072 549.726L825.278 551.749C824.519 554.193 823.244 556.342 821.453 558.196C819.662 560.029 817.45 561.462 814.816 562.494C812.183 563.506 809.222 564.011 805.935 564.011ZM857.736 564.011C853.059 564.011 849.024 562.979 845.631 560.914C842.26 558.828 839.658 555.92 837.825 552.191C836.013 548.441 835.107 544.079 835.107 539.107C835.107 534.134 836.013 529.751 837.825 525.959C839.658 522.145 842.207 519.174 845.473 517.046C848.76 514.897 852.595 513.822 856.978 513.822C859.506 513.822 862.003 514.244 864.468 515.087C866.933 515.929 869.177 517.299 871.2 519.195C873.223 521.071 874.834 523.557 876.035 526.654C877.236 529.751 877.837 533.565 877.837 538.095V541.256H840.416V534.808H870.252C870.252 532.069 869.704 529.625 868.608 527.476C867.534 525.327 865.996 523.631 863.994 522.387C862.013 521.144 859.675 520.523 856.978 520.523C854.007 520.523 851.436 521.26 849.266 522.735C847.117 524.189 845.463 526.085 844.304 528.424C843.145 530.763 842.566 533.27 842.566 535.946V540.244C842.566 543.911 843.198 547.018 844.462 549.568C845.747 552.096 847.528 554.024 849.803 555.352C852.079 556.658 854.723 557.311 857.736 557.311C859.696 557.311 861.465 557.037 863.046 556.489C864.647 555.92 866.027 555.078 867.186 553.961C868.345 552.823 869.24 551.411 869.872 549.726L877.078 551.749C876.32 554.193 875.045 556.342 873.254 558.196C871.463 560.029 869.251 561.462 866.617 562.494C863.983 563.506 861.023 564.011 857.736 564.011ZM935.327 514.455V520.776H910.169V514.455H935.327ZM917.501 502.824H924.96V549.094C924.96 551.201 925.266 552.781 925.877 553.835C926.509 554.867 927.309 555.562 928.279 555.92C929.269 556.258 930.312 556.426 931.408 556.426C932.229 556.426 932.904 556.384 933.43 556.3C933.957 556.194 934.378 556.11 934.695 556.047L936.212 562.747C935.706 562.937 935 563.126 934.094 563.316C933.188 563.527 932.04 563.632 930.649 563.632C928.542 563.632 926.477 563.179 924.454 562.273C922.453 561.367 920.788 559.987 919.461 558.133C918.155 556.279 917.501 553.94 917.501 551.116V502.824ZM955.048 533.797V563H947.589V498.273H955.048V522.04H955.68C956.818 519.532 958.525 517.541 960.8 516.066C963.097 514.57 966.152 513.822 969.966 513.822C973.274 513.822 976.171 514.486 978.657 515.814C981.143 517.12 983.071 519.132 984.441 521.85C985.832 524.547 986.527 527.982 986.527 532.153V563H979.068V532.659C979.068 528.803 978.067 525.822 976.066 523.715C974.085 521.587 971.335 520.523 967.817 520.523C965.373 520.523 963.181 521.039 961.243 522.071C959.325 523.104 957.808 524.61 956.692 526.591C955.596 528.571 955.048 530.973 955.048 533.797ZM1020.53 564.011C1015.85 564.011 1011.81 562.979 1008.42 560.914C1005.05 558.828 1002.45 555.92 1000.61 552.191C998.803 548.441 997.897 544.079 997.897 539.107C997.897 534.134 998.803 529.751 1000.61 525.959C1002.45 522.145 1005 519.174 1008.26 517.046C1011.55 514.897 1015.39 513.822 1019.77 513.822C1022.3 513.822 1024.79 514.244 1027.26 515.087C1029.72 515.929 1031.97 517.299 1033.99 519.195C1036.01 521.071 1037.62 523.557 1038.83 526.654C1040.03 529.751 1040.63 533.565 1040.63 538.095V541.256H1003.21V534.808H1033.04C1033.04 532.069 1032.49 529.625 1031.4 527.476C1030.32 525.327 1028.79 523.631 1026.78 522.387C1024.8 521.144 1022.46 520.523 1019.77 520.523C1016.8 520.523 1014.23 521.26 1012.06 522.735C1009.91 524.189 1008.25 526.085 1007.09 528.424C1005.94 530.763 1005.36 533.27 1005.36 535.946V540.244C1005.36 543.911 1005.99 547.018 1007.25 549.568C1008.54 552.096 1010.32 554.024 1012.59 555.352C1014.87 556.658 1017.51 557.311 1020.53 557.311C1022.49 557.311 1024.26 557.037 1025.84 556.489C1027.44 555.92 1028.82 555.078 1029.98 553.961C1031.13 552.823 1032.03 551.411 1032.66 549.726L1039.87 551.749C1039.11 554.193 1037.84 556.342 1036.04 558.196C1034.25 560.029 1032.04 561.462 1029.41 562.494C1026.77 563.506 1023.81 564.011 1020.53 564.011ZM1077 563V514.455H1084.46V563H1077ZM1080.8 506.364C1079.34 506.364 1078.09 505.868 1077.04 504.878C1076 503.888 1075.49 502.697 1075.49 501.307C1075.49 499.916 1076 498.726 1077.04 497.735C1078.09 496.745 1079.34 496.25 1080.8 496.25C1082.25 496.25 1083.49 496.745 1084.53 497.735C1085.58 498.726 1086.11 499.916 1086.11 501.307C1086.11 502.697 1085.58 503.888 1084.53 504.878C1083.49 505.868 1082.25 506.364 1080.8 506.364ZM1098.12 563V514.455H1105.33V522.04H1105.96C1106.97 519.448 1108.61 517.436 1110.86 516.003C1113.12 514.549 1115.82 513.822 1118.98 513.822C1122.19 513.822 1124.85 514.549 1126.98 516.003C1129.13 517.436 1130.8 519.448 1132.01 522.04H1132.51C1133.75 519.532 1135.62 517.541 1138.11 516.066C1140.59 514.57 1143.57 513.822 1147.05 513.822C1151.39 513.822 1154.94 515.181 1157.7 517.9C1160.46 520.596 1161.84 524.8 1161.84 530.51V563H1154.38V530.51C1154.38 526.928 1153.4 524.368 1151.44 522.83C1149.48 521.292 1147.18 520.523 1144.52 520.523C1141.11 520.523 1138.46 521.555 1136.59 523.62C1134.71 525.664 1133.78 528.255 1133.78 531.395V563H1126.19V529.751C1126.19 526.991 1125.29 524.768 1123.5 523.083C1121.71 521.376 1119.41 520.523 1116.58 520.523C1114.64 520.523 1112.83 521.039 1111.15 522.071C1109.48 523.104 1108.13 524.537 1107.1 526.37C1106.09 528.182 1105.58 530.278 1105.58 532.659V563H1098.12ZM1175.48 581.205V514.455H1182.68V522.166H1183.57C1184.12 521.323 1184.88 520.249 1185.84 518.942C1186.83 517.615 1188.25 516.435 1190.08 515.403C1191.93 514.349 1194.44 513.822 1197.6 513.822C1201.69 513.822 1205.29 514.844 1208.41 516.888C1211.53 518.932 1213.96 521.829 1215.71 525.58C1217.46 529.33 1218.33 533.755 1218.33 538.854C1218.33 543.995 1217.46 548.451 1215.71 552.223C1213.96 555.973 1211.54 558.881 1208.44 560.946C1205.34 562.989 1201.77 564.011 1197.73 564.011C1194.61 564.011 1192.11 563.495 1190.24 562.463C1188.36 561.409 1186.92 560.219 1185.91 558.891C1184.9 557.543 1184.12 556.426 1183.57 555.541H1182.94V581.205H1175.48ZM1182.81 538.727C1182.81 542.393 1183.35 545.628 1184.42 548.43C1185.5 551.211 1187.07 553.392 1189.13 554.972C1191.2 556.531 1193.72 557.311 1196.72 557.311C1199.84 557.311 1202.44 556.489 1204.52 554.846C1206.63 553.181 1208.21 550.948 1209.26 548.146C1210.34 545.322 1210.88 542.183 1210.88 538.727C1210.88 535.314 1210.35 532.238 1209.3 529.499C1208.26 526.738 1206.69 524.558 1204.59 522.956C1202.5 521.334 1199.88 520.523 1196.72 520.523C1193.68 520.523 1191.13 521.292 1189.07 522.83C1187 524.347 1185.44 526.475 1184.39 529.214C1183.34 531.932 1182.81 535.103 1182.81 538.727ZM1244 564.138C1240.92 564.138 1238.13 563.558 1235.62 562.4C1233.12 561.22 1231.12 559.523 1229.65 557.311C1228.17 555.078 1227.44 552.381 1227.44 549.22C1227.44 546.439 1227.98 544.184 1229.08 542.457C1230.18 540.708 1231.64 539.338 1233.47 538.348C1235.31 537.358 1237.33 536.62 1239.54 536.136C1241.78 535.63 1244.02 535.23 1246.27 534.935C1249.22 534.555 1251.61 534.271 1253.45 534.081C1255.3 533.871 1256.65 533.523 1257.49 533.038C1258.36 532.554 1258.79 531.711 1258.79 530.51V530.257C1258.79 527.139 1257.94 524.716 1256.23 522.988C1254.54 521.26 1251.98 520.396 1248.55 520.396C1244.99 520.396 1242.2 521.176 1240.17 522.735C1238.15 524.294 1236.73 525.959 1235.91 527.729L1228.83 525.2C1230.09 522.25 1231.78 519.954 1233.88 518.31C1236.01 516.646 1238.33 515.487 1240.84 514.834C1243.37 514.16 1245.85 513.822 1248.3 513.822C1249.86 513.822 1251.65 514.012 1253.67 514.391C1255.71 514.75 1257.68 515.498 1259.58 516.635C1261.5 517.773 1263.09 519.49 1264.35 521.787C1265.62 524.084 1266.25 527.16 1266.25 531.016V563H1258.79V556.426H1258.41C1257.9 557.48 1257.06 558.607 1255.88 559.808C1254.7 561.009 1253.13 562.031 1251.17 562.874C1249.21 563.716 1246.82 564.138 1244 564.138ZM1245.14 557.438C1248.09 557.438 1250.57 556.858 1252.59 555.699C1254.64 554.54 1256.18 553.044 1257.21 551.211C1258.26 549.378 1258.79 547.45 1258.79 545.428V538.601C1258.47 538.98 1257.78 539.328 1256.7 539.644C1255.65 539.939 1254.43 540.202 1253.04 540.434C1251.67 540.645 1250.33 540.834 1249.02 541.003C1247.74 541.15 1246.69 541.277 1245.89 541.382C1243.96 541.635 1242.14 542.046 1240.46 542.615C1238.79 543.163 1237.45 543.995 1236.41 545.112C1235.4 546.207 1234.9 547.703 1234.9 549.599C1234.9 552.191 1235.85 554.151 1237.77 555.478C1239.71 556.784 1242.16 557.438 1245.14 557.438ZM1299.58 564.011C1295.03 564.011 1291.11 562.937 1287.83 560.788C1284.54 558.638 1282.01 555.678 1280.24 551.907C1278.47 548.135 1277.59 543.826 1277.59 538.98C1277.59 534.05 1278.49 529.699 1280.3 525.927C1282.14 522.135 1284.69 519.174 1287.95 517.046C1291.24 514.897 1295.07 513.822 1299.46 513.822C1302.87 513.822 1305.95 514.455 1308.69 515.719C1311.42 516.983 1313.67 518.753 1315.42 521.028C1317.17 523.304 1318.25 525.959 1318.67 528.993H1311.21C1310.65 526.781 1309.38 524.821 1307.42 523.114C1305.48 521.387 1302.87 520.523 1299.58 520.523C1296.68 520.523 1294.13 521.281 1291.94 522.798C1289.76 524.294 1288.07 526.412 1286.85 529.151C1285.65 531.869 1285.05 535.061 1285.05 538.727C1285.05 542.478 1285.64 545.744 1286.81 548.525C1288.02 551.306 1289.7 553.466 1291.87 555.004C1294.06 556.542 1296.63 557.311 1299.58 557.311C1301.52 557.311 1303.28 556.974 1304.86 556.3C1306.44 555.625 1307.78 554.656 1308.88 553.392C1309.97 552.128 1310.75 550.611 1311.21 548.841H1318.67C1318.25 551.706 1317.21 554.288 1315.54 556.584C1313.9 558.86 1311.72 560.672 1309 562.02C1306.3 563.348 1303.17 564.011 1299.58 564.011ZM1350.69 514.455V520.776H1325.53V514.455H1350.69ZM1332.86 502.824H1340.32V549.094C1340.32 551.201 1340.63 552.781 1341.24 553.835C1341.87 554.867 1342.67 555.562 1343.64 555.92C1344.63 556.258 1345.67 556.426 1346.77 556.426C1347.59 556.426 1348.27 556.384 1348.79 556.3C1349.32 556.194 1349.74 556.11 1350.06 556.047L1351.57 562.747C1351.07 562.937 1350.36 563.126 1349.46 563.316C1348.55 563.527 1347.4 563.632 1346.01 563.632C1343.9 563.632 1341.84 563.179 1339.82 562.273C1337.82 561.367 1336.15 559.987 1334.82 558.133C1333.52 556.279 1332.86 553.94 1332.86 551.116V502.824ZM1401.23 564.138C1398.15 564.138 1395.36 563.558 1392.85 562.4C1390.34 561.22 1388.35 559.523 1386.88 557.311C1385.4 555.078 1384.66 552.381 1384.66 549.22C1384.66 546.439 1385.21 544.184 1386.31 542.457C1387.4 540.708 1388.87 539.338 1390.7 538.348C1392.53 537.358 1394.56 536.62 1396.77 536.136C1399 535.63 1401.25 535.23 1403.5 534.935C1406.45 534.555 1408.84 534.271 1410.68 534.081C1412.53 533.871 1413.88 533.523 1414.72 533.038C1415.58 532.554 1416.02 531.711 1416.02 530.51V530.257C1416.02 527.139 1415.16 524.716 1413.46 522.988C1411.77 521.26 1409.21 520.396 1405.78 520.396C1402.22 520.396 1399.42 521.176 1397.4 522.735C1395.38 524.294 1393.96 525.959 1393.13 527.729L1386.06 525.2C1387.32 522.25 1389 519.954 1391.11 518.31C1393.24 516.646 1395.56 515.487 1398.06 514.834C1400.59 514.16 1403.08 513.822 1405.52 513.822C1407.08 513.822 1408.87 514.012 1410.9 514.391C1412.94 514.75 1414.91 515.498 1416.81 516.635C1418.72 517.773 1420.31 519.49 1421.58 521.787C1422.84 524.084 1423.48 527.16 1423.48 531.016V563H1416.02V556.426H1415.64C1415.13 557.48 1414.29 558.607 1413.11 559.808C1411.93 561.009 1410.36 562.031 1408.4 562.874C1406.44 563.716 1404.05 564.138 1401.23 564.138ZM1402.36 557.438C1405.31 557.438 1407.8 556.858 1409.82 555.699C1411.87 554.54 1413.4 553.044 1414.44 551.211C1415.49 549.378 1416.02 547.45 1416.02 545.428V538.601C1415.7 538.98 1415.01 539.328 1413.93 539.644C1412.88 539.939 1411.66 540.202 1410.26 540.434C1408.9 540.645 1407.56 540.834 1406.25 541.003C1404.97 541.15 1403.92 541.277 1403.12 541.382C1401.18 541.635 1399.37 542.046 1397.69 542.615C1396.02 543.163 1394.67 543.995 1393.64 545.112C1392.63 546.207 1392.12 547.703 1392.12 549.599C1392.12 552.191 1393.08 554.151 1395 555.478C1396.94 556.784 1399.39 557.438 1402.36 557.438ZM1444.55 533.797V563H1437.09V514.455H1444.3V522.04H1444.93C1446.07 519.575 1447.79 517.594 1450.11 516.098C1452.43 514.581 1455.42 513.822 1459.09 513.822C1462.37 513.822 1465.25 514.497 1467.71 515.845C1470.18 517.173 1472.1 519.195 1473.47 521.913C1474.84 524.61 1475.52 528.024 1475.52 532.153V563H1468.06V532.659C1468.06 528.845 1467.07 525.875 1465.09 523.746C1463.11 521.597 1460.39 520.523 1456.94 520.523C1454.56 520.523 1452.43 521.039 1450.55 522.071C1448.7 523.104 1447.23 524.61 1446.16 526.591C1445.09 528.571 1444.55 530.973 1444.55 533.797ZM1507.48 564.011C1503.44 564.011 1499.87 562.989 1496.77 560.946C1493.67 558.881 1491.25 555.973 1489.5 552.223C1487.75 548.451 1486.88 543.995 1486.88 538.854C1486.88 533.755 1487.75 529.33 1489.5 525.58C1491.25 521.829 1493.68 518.932 1496.8 516.888C1499.92 514.844 1503.52 513.822 1507.61 513.822C1510.77 513.822 1513.27 514.349 1515.1 515.403C1516.95 516.435 1518.36 517.615 1519.33 518.942C1520.32 520.249 1521.09 521.323 1521.64 522.166H1522.27V498.273H1529.73V563H1522.53V555.541H1521.64C1521.09 556.426 1520.31 557.543 1519.3 558.891C1518.29 560.219 1516.85 561.409 1514.97 562.463C1513.1 563.495 1510.6 564.011 1507.48 564.011ZM1508.49 557.311C1511.49 557.311 1514.01 556.531 1516.08 554.972C1518.14 553.392 1519.71 551.211 1520.79 548.43C1521.86 545.628 1522.4 542.393 1522.4 538.727C1522.4 535.103 1521.87 531.932 1520.82 529.214C1519.77 526.475 1518.21 524.347 1516.14 522.83C1514.08 521.292 1511.53 520.523 1508.49 520.523C1505.33 520.523 1502.7 521.334 1500.59 522.956C1498.51 524.558 1496.94 526.738 1495.88 529.499C1494.85 532.238 1494.33 535.314 1494.33 538.727C1494.33 542.183 1494.86 545.322 1495.91 548.146C1496.99 550.948 1498.57 553.181 1500.66 554.846C1502.76 556.489 1505.37 557.311 1508.49 557.311ZM1589.81 564.011C1585.14 564.011 1581.1 562.979 1577.71 560.914C1574.34 558.828 1571.74 555.92 1569.9 552.191C1568.09 548.441 1567.18 544.079 1567.18 539.107C1567.18 534.134 1568.09 529.751 1569.9 525.959C1571.74 522.145 1574.28 519.174 1577.55 517.046C1580.84 514.897 1584.67 513.822 1589.05 513.822C1591.58 513.822 1594.08 514.244 1596.55 515.087C1599.01 515.929 1601.25 517.299 1603.28 519.195C1605.3 521.071 1606.91 523.557 1608.11 526.654C1609.31 529.751 1609.91 533.565 1609.91 538.095V541.256H1572.49V534.808H1602.33C1602.33 532.069 1601.78 529.625 1600.69 527.476C1599.61 525.327 1598.07 523.631 1596.07 522.387C1594.09 521.144 1591.75 520.523 1589.05 520.523C1586.08 520.523 1583.51 521.26 1581.34 522.735C1579.19 524.189 1577.54 526.085 1576.38 528.424C1575.22 530.763 1574.64 533.27 1574.64 535.946V540.244C1574.64 543.911 1575.27 547.018 1576.54 549.568C1577.82 552.096 1579.6 554.024 1581.88 555.352C1584.16 556.658 1586.8 557.311 1589.81 557.311C1591.77 557.311 1593.54 557.037 1595.12 556.489C1596.72 555.92 1598.1 555.078 1599.26 553.961C1600.42 552.823 1601.32 551.411 1601.95 549.726L1609.16 551.749C1608.4 554.193 1607.12 556.342 1605.33 558.196C1603.54 560.029 1601.33 561.462 1598.69 562.494C1596.06 563.506 1593.1 564.011 1589.81 564.011ZM1625.52 514.455L1637.15 534.303L1648.78 514.455H1657.38L1641.7 538.727L1657.38 563H1648.78L1637.15 544.163L1625.52 563H1616.92L1632.35 538.727L1616.92 514.455H1625.52ZM1668.02 581.205V514.455H1675.23V522.166H1676.11C1676.66 521.323 1677.42 520.249 1678.39 518.942C1679.38 517.615 1680.79 516.435 1682.62 515.403C1684.48 514.349 1686.98 513.822 1690.14 513.822C1694.23 513.822 1697.83 514.844 1700.95 516.888C1704.07 518.932 1706.5 521.829 1708.25 525.58C1710 529.33 1710.88 533.755 1710.88 538.854C1710.88 543.995 1710 548.451 1708.25 552.223C1706.5 555.973 1704.08 558.881 1700.98 560.946C1697.89 562.989 1694.32 564.011 1690.27 564.011C1687.15 564.011 1684.65 563.495 1682.78 562.463C1680.9 561.409 1679.46 560.219 1678.45 558.891C1677.44 557.543 1676.66 556.426 1676.11 555.541H1675.48V581.205H1668.02ZM1675.35 538.727C1675.35 542.393 1675.89 545.628 1676.96 548.43C1678.04 551.211 1679.61 553.392 1681.67 554.972C1683.74 556.531 1686.27 557.311 1689.26 557.311C1692.38 557.311 1694.98 556.489 1697.07 554.846C1699.17 553.181 1700.75 550.948 1701.81 548.146C1702.88 545.322 1703.42 542.183 1703.42 538.727C1703.42 535.314 1702.89 532.238 1701.84 529.499C1700.81 526.738 1699.24 524.558 1697.13 522.956C1695.04 521.334 1692.42 520.523 1689.26 520.523C1686.22 520.523 1683.68 521.292 1681.61 522.83C1679.55 524.347 1677.99 526.475 1676.93 529.214C1675.88 531.932 1675.35 535.103 1675.35 538.727ZM1729.71 498.273V563H1722.25V498.273H1729.71ZM1763.1 564.011C1758.71 564.011 1754.87 562.968 1751.56 560.882C1748.27 558.797 1745.7 555.878 1743.85 552.128C1742.02 548.377 1741.1 543.995 1741.1 538.98C1741.1 533.923 1742.02 529.509 1743.85 525.738C1745.7 521.966 1748.27 519.037 1751.56 516.951C1754.87 514.865 1758.71 513.822 1763.1 513.822C1767.48 513.822 1771.31 514.865 1774.6 516.951C1777.91 519.037 1780.48 521.966 1782.31 525.738C1784.17 529.509 1785.09 533.923 1785.09 538.98C1785.09 543.995 1784.17 548.377 1782.31 552.128C1780.48 555.878 1777.91 558.797 1774.6 560.882C1771.31 562.968 1767.48 564.011 1763.1 564.011ZM1763.1 557.311C1766.43 557.311 1769.16 556.458 1771.31 554.751C1773.46 553.044 1775.05 550.8 1776.09 548.019C1777.12 545.238 1777.63 542.225 1777.63 538.98C1777.63 535.735 1777.12 532.712 1776.09 529.909C1775.05 527.107 1773.46 524.842 1771.31 523.114C1769.16 521.387 1766.43 520.523 1763.1 520.523C1759.77 520.523 1757.03 521.387 1754.88 523.114C1752.73 524.842 1751.14 527.107 1750.11 529.909C1749.07 532.712 1748.56 535.735 1748.56 538.98C1748.56 542.225 1749.07 545.238 1750.11 548.019C1751.14 550.8 1752.73 553.044 1754.88 554.751C1757.03 556.458 1759.77 557.311 1763.1 557.311ZM1796.48 563V514.455H1803.69V521.787H1804.19C1805.08 519.385 1806.68 517.436 1808.99 515.94C1811.31 514.444 1813.93 513.696 1816.83 513.696C1817.38 513.696 1818.07 513.707 1818.89 513.728C1819.71 513.749 1820.33 513.78 1820.75 513.822V521.408C1820.5 521.344 1819.92 521.25 1819.01 521.123C1818.13 520.976 1817.19 520.902 1816.2 520.902C1813.84 520.902 1811.73 521.397 1809.88 522.387C1808.05 523.357 1806.59 524.705 1805.52 526.433C1804.46 528.14 1803.94 530.089 1803.94 532.28V563H1796.48ZM1848.47 564.011C1843.79 564.011 1839.76 562.979 1836.36 560.914C1832.99 558.828 1830.39 555.92 1828.56 552.191C1826.75 548.441 1825.84 544.079 1825.84 539.107C1825.84 534.134 1826.75 529.751 1828.56 525.959C1830.39 522.145 1832.94 519.174 1836.21 517.046C1839.49 514.897 1843.33 513.822 1847.71 513.822C1850.24 513.822 1852.74 514.244 1855.2 515.087C1857.67 515.929 1859.91 517.299 1861.93 519.195C1863.96 521.071 1865.57 523.557 1866.77 526.654C1867.97 529.751 1868.57 533.565 1868.57 538.095V541.256H1831.15V534.808H1860.99C1860.99 532.069 1860.44 529.625 1859.34 527.476C1858.27 525.327 1856.73 523.631 1854.73 522.387C1852.75 521.144 1850.41 520.523 1847.71 520.523C1844.74 520.523 1842.17 521.26 1840 522.735C1837.85 524.189 1836.2 526.085 1835.04 528.424C1833.88 530.763 1833.3 533.27 1833.3 535.946V540.244C1833.3 543.911 1833.93 547.018 1835.2 549.568C1836.48 552.096 1838.26 554.024 1840.54 555.352C1842.81 556.658 1845.46 557.311 1848.47 557.311C1850.43 557.311 1852.2 557.037 1853.78 556.489C1855.38 555.92 1856.76 555.078 1857.92 553.961C1859.08 552.823 1859.97 551.411 1860.61 549.726L1867.81 551.749C1867.05 554.193 1865.78 556.342 1863.99 558.196C1862.2 560.029 1859.98 561.462 1857.35 562.494C1854.72 563.506 1851.76 564.011 1848.47 564.011ZM1909.75 581.205C1908.49 581.205 1907.36 581.099 1906.37 580.888C1905.38 580.699 1904.69 580.509 1904.32 580.32L1906.21 573.746C1908.02 574.209 1909.63 574.378 1911.02 574.251C1912.41 574.125 1913.64 573.503 1914.71 572.387C1915.81 571.291 1916.81 569.511 1917.72 567.045L1919.11 563.253L1901.16 514.455H1909.25L1922.65 553.139H1923.15L1936.55 514.455H1944.64L1924.04 570.08C1923.11 572.587 1921.96 574.662 1920.59 576.306C1919.22 577.97 1917.63 579.203 1915.82 580.004C1914.03 580.804 1912.01 581.205 1909.75 581.205ZM1972.47 564.011C1968.09 564.011 1964.24 562.968 1960.94 560.882C1957.65 558.797 1955.08 555.878 1953.22 552.128C1951.39 548.377 1950.47 543.995 1950.47 538.98C1950.47 533.923 1951.39 529.509 1953.22 525.738C1955.08 521.966 1957.65 519.037 1960.94 516.951C1964.24 514.865 1968.09 513.822 1972.47 513.822C1976.85 513.822 1980.69 514.865 1983.98 516.951C1987.28 519.037 1989.85 521.966 1991.69 525.738C1993.54 529.509 1994.47 533.923 1994.47 538.98C1994.47 543.995 1993.54 548.377 1991.69 552.128C1989.85 555.878 1987.28 558.797 1983.98 560.882C1980.69 562.968 1976.85 564.011 1972.47 564.011ZM1972.47 557.311C1975.8 557.311 1978.54 556.458 1980.69 554.751C1982.84 553.044 1984.43 550.8 1985.46 548.019C1986.49 545.238 1987.01 542.225 1987.01 538.98C1987.01 535.735 1986.49 532.712 1985.46 529.909C1984.43 527.107 1982.84 524.842 1980.69 523.114C1978.54 521.387 1975.8 520.523 1972.47 520.523C1969.14 520.523 1966.4 521.387 1964.25 523.114C1962.11 524.842 1960.51 527.107 1959.48 529.909C1958.45 532.712 1957.93 535.735 1957.93 538.98C1957.93 542.225 1958.45 545.238 1959.48 548.019C1960.51 550.8 1962.11 553.044 1964.25 554.751C1966.4 556.458 1969.14 557.311 1972.47 557.311ZM2036.45 543.152V514.455H2043.91V563H2036.45V554.783H2035.94C2034.81 557.248 2033.04 559.344 2030.63 561.072C2028.23 562.779 2025.2 563.632 2021.53 563.632C2018.5 563.632 2015.8 562.968 2013.44 561.641C2011.08 560.292 2009.23 558.27 2007.88 555.573C2006.53 552.855 2005.86 549.431 2005.86 545.301V514.455H2013.31V544.795C2013.31 548.335 2014.3 551.159 2016.28 553.266C2018.29 555.373 2020.84 556.426 2023.93 556.426C2025.79 556.426 2027.67 555.952 2029.59 555.004C2031.53 554.056 2033.15 552.602 2034.46 550.642C2035.79 548.683 2036.45 546.186 2036.45 543.152ZM2057.57 563V514.455H2064.77V521.787H2065.28C2066.17 519.385 2067.77 517.436 2070.08 515.94C2072.4 514.444 2075.01 513.696 2077.92 513.696C2078.47 513.696 2079.16 513.707 2079.98 513.728C2080.8 513.749 2081.42 513.78 2081.84 513.822V521.408C2081.59 521.344 2081.01 521.25 2080.1 521.123C2079.22 520.976 2078.28 520.902 2077.29 520.902C2074.93 520.902 2072.82 521.397 2070.97 522.387C2069.14 523.357 2067.68 524.705 2066.61 526.433C2065.55 528.14 2065.03 530.089 2065.03 532.28V563H2057.57ZM2135.44 564.011C2131.05 564.011 2127.21 562.968 2123.9 560.882C2120.61 558.797 2118.04 555.878 2116.19 552.128C2114.36 548.377 2113.44 543.995 2113.44 538.98C2113.44 533.923 2114.36 529.509 2116.19 525.738C2118.04 521.966 2120.61 519.037 2123.9 516.951C2127.21 514.865 2131.05 513.822 2135.44 513.822C2139.82 513.822 2143.65 514.865 2146.94 516.951C2150.25 519.037 2152.82 521.966 2154.65 525.738C2156.51 529.509 2157.43 533.923 2157.43 538.98C2157.43 543.995 2156.51 548.377 2154.65 552.128C2152.82 555.878 2150.25 558.797 2146.94 560.882C2143.65 562.968 2139.82 564.011 2135.44 564.011ZM2135.44 557.311C2138.77 557.311 2141.5 556.458 2143.65 554.751C2145.8 553.044 2147.39 550.8 2148.43 548.019C2149.46 545.238 2149.97 542.225 2149.97 538.98C2149.97 535.735 2149.46 532.712 2148.43 529.909C2147.39 527.107 2145.8 524.842 2143.65 523.114C2141.5 521.387 2138.77 520.523 2135.44 520.523C2132.11 520.523 2129.37 521.387 2127.22 523.114C2125.07 524.842 2123.48 527.107 2122.45 529.909C2121.41 532.712 2120.9 535.735 2120.9 538.98C2120.9 542.225 2121.41 545.238 2122.45 548.019C2123.48 550.8 2125.07 553.044 2127.22 554.751C2129.37 556.458 2132.11 557.311 2135.44 557.311ZM2168.82 581.205V514.455H2176.02V522.166H2176.91C2177.46 521.323 2178.22 520.249 2179.19 518.942C2180.18 517.615 2181.59 516.435 2183.42 515.403C2185.27 514.349 2187.78 513.822 2190.94 513.822C2195.03 513.822 2198.63 514.844 2201.75 516.888C2204.87 518.932 2207.3 521.829 2209.05 525.58C2210.8 529.33 2211.68 533.755 2211.68 538.854C2211.68 543.995 2210.8 548.451 2209.05 552.223C2207.3 555.973 2204.88 558.881 2201.78 560.946C2198.69 562.989 2195.11 564.011 2191.07 564.011C2187.95 564.011 2185.45 563.495 2183.58 562.463C2181.7 561.409 2180.26 560.219 2179.25 558.891C2178.24 557.543 2177.46 556.426 2176.91 555.541H2176.28V581.205H2168.82ZM2176.15 538.727C2176.15 542.393 2176.69 545.628 2177.76 548.43C2178.84 551.211 2180.41 553.392 2182.47 554.972C2184.54 556.531 2187.07 557.311 2190.06 557.311C2193.18 557.311 2195.78 556.489 2197.86 554.846C2199.97 553.181 2201.55 550.948 2202.6 548.146C2203.68 545.322 2204.22 542.183 2204.22 538.727C2204.22 535.314 2203.69 532.238 2202.64 529.499C2201.6 526.738 2200.03 524.558 2197.93 522.956C2195.84 521.334 2193.22 520.523 2190.06 520.523C2187.02 520.523 2184.47 521.292 2182.41 522.83C2180.34 524.347 2178.79 526.475 2177.73 529.214C2176.68 531.932 2176.15 535.103 2176.15 538.727ZM2244.17 514.455V520.776H2219.01V514.455H2244.17ZM2226.34 502.824H2233.8V549.094C2233.8 551.201 2234.1 552.781 2234.72 553.835C2235.35 554.867 2236.15 555.562 2237.12 555.92C2238.11 556.258 2239.15 556.426 2240.25 556.426C2241.07 556.426 2241.74 556.384 2242.27 556.3C2242.8 556.194 2243.22 556.11 2243.53 556.047L2245.05 562.747C2244.54 562.937 2243.84 563.126 2242.93 563.316C2242.03 563.527 2240.88 563.632 2239.49 563.632C2237.38 563.632 2235.32 563.179 2233.29 562.273C2231.29 561.367 2229.63 559.987 2228.3 558.133C2226.99 556.279 2226.34 553.94 2226.34 551.116V502.824ZM2255.39 563V514.455H2262.84V563H2255.39ZM2259.18 506.364C2257.72 506.364 2256.47 505.868 2255.42 504.878C2254.38 503.888 2253.87 502.697 2253.87 501.307C2253.87 499.916 2254.38 498.726 2255.42 497.735C2256.47 496.745 2257.72 496.25 2259.18 496.25C2260.63 496.25 2261.87 496.745 2262.91 497.735C2263.96 498.726 2264.49 499.916 2264.49 501.307C2264.49 502.697 2263.96 503.888 2262.91 504.878C2261.87 505.868 2260.63 506.364 2259.18 506.364ZM2296.23 564.011C2291.84 564.011 2288 562.968 2284.69 560.882C2281.4 558.797 2278.83 555.878 2276.98 552.128C2275.15 548.377 2274.23 543.995 2274.23 538.98C2274.23 533.923 2275.15 529.509 2276.98 525.738C2278.83 521.966 2281.4 519.037 2284.69 516.951C2288 514.865 2291.84 513.822 2296.23 513.822C2300.61 513.822 2304.44 514.865 2307.73 516.951C2311.04 519.037 2313.61 521.966 2315.44 525.738C2317.3 529.509 2318.22 533.923 2318.22 538.98C2318.22 543.995 2317.3 548.377 2315.44 552.128C2313.61 555.878 2311.04 558.797 2307.73 560.882C2304.44 562.968 2300.61 564.011 2296.23 564.011ZM2296.23 557.311C2299.56 557.311 2302.3 556.458 2304.44 554.751C2306.59 553.044 2308.18 550.8 2309.22 548.019C2310.25 545.238 2310.77 542.225 2310.77 538.98C2310.77 535.735 2310.25 532.712 2309.22 529.909C2308.18 527.107 2306.59 524.842 2304.44 523.114C2302.3 521.387 2299.56 520.523 2296.23 520.523C2292.9 520.523 2290.16 521.387 2288.01 523.114C2285.86 524.842 2284.27 527.107 2283.24 529.909C2282.2 532.712 2281.69 535.735 2281.69 538.98C2281.69 542.225 2282.2 545.238 2283.24 548.019C2284.27 550.8 2285.86 553.044 2288.01 554.751C2290.16 556.458 2292.9 557.311 2296.23 557.311ZM2337.07 533.797V563H2329.61V514.455H2336.82V522.04H2337.45C2338.59 519.575 2340.31 517.594 2342.63 516.098C2344.95 514.581 2347.94 513.822 2351.61 513.822C2354.89 513.822 2357.77 514.497 2360.24 515.845C2362.7 517.173 2364.62 519.195 2365.99 521.913C2367.36 524.61 2368.04 528.024 2368.04 532.153V563H2360.58V532.659C2360.58 528.845 2359.59 525.875 2357.61 523.746C2355.63 521.597 2352.91 520.523 2349.46 520.523C2347.08 520.523 2344.95 521.039 2343.07 522.071C2341.22 523.104 2339.76 524.61 2338.68 526.591C2337.61 528.571 2337.07 530.973 2337.07 533.797ZM2416.06 525.327L2409.36 527.223C2408.94 526.106 2408.31 525.021 2407.49 523.968C2406.69 522.893 2405.6 522.008 2404.21 521.313C2402.82 520.618 2401.03 520.27 2398.86 520.27C2395.89 520.27 2393.42 520.955 2391.44 522.324C2389.48 523.673 2388.5 525.39 2388.5 527.476C2388.5 529.33 2389.17 530.794 2390.52 531.869C2391.87 532.944 2393.98 533.839 2396.84 534.555L2404.05 536.325C2408.39 537.379 2411.62 538.991 2413.75 541.161C2415.88 543.31 2416.94 546.081 2416.94 549.473C2416.94 552.254 2416.14 554.741 2414.54 556.932C2412.96 559.123 2410.75 560.851 2407.9 562.115C2405.06 563.379 2401.75 564.011 2397.98 564.011C2393.03 564.011 2388.93 562.937 2385.69 560.788C2382.44 558.638 2380.39 555.499 2379.52 551.369L2386.6 549.599C2387.28 552.212 2388.55 554.172 2390.43 555.478C2392.32 556.784 2394.8 557.438 2397.85 557.438C2401.33 557.438 2404.09 556.7 2406.13 555.225C2408.2 553.729 2409.23 551.938 2409.23 549.852C2409.23 548.167 2408.64 546.755 2407.46 545.617C2406.28 544.458 2404.47 543.594 2402.03 543.026L2393.93 541.129C2389.49 540.076 2386.22 538.443 2384.14 536.23C2382.07 533.997 2381.04 531.205 2381.04 527.855C2381.04 525.116 2381.81 522.693 2383.35 520.586C2384.91 518.479 2387.02 516.825 2389.7 515.624C2392.4 514.423 2395.45 513.822 2398.86 513.822C2403.67 513.822 2407.44 514.876 2410.18 516.983C2412.94 519.09 2414.9 521.871 2416.06 525.327Z" fill="#6B6B6B"/>
<path d="M2144.46 275.726C2141.41 275.726 2138.68 275.121 2136.24 273.911C2133.8 272.701 2131.85 271.042 2130.38 268.934C2128.91 266.826 2128.11 264.423 2127.97 261.727H2134.19C2134.43 264.129 2135.52 266.117 2137.46 267.69C2139.41 269.245 2141.74 270.023 2144.46 270.023C2146.63 270.023 2148.57 269.513 2150.26 268.493C2151.97 267.474 2153.31 266.074 2154.28 264.294C2155.27 262.496 2155.76 260.466 2155.76 258.202C2155.76 255.886 2155.25 253.821 2154.23 252.006C2153.23 250.174 2151.84 248.731 2150.08 247.677C2148.32 246.623 2146.31 246.087 2144.04 246.07C2142.42 246.052 2140.75 246.303 2139.04 246.821C2137.33 247.323 2135.92 247.971 2134.81 248.766L2128.8 248.04L2132.01 221.909H2159.6V227.612H2137.41L2135.54 243.27H2135.85C2136.94 242.406 2138.3 241.689 2139.95 241.118C2141.59 240.548 2143.3 240.263 2145.08 240.263C2148.33 240.263 2151.22 241.04 2153.76 242.596C2156.32 244.134 2158.33 246.242 2159.78 248.921C2161.25 251.6 2161.98 254.659 2161.98 258.098C2161.98 261.485 2161.22 264.51 2159.7 267.171C2158.2 269.815 2156.12 271.906 2153.48 273.445C2150.83 274.965 2147.83 275.726 2144.46 275.726ZM2192.91 275V235.182H2198.82V241.403H2199.34C2200.17 239.278 2201.51 237.627 2203.36 236.452C2205.21 235.26 2207.43 234.663 2210.02 234.663C2212.65 234.663 2214.84 235.26 2216.58 236.452C2218.34 237.627 2219.72 239.278 2220.7 241.403H2221.12C2222.14 239.347 2223.67 237.714 2225.71 236.504C2227.75 235.277 2230.19 234.663 2233.04 234.663C2236.6 234.663 2239.51 235.778 2241.78 238.007C2244.04 240.22 2245.17 243.667 2245.17 248.351V275H2239.06V248.351C2239.06 245.413 2238.25 243.313 2236.65 242.051C2235.04 240.79 2233.15 240.159 2230.97 240.159C2228.17 240.159 2226 241.006 2224.46 242.7C2222.92 244.376 2222.15 246.502 2222.15 249.077V275H2215.93V247.729C2215.93 245.465 2215.2 243.641 2213.73 242.259C2212.26 240.859 2210.37 240.159 2208.05 240.159C2206.46 240.159 2204.98 240.583 2203.59 241.429C2202.23 242.276 2201.12 243.451 2200.28 244.955C2199.45 246.441 2199.03 248.161 2199.03 250.114V275H2192.91ZM2256.36 275V235.182H2262.48V275H2256.36ZM2259.47 228.545C2258.28 228.545 2257.25 228.139 2256.39 227.327C2255.54 226.515 2255.12 225.538 2255.12 224.398C2255.12 223.257 2255.54 222.281 2256.39 221.468C2257.25 220.656 2258.28 220.25 2259.47 220.25C2260.66 220.25 2261.68 220.656 2262.53 221.468C2263.39 222.281 2263.83 223.257 2263.83 224.398C2263.83 225.538 2263.39 226.515 2262.53 227.327C2261.68 228.139 2260.66 228.545 2259.47 228.545ZM2279.8 251.047V275H2273.68V235.182H2279.59V241.403H2280.11C2281.05 239.381 2282.46 237.757 2284.36 236.53C2286.27 235.286 2288.72 234.663 2291.73 234.663C2294.42 234.663 2296.78 235.216 2298.8 236.322C2300.83 237.411 2302.4 239.07 2303.52 241.3C2304.64 243.512 2305.21 246.312 2305.21 249.699V275H2299.09V250.114C2299.09 246.986 2298.28 244.549 2296.65 242.803C2295.03 241.04 2292.8 240.159 2289.96 240.159C2288.01 240.159 2286.27 240.583 2284.73 241.429C2283.21 242.276 2282.01 243.512 2281.12 245.136C2280.24 246.761 2279.8 248.731 2279.8 251.047ZM2341.48 258.72V235.182H2347.6V275H2341.48V268.26H2341.07C2340.13 270.282 2338.68 272.002 2336.71 273.419C2334.74 274.819 2332.25 275.518 2329.24 275.518C2326.76 275.518 2324.54 274.974 2322.61 273.885C2320.67 272.779 2319.15 271.12 2318.05 268.908C2316.94 266.679 2316.39 263.87 2316.39 260.483V235.182H2322.5V260.068C2322.5 262.972 2323.32 265.287 2324.94 267.016C2326.58 268.744 2328.67 269.608 2331.21 269.608C2332.74 269.608 2334.28 269.219 2335.85 268.441C2337.44 267.664 2338.78 266.471 2339.85 264.864C2340.94 263.257 2341.48 261.209 2341.48 258.72ZM2376.12 235.182V240.366H2355.48V235.182H2376.12ZM2361.5 225.642H2367.62V263.594C2367.62 265.322 2367.87 266.618 2368.37 267.482C2368.89 268.329 2369.54 268.899 2370.34 269.193C2371.15 269.47 2372.01 269.608 2372.91 269.608C2373.58 269.608 2374.13 269.573 2374.56 269.504C2375 269.418 2375.34 269.349 2375.6 269.297L2376.85 274.793C2376.43 274.948 2375.85 275.104 2375.11 275.259C2374.37 275.432 2373.42 275.518 2372.28 275.518C2370.55 275.518 2368.86 275.147 2367.2 274.404C2365.56 273.661 2364.2 272.529 2363.11 271.008C2362.03 269.487 2361.5 267.569 2361.5 265.253V225.642ZM2401.59 275.83C2397.75 275.83 2394.44 274.983 2391.66 273.289C2388.9 271.578 2386.76 269.193 2385.26 266.134C2383.77 263.058 2383.03 259.481 2383.03 255.402C2383.03 251.323 2383.77 247.729 2385.26 244.618C2386.76 241.49 2388.85 239.053 2391.53 237.308C2394.23 235.545 2397.37 234.663 2400.97 234.663C2403.04 234.663 2405.09 235.009 2407.11 235.7C2409.13 236.392 2410.97 237.515 2412.63 239.07C2414.29 240.608 2415.61 242.648 2416.6 245.188C2417.58 247.729 2418.08 250.857 2418.08 254.572V257.165H2387.38V251.876H2411.86C2411.86 249.63 2411.41 247.625 2410.51 245.862C2409.63 244.099 2408.36 242.708 2406.72 241.689C2405.1 240.669 2403.18 240.159 2400.97 240.159C2398.53 240.159 2396.42 240.764 2394.64 241.974C2392.88 243.166 2391.52 244.722 2390.57 246.64C2389.62 248.558 2389.15 250.615 2389.15 252.81V256.335C2389.15 259.342 2389.66 261.891 2390.7 263.983C2391.76 266.056 2393.22 267.638 2395.08 268.727C2396.95 269.798 2399.12 270.334 2401.59 270.334C2403.2 270.334 2404.65 270.109 2405.94 269.66C2407.26 269.193 2408.39 268.502 2409.34 267.586C2410.29 266.653 2411.03 265.495 2411.54 264.112L2417.45 265.771C2416.83 267.776 2415.79 269.539 2414.32 271.06C2412.85 272.563 2411.03 273.738 2408.87 274.585C2406.71 275.415 2404.29 275.83 2401.59 275.83ZM2455.59 244.099L2450.09 245.655C2449.75 244.739 2449.24 243.849 2448.56 242.985C2447.91 242.103 2447.01 241.377 2445.87 240.807C2444.73 240.237 2443.27 239.952 2441.49 239.952C2439.05 239.952 2437.02 240.513 2435.39 241.637C2433.79 242.743 2432.98 244.151 2432.98 245.862C2432.98 247.383 2433.54 248.584 2434.64 249.466C2435.75 250.347 2437.48 251.081 2439.83 251.669L2445.74 253.121C2449.3 253.985 2451.95 255.307 2453.7 257.087C2455.44 258.85 2456.31 261.122 2456.31 263.905C2456.31 266.186 2455.66 268.225 2454.34 270.023C2453.05 271.82 2451.23 273.237 2448.9 274.274C2446.57 275.311 2443.85 275.83 2440.76 275.83C2436.7 275.83 2433.34 274.948 2430.68 273.185C2428.01 271.423 2426.33 268.848 2425.62 265.46L2431.43 264.009C2431.98 266.152 2433.03 267.759 2434.56 268.83C2436.12 269.902 2438.15 270.438 2440.66 270.438C2443.51 270.438 2445.77 269.833 2447.45 268.623C2449.14 267.396 2449.99 265.927 2449.99 264.216C2449.99 262.833 2449.5 261.675 2448.54 260.742C2447.57 259.792 2446.08 259.083 2444.08 258.616L2437.44 257.061C2433.79 256.197 2431.12 254.858 2429.41 253.043C2427.71 251.211 2426.86 248.921 2426.86 246.173C2426.86 243.927 2427.5 241.939 2428.76 240.211C2430.04 238.483 2431.77 237.126 2433.97 236.141C2436.18 235.156 2438.69 234.663 2441.49 234.663C2445.43 234.663 2448.52 235.527 2450.77 237.256C2453.03 238.984 2454.64 241.265 2455.59 244.099ZM2497.77 275.933C2495.25 275.933 2492.96 275.458 2490.9 274.507C2488.85 273.54 2487.21 272.148 2486 270.334C2484.79 268.502 2484.19 266.29 2484.19 263.697C2484.19 261.416 2484.64 259.567 2485.54 258.15C2486.43 256.715 2487.64 255.592 2489.14 254.78C2490.64 253.968 2492.3 253.363 2494.12 252.965C2495.95 252.55 2497.79 252.222 2499.64 251.98C2502.06 251.669 2504.02 251.436 2505.52 251.28C2507.04 251.107 2508.15 250.822 2508.84 250.425C2509.55 250.027 2509.9 249.336 2509.9 248.351V248.143C2509.9 245.586 2509.2 243.598 2507.8 242.181C2506.42 240.764 2504.32 240.055 2501.5 240.055C2498.58 240.055 2496.29 240.695 2494.63 241.974C2492.98 243.253 2491.81 244.618 2491.13 246.07L2485.33 243.996C2486.37 241.576 2487.75 239.692 2489.48 238.344C2491.22 236.979 2493.12 236.029 2495.18 235.493C2497.25 234.94 2499.29 234.663 2501.3 234.663C2502.58 234.663 2504.04 234.819 2505.7 235.13C2507.38 235.424 2509 236.037 2510.55 236.971C2512.12 237.904 2513.43 239.312 2514.47 241.196C2515.5 243.08 2516.02 245.603 2516.02 248.766V275H2509.9V269.608H2509.59C2509.18 270.472 2508.49 271.397 2507.52 272.382C2506.55 273.367 2505.26 274.205 2503.66 274.896C2502.05 275.588 2500.09 275.933 2497.77 275.933ZM2498.7 270.438C2501.12 270.438 2503.16 269.962 2504.82 269.012C2506.5 268.061 2507.76 266.834 2508.61 265.331C2509.47 263.827 2509.9 262.246 2509.9 260.587V254.987C2509.64 255.298 2509.07 255.583 2508.19 255.843C2507.33 256.085 2506.33 256.301 2505.19 256.491C2504.06 256.664 2502.96 256.819 2501.89 256.957C2500.84 257.078 2499.98 257.182 2499.33 257.268C2497.74 257.476 2496.25 257.813 2494.87 258.279C2493.5 258.729 2492.4 259.411 2491.55 260.327C2490.72 261.226 2490.31 262.453 2490.31 264.009C2490.31 266.134 2491.09 267.741 2492.66 268.83C2494.25 269.902 2496.27 270.438 2498.7 270.438ZM2543.26 290.761C2540.3 290.761 2537.76 290.381 2535.64 289.621C2533.51 288.878 2531.74 287.893 2530.32 286.665C2528.92 285.456 2527.81 284.16 2526.98 282.777L2531.85 279.355C2532.41 280.081 2533.11 280.911 2533.95 281.844C2534.8 282.794 2535.96 283.615 2537.43 284.306C2538.91 285.015 2540.86 285.369 2543.26 285.369C2546.47 285.369 2549.13 284.592 2551.22 283.036C2553.31 281.481 2554.36 279.044 2554.36 275.726V267.638H2553.84C2553.39 268.364 2552.75 269.262 2551.92 270.334C2551.11 271.388 2549.93 272.33 2548.39 273.159C2546.87 273.972 2544.82 274.378 2542.22 274.378C2539.01 274.378 2536.12 273.617 2533.56 272.097C2531.02 270.576 2529.01 268.364 2527.52 265.46C2526.06 262.557 2525.32 259.031 2525.32 254.884C2525.32 250.805 2526.04 247.253 2527.47 244.229C2528.91 241.187 2530.9 238.837 2533.46 237.178C2536.02 235.502 2538.97 234.663 2542.33 234.663C2544.92 234.663 2546.98 235.095 2548.5 235.96C2550.03 236.806 2551.21 237.774 2552.02 238.863C2552.85 239.934 2553.49 240.816 2553.94 241.507H2554.56V235.182H2560.47V276.141C2560.47 279.562 2559.7 282.345 2558.14 284.488C2556.6 286.648 2554.53 288.23 2551.92 289.232C2549.33 290.252 2546.44 290.761 2543.26 290.761ZM2543.05 268.882C2545.51 268.882 2547.58 268.32 2549.27 267.197C2550.97 266.074 2552.26 264.458 2553.14 262.349C2554.02 260.241 2554.46 257.718 2554.46 254.78C2554.46 251.911 2554.03 249.379 2553.16 247.184C2552.3 244.989 2551.02 243.27 2549.33 242.026C2547.63 240.781 2545.54 240.159 2543.05 240.159C2540.46 240.159 2538.3 240.816 2536.57 242.129C2534.86 243.443 2533.57 245.205 2532.71 247.418C2531.86 249.63 2531.44 252.084 2531.44 254.78C2531.44 257.545 2531.87 259.99 2532.74 262.116C2533.62 264.225 2534.91 265.884 2536.62 267.093C2538.35 268.286 2540.5 268.882 2543.05 268.882ZM2587.85 275.83C2584.25 275.83 2581.1 274.974 2578.39 273.263C2575.69 271.552 2573.58 269.159 2572.06 266.082C2570.56 263.006 2569.81 259.411 2569.81 255.298C2569.81 251.151 2570.56 247.53 2572.06 244.436C2573.58 241.343 2575.69 238.941 2578.39 237.23C2581.1 235.519 2584.25 234.663 2587.85 234.663C2591.44 234.663 2594.59 235.519 2597.28 237.23C2600 238.941 2602.11 241.343 2603.61 244.436C2605.13 247.53 2605.89 251.151 2605.89 255.298C2605.89 259.411 2605.13 263.006 2603.61 266.082C2602.11 269.159 2600 271.552 2597.28 273.263C2594.59 274.974 2591.44 275.83 2587.85 275.83ZM2587.85 270.334C2590.58 270.334 2592.83 269.634 2594.59 268.234C2596.35 266.834 2597.66 264.994 2598.5 262.712C2599.35 260.431 2599.77 257.96 2599.77 255.298C2599.77 252.637 2599.35 250.157 2598.5 247.858C2597.66 245.56 2596.35 243.702 2594.59 242.285C2592.83 240.868 2590.58 240.159 2587.85 240.159C2585.12 240.159 2582.87 240.868 2581.11 242.285C2579.35 243.702 2578.04 245.56 2577.19 247.858C2576.35 250.157 2575.92 252.637 2575.92 255.298C2575.92 257.96 2576.35 260.431 2577.19 262.712C2578.04 264.994 2579.35 266.834 2581.11 268.234C2582.87 269.634 2585.12 270.334 2587.85 270.334Z" fill="#919191"/>
<path d="M726.828 286V211.091H747.165V240.352H774.085V211.091H794.422V286H774.085V256.739H747.165V286H726.828ZM802.03 227.477V211.091H867.136V227.477H844.605V286H824.561V227.477H802.03ZM915.171 234.5C914.976 232.062 914.061 230.16 912.427 228.794C910.818 227.429 908.367 226.746 905.076 226.746C902.978 226.746 901.259 227.002 899.918 227.514C898.601 228.002 897.626 228.672 896.992 229.526C896.358 230.379 896.029 231.354 896.005 232.452C895.956 233.354 896.114 234.171 896.48 234.902C896.87 235.609 897.48 236.256 898.309 236.841C899.138 237.402 900.199 237.914 901.491 238.377C902.783 238.84 904.32 239.255 906.1 239.621L912.245 240.938C916.39 241.815 919.938 242.974 922.888 244.412C925.839 245.851 928.253 247.546 930.131 249.496C932.008 251.423 933.386 253.593 934.264 256.007C935.166 258.421 935.629 261.055 935.654 263.908C935.629 268.833 934.398 273.003 931.959 276.417C929.521 279.831 926.034 282.428 921.498 284.208C916.987 285.988 911.562 286.878 905.222 286.878C898.711 286.878 893.03 285.915 888.177 283.988C883.349 282.062 879.594 279.099 876.911 275.1C874.254 271.077 872.912 265.932 872.888 259.665H892.201C892.322 261.957 892.896 263.883 893.92 265.444C894.944 267.004 896.382 268.187 898.236 268.992C900.113 269.797 902.344 270.199 904.929 270.199C907.099 270.199 908.916 269.931 910.379 269.394C911.842 268.858 912.952 268.114 913.708 267.163C914.464 266.212 914.854 265.127 914.878 263.908C914.854 262.762 914.476 261.762 913.744 260.908C913.037 260.031 911.867 259.25 910.233 258.567C908.599 257.86 906.392 257.202 903.612 256.592L896.151 254.983C889.518 253.544 884.288 251.142 880.459 247.777C876.655 244.388 874.766 239.767 874.79 233.915C874.766 229.16 876.034 225.002 878.594 221.442C881.179 217.858 884.751 215.066 889.311 213.066C893.895 211.067 899.15 210.067 905.076 210.067C911.123 210.067 916.353 211.079 920.767 213.103C925.181 215.127 928.582 217.98 930.972 221.662C933.386 225.319 934.605 229.599 934.63 234.5H915.171ZM963.909 286V211.091H984.246V240.352H1011.17V211.091H1031.5V286H1011.17V256.739H984.246V286H963.909ZM1068.37 287.024C1062.37 287.024 1057.2 285.878 1052.86 283.586C1048.55 281.269 1045.22 277.953 1042.88 273.637C1040.56 269.297 1039.4 264.103 1039.4 258.055C1039.4 252.252 1040.57 247.18 1042.91 242.839C1045.26 238.499 1048.56 235.122 1052.83 232.708C1057.09 230.294 1062.13 229.087 1067.93 229.087C1072.18 229.087 1076.02 229.745 1079.45 231.062C1082.89 232.379 1085.83 234.293 1088.27 236.804C1090.71 239.292 1092.59 242.315 1093.9 245.875C1095.22 249.435 1095.88 253.447 1095.88 257.909V262.591H1045.69V251.472H1077.3C1077.27 249.862 1076.86 248.448 1076.05 247.229C1075.27 245.985 1074.21 245.022 1072.87 244.339C1071.55 243.632 1070.05 243.278 1068.37 243.278C1066.74 243.278 1065.24 243.632 1063.87 244.339C1062.51 245.022 1061.41 245.973 1060.58 247.192C1059.78 248.411 1059.35 249.838 1059.3 251.472V263.469C1059.3 265.273 1059.68 266.883 1060.44 268.297C1061.19 269.711 1062.28 270.821 1063.69 271.625C1065.1 272.43 1066.81 272.832 1068.81 272.832C1070.2 272.832 1071.47 272.637 1072.62 272.247C1073.79 271.857 1074.79 271.296 1075.61 270.565C1076.44 269.809 1077.05 268.906 1077.44 267.858H1095.88C1095.24 271.759 1093.74 275.149 1091.38 278.026C1089.01 280.879 1085.88 283.098 1081.98 284.683C1078.1 286.244 1073.57 287.024 1068.37 287.024ZM1104.12 286V229.818H1123.72V240.499H1124.31C1125.33 236.548 1126.95 233.659 1129.17 231.83C1131.42 230.001 1134.04 229.087 1137.04 229.087C1137.91 229.087 1138.78 229.16 1139.63 229.306C1140.51 229.428 1141.35 229.611 1142.16 229.855V247.082C1141.16 246.741 1139.93 246.485 1138.46 246.314C1137 246.144 1135.74 246.058 1134.69 246.058C1132.72 246.058 1130.94 246.509 1129.35 247.412C1127.79 248.289 1126.56 249.533 1125.66 251.142C1124.76 252.727 1124.31 254.593 1124.31 256.739V286H1104.12ZM1172.62 287.024C1166.53 287.024 1161.31 285.817 1156.97 283.403C1152.63 280.965 1149.3 277.575 1146.98 273.235C1144.67 268.87 1143.51 263.81 1143.51 258.055C1143.51 252.301 1144.67 247.253 1146.98 242.913C1149.3 238.548 1152.63 235.158 1156.97 232.744C1161.31 230.306 1166.53 229.087 1172.62 229.087C1178.72 229.087 1183.94 230.306 1188.28 232.744C1192.62 235.158 1195.95 238.548 1198.27 242.913C1200.58 247.253 1201.74 252.301 1201.74 258.055C1201.74 263.81 1200.58 268.87 1198.27 273.235C1195.95 277.575 1192.62 280.965 1188.28 283.403C1183.94 285.817 1178.72 287.024 1172.62 287.024ZM1172.77 272.101C1174.48 272.101 1175.95 271.528 1177.2 270.382C1178.44 269.236 1179.4 267.602 1180.09 265.48C1180.77 263.359 1181.11 260.835 1181.11 257.909C1181.11 254.959 1180.77 252.435 1180.09 250.338C1179.4 248.216 1178.44 246.583 1177.2 245.436C1175.95 244.29 1174.48 243.717 1172.77 243.717C1170.97 243.717 1169.42 244.29 1168.13 245.436C1166.83 246.583 1165.85 248.216 1165.16 250.338C1164.48 252.435 1164.14 254.959 1164.14 257.909C1164.14 260.835 1164.48 263.359 1165.16 265.48C1165.85 267.602 1166.83 269.236 1168.13 270.382C1169.42 271.528 1170.97 272.101 1172.77 272.101Z" fill="#D6D6D6"/>
<rect x="194" y="186" width="400" height="400" rx="85" fill="#617BFF"/>
<rect x="242" y="292" width="303" height="186" rx="34" fill="#D9D9D9"/>
<path d="M556.523 487L394.5 368L232 487" stroke="#617BFF" stroke-width="6" stroke-linecap="round"/>
<rect x="367.999" y="358" width="51" height="28" fill="#D9D9D9"/>
<path d="M233.575 285L375.611 389.15C386.858 397.397 402.151 397.41 413.412 389.182L555.998 285" stroke="#617BFF" stroke-width="6" stroke-linecap="round"/>
<defs>
<filter id="filter0_d_771_736" x="0" y="0" width="2804" height="772" filterUnits="userSpaceOnUse" color-interpolation-filters="sRGB">
<feFlood flood-opacity="0" result="BackgroundImageFix"/>
<feColorMatrix in="SourceAlpha" type="matrix" values="0 0 0 0 0 0 0 0 0 0 0 0 0 0 0 0 0 0 127 0" result="hardAlpha"/>
<feMorphology radius="21" operator="dilate" in="SourceAlpha" result="effect1_dropShadow_771_736"/>
<feOffset/>
<feGaussianBlur stdDeviation="28"/>
<feComposite in2="hardAlpha" operator="out"/>
<feColorMatrix type="matrix" values="0 0 0 0 0.37863 0 0 0 0 0.482191 0 0 0 0 1 0 0 0 1 0"/>
<feBlend mode="normal" in2="BackgroundImageFix" result="effect1_dropShadow_771_736"/>
<feBlend mode="normal" in="SourceGraphic" in2="effect1_dropShadow_771_736" result="shape"/>
</filter>
</defs>
</svg>
