<svg width="3056" height="1024" viewBox="0 0 3056 1024" fill="none" xmlns="http://www.w3.org/2000/svg">
<g filter="url(#filter0_d_768_762)">
<rect x="203" y="203" width="2650" height="618" rx="150" fill="#202020"/>
</g>
<path d="M917.469 497.091V572H903.79L871.2 524.853H870.651V572H854.813V497.091H868.713L901.046 544.202H901.705V497.091H917.469ZM955.866 573.097C950.087 573.097 945.112 571.927 940.942 569.586C936.797 567.221 933.603 563.88 931.359 559.564C929.116 555.223 927.994 550.091 927.994 544.165C927.994 538.386 929.116 533.314 931.359 528.949C933.603 524.584 936.76 521.183 940.833 518.744C944.929 516.306 949.733 515.087 955.244 515.087C958.95 515.087 962.401 515.684 965.595 516.879C968.814 518.049 971.618 519.817 974.008 522.183C976.422 524.548 978.299 527.523 979.641 531.107C980.982 534.667 981.652 538.837 981.652 543.616V547.896H934.212V538.24H966.985C966.985 535.996 966.497 534.009 965.522 532.278C964.547 530.546 963.193 529.193 961.462 528.218C959.755 527.218 957.768 526.718 955.5 526.718C953.135 526.718 951.038 527.267 949.209 528.364C947.404 529.437 945.99 530.888 944.966 532.717C943.942 534.521 943.417 536.533 943.393 538.752V547.933C943.393 550.712 943.905 553.114 944.929 555.138C945.978 557.162 947.453 558.723 949.355 559.82C951.257 560.917 953.513 561.466 956.122 561.466C957.853 561.466 959.438 561.222 960.877 560.734C962.315 560.247 963.547 559.515 964.571 558.54C965.595 557.564 966.375 556.37 966.912 554.955L981.323 555.906C980.592 559.369 979.092 562.393 976.824 564.977C974.581 567.538 971.679 569.537 968.119 570.976C964.583 572.39 960.499 573.097 955.866 573.097ZM1002.5 572L987.212 515.818H1002.98L1011.68 553.565H1012.19L1021.26 515.818H1036.74L1045.95 553.346H1046.43L1054.99 515.818H1070.72L1055.46 572H1038.97L1029.31 536.667H1028.62L1018.96 572H1002.5ZM1100.31 510.149V497.091H1161.83V510.149H1138.9V572H1123.24V510.149H1100.31ZM1180.04 573.061C1176.46 573.061 1173.27 572.439 1170.46 571.195C1167.66 569.927 1165.44 568.062 1163.8 565.599C1162.19 563.112 1161.39 560.015 1161.39 556.309C1161.39 553.187 1161.96 550.566 1163.11 548.445C1164.26 546.323 1165.82 544.616 1167.79 543.324C1169.77 542.031 1172.01 541.056 1174.52 540.398C1177.06 539.739 1179.72 539.276 1182.49 539.008C1185.76 538.666 1188.4 538.349 1190.4 538.057C1192.4 537.74 1193.85 537.277 1194.75 536.667C1195.65 536.057 1196.1 535.155 1196.1 533.96V533.741C1196.1 531.424 1195.37 529.632 1193.91 528.364C1192.47 527.096 1190.42 526.462 1187.76 526.462C1184.96 526.462 1182.73 527.084 1181.07 528.327C1179.41 529.547 1178.31 531.083 1177.78 532.936L1163.37 531.766C1164.1 528.352 1165.54 525.401 1167.68 522.914C1169.83 520.402 1172.59 518.476 1175.98 517.135C1179.4 515.769 1183.35 515.087 1187.84 515.087C1190.96 515.087 1193.94 515.452 1196.8 516.184C1199.67 516.915 1202.22 518.049 1204.44 519.586C1206.68 521.122 1208.45 523.097 1209.74 525.511C1211.04 527.901 1211.68 530.766 1211.68 534.107V572H1196.91V564.209H1196.47C1195.57 565.965 1194.36 567.513 1192.85 568.854C1191.33 570.171 1189.52 571.208 1187.4 571.963C1185.27 572.695 1182.82 573.061 1180.04 573.061ZM1184.51 562.307C1186.8 562.307 1188.82 561.856 1190.58 560.954C1192.33 560.027 1193.71 558.784 1194.71 557.223C1195.71 555.662 1196.21 553.895 1196.21 551.919V545.957C1195.72 546.274 1195.05 546.567 1194.2 546.835C1193.37 547.079 1192.43 547.311 1191.38 547.53C1190.33 547.725 1189.29 547.908 1188.24 548.079C1187.19 548.225 1186.24 548.359 1185.38 548.481C1183.56 548.749 1181.96 549.176 1180.59 549.761C1179.23 550.347 1178.17 551.139 1177.41 552.139C1176.65 553.114 1176.28 554.333 1176.28 555.797C1176.28 557.918 1177.05 559.54 1178.58 560.661C1180.14 561.759 1182.12 562.307 1184.51 562.307ZM1223.77 572V515.818H1238.88V525.621H1239.46C1240.49 522.134 1242.21 519.5 1244.62 517.72C1247.03 515.916 1249.81 515.013 1252.96 515.013C1253.74 515.013 1254.58 515.062 1255.48 515.16C1256.39 515.257 1257.18 515.391 1257.86 515.562V529.388C1257.13 529.169 1256.12 528.974 1254.83 528.803C1253.53 528.632 1252.35 528.547 1251.28 528.547C1248.99 528.547 1246.94 529.047 1245.13 530.047C1243.35 531.022 1241.94 532.387 1240.89 534.143C1239.87 535.899 1239.35 537.923 1239.35 540.215V572H1223.77ZM1265.92 572V515.818H1281.5V572H1265.92ZM1273.74 508.576C1271.43 508.576 1269.44 507.808 1267.78 506.272C1266.15 504.711 1265.33 502.846 1265.33 500.675C1265.33 498.53 1266.15 496.689 1267.78 495.152C1269.44 493.592 1271.43 492.811 1273.74 492.811C1276.06 492.811 1278.04 493.592 1279.67 495.152C1281.33 496.689 1282.16 498.53 1282.16 500.675C1282.16 502.846 1281.33 504.711 1279.67 506.272C1278.04 507.808 1276.06 508.576 1273.74 508.576ZM1324.19 515.818V527.523H1289.52V515.818H1324.19ZM1297.46 572V511.758C1297.46 507.686 1298.25 504.309 1299.83 501.626C1301.44 498.944 1303.64 496.932 1306.42 495.591C1309.2 494.25 1312.35 493.58 1315.89 493.58C1318.28 493.58 1320.46 493.762 1322.44 494.128C1324.44 494.494 1325.92 494.823 1326.9 495.116L1324.12 506.82C1323.51 506.625 1322.75 506.442 1321.85 506.272C1320.97 506.101 1320.07 506.016 1319.15 506.016C1316.85 506.016 1315.26 506.552 1314.35 507.625C1313.45 508.674 1313 510.149 1313 512.051V572H1297.46ZM1363.92 515.818V527.523H1329.25V515.818H1363.92ZM1337.19 572V511.758C1337.19 507.686 1337.98 504.309 1339.56 501.626C1341.17 498.944 1343.37 496.932 1346.15 495.591C1348.93 494.25 1352.09 493.58 1355.62 493.58C1358.01 493.58 1360.19 493.762 1362.17 494.128C1364.17 494.494 1365.66 494.823 1366.63 495.116L1363.85 506.82C1363.24 506.625 1362.49 506.442 1361.58 506.272C1360.71 506.101 1359.8 506.016 1358.88 506.016C1356.58 506.016 1354.99 506.552 1354.09 507.625C1353.18 508.674 1352.73 510.149 1352.73 512.051V572H1337.19ZM1418.38 531.839L1404.11 532.717C1403.87 531.497 1403.35 530.4 1402.54 529.425C1401.74 528.425 1400.67 527.632 1399.36 527.047C1398.07 526.438 1396.52 526.133 1394.71 526.133C1392.3 526.133 1390.26 526.645 1388.6 527.669C1386.95 528.669 1386.12 530.01 1386.12 531.692C1386.12 533.034 1386.65 534.167 1387.73 535.094C1388.8 536.021 1390.64 536.764 1393.25 537.325L1403.42 539.374C1408.88 540.495 1412.95 542.3 1415.63 544.787C1418.32 547.274 1419.66 550.542 1419.66 554.589C1419.66 558.272 1418.57 561.502 1416.4 564.282C1414.26 567.062 1411.31 569.232 1407.55 570.793C1403.82 572.329 1399.52 573.097 1394.64 573.097C1387.2 573.097 1381.28 571.549 1376.86 568.452C1372.47 565.331 1369.9 561.088 1369.15 555.723L1384.47 554.919C1384.93 557.186 1386.06 558.918 1387.84 560.113C1389.62 561.283 1391.9 561.868 1394.68 561.868C1397.41 561.868 1399.6 561.344 1401.26 560.295C1402.94 559.223 1403.8 557.845 1403.82 556.162C1403.8 554.748 1403.2 553.59 1402.03 552.688C1400.86 551.761 1399.05 551.054 1396.61 550.566L1386.89 548.627C1381.4 547.53 1377.31 545.628 1374.63 542.922C1371.97 540.215 1370.65 536.764 1370.65 532.57C1370.65 528.961 1371.62 525.852 1373.57 523.243C1375.55 520.634 1378.31 518.622 1381.87 517.208C1385.46 515.794 1389.65 515.087 1394.46 515.087C1401.55 515.087 1407.14 516.586 1411.21 519.586C1415.31 522.585 1417.7 526.669 1418.38 531.839ZM1466.51 572H1449.54L1475.4 497.091H1495.81L1521.63 572H1504.66L1485.9 514.209H1485.31L1466.51 572ZM1465.45 542.556H1505.54V554.919H1465.45V542.556ZM1559.56 515.818V527.523H1524.89V515.818H1559.56ZM1532.83 572V511.758C1532.83 507.686 1533.62 504.309 1535.2 501.626C1536.81 498.944 1539.01 496.932 1541.79 495.591C1544.57 494.25 1547.73 493.58 1551.26 493.58C1553.65 493.58 1555.83 493.762 1557.81 494.128C1559.81 494.494 1561.3 494.823 1562.27 495.116L1559.49 506.82C1558.88 506.625 1558.13 506.442 1557.22 506.272C1556.35 506.101 1555.44 506.016 1554.52 506.016C1552.22 506.016 1550.63 506.552 1549.73 507.625C1548.82 508.674 1548.37 510.149 1548.37 512.051V572H1532.83ZM1599.3 515.818V527.523H1564.62V515.818H1599.3ZM1572.56 572V511.758C1572.56 507.686 1573.35 504.309 1574.94 501.626C1576.54 498.944 1578.74 496.932 1581.52 495.591C1584.3 494.25 1587.46 493.58 1590.99 493.58C1593.38 493.58 1595.56 493.762 1597.54 494.128C1599.54 494.494 1601.03 494.823 1602 495.116L1599.22 506.82C1598.61 506.625 1597.86 506.442 1596.95 506.272C1596.08 506.101 1595.17 506.016 1594.25 506.016C1591.96 506.016 1590.36 506.552 1589.46 507.625C1588.55 508.674 1588.1 510.149 1588.1 512.051V572H1572.56ZM1632.41 573.097C1626.63 573.097 1621.65 571.927 1617.48 569.586C1613.34 567.221 1610.14 563.88 1607.9 559.564C1605.66 555.223 1604.54 550.091 1604.54 544.165C1604.54 538.386 1605.66 533.314 1607.9 528.949C1610.14 524.584 1613.3 521.183 1617.37 518.744C1621.47 516.306 1626.27 515.087 1631.78 515.087C1635.49 515.087 1638.94 515.684 1642.14 516.879C1645.35 518.049 1648.16 519.817 1650.55 522.183C1652.96 524.548 1654.84 527.523 1656.18 531.107C1657.52 534.667 1658.19 538.837 1658.19 543.616V547.896H1610.75V538.24H1643.53C1643.53 535.996 1643.04 534.009 1642.06 532.278C1641.09 530.546 1639.73 529.193 1638 528.218C1636.3 527.218 1634.31 526.718 1632.04 526.718C1629.68 526.718 1627.58 527.267 1625.75 528.364C1623.95 529.437 1622.53 530.888 1621.51 532.717C1620.48 534.521 1619.96 536.533 1619.93 538.752V547.933C1619.93 550.712 1620.45 553.114 1621.47 555.138C1622.52 557.162 1623.99 558.723 1625.9 559.82C1627.8 560.917 1630.05 561.466 1632.66 561.466C1634.39 561.466 1635.98 561.222 1637.42 560.734C1638.86 560.247 1640.09 559.515 1641.11 558.54C1642.14 557.564 1642.92 556.37 1643.45 554.955L1657.86 555.906C1657.13 559.369 1655.63 562.393 1653.37 564.977C1651.12 567.538 1648.22 569.537 1644.66 570.976C1641.12 572.39 1637.04 573.097 1632.41 573.097ZM1693.75 573.097C1687.99 573.097 1683.04 571.878 1678.9 569.44C1674.77 566.977 1671.6 563.563 1669.39 559.198C1667.19 554.833 1666.09 549.81 1666.09 544.129C1666.09 538.374 1667.2 533.326 1669.42 528.986C1671.67 524.621 1674.85 521.219 1678.97 518.781C1683.09 516.318 1687.99 515.087 1693.67 515.087C1698.57 515.087 1702.87 515.977 1706.55 517.757C1710.23 519.537 1713.14 522.036 1715.29 525.255C1717.44 528.474 1718.62 532.253 1718.84 536.594H1704.13C1703.72 533.79 1702.62 531.534 1700.84 529.827C1699.09 528.096 1696.78 527.23 1693.93 527.23C1691.51 527.23 1689.41 527.888 1687.6 529.205C1685.82 530.498 1684.43 532.387 1683.43 534.875C1682.43 537.362 1681.93 540.373 1681.93 543.909C1681.93 547.494 1682.42 550.542 1683.39 553.053C1684.39 555.565 1685.8 557.479 1687.6 558.796C1689.41 560.113 1691.51 560.771 1693.93 560.771C1695.71 560.771 1697.31 560.405 1698.72 559.674C1700.16 558.942 1701.34 557.881 1702.27 556.491C1703.22 555.077 1703.84 553.382 1704.13 551.407H1718.84C1718.59 555.699 1717.42 559.479 1715.33 562.746C1713.25 565.989 1710.39 568.525 1706.73 570.354C1703.07 572.183 1698.74 573.097 1693.75 573.097ZM1758.7 515.818V527.523H1724.86V515.818H1758.7ZM1732.54 502.358H1748.13V554.736C1748.13 556.174 1748.35 557.296 1748.78 558.101C1749.22 558.881 1749.83 559.43 1750.61 559.747C1751.42 560.064 1752.34 560.222 1753.39 560.222C1754.12 560.222 1754.86 560.161 1755.59 560.039C1756.32 559.893 1756.88 559.783 1757.27 559.71L1759.72 571.305C1758.94 571.549 1757.84 571.829 1756.43 572.146C1755.01 572.488 1753.3 572.695 1751.27 572.768C1747.52 572.914 1744.22 572.415 1741.4 571.268C1738.59 570.122 1736.41 568.342 1734.85 565.928C1733.29 563.514 1732.52 560.466 1732.54 556.784V502.358ZM1825.13 497.091V572H1809.29V512.124H1808.85L1791.7 522.877V508.832L1810.24 497.091H1825.13ZM1841.8 558.832V546.36L1873.07 497.091H1883.83V514.355H1877.46L1857.75 545.555V546.14H1902.19V558.832H1841.8ZM1877.75 572V555.028L1878.05 549.505V497.091H1892.9V572H1877.75ZM1962.11 573.097C1956.43 573.097 1951.51 571.89 1947.37 569.476C1943.25 567.038 1940.07 563.648 1937.82 559.308C1935.58 554.943 1934.46 549.883 1934.46 544.129C1934.46 538.325 1935.58 533.253 1937.82 528.913C1940.07 524.548 1943.25 521.158 1947.37 518.744C1951.51 516.306 1956.43 515.087 1962.11 515.087C1967.79 515.087 1972.69 516.306 1976.81 518.744C1980.96 521.158 1984.15 524.548 1986.4 528.913C1988.64 533.253 1989.76 538.325 1989.76 544.129C1989.76 549.883 1988.64 554.943 1986.4 559.308C1984.15 563.648 1980.96 567.038 1976.81 569.476C1972.69 571.89 1967.79 573.097 1962.11 573.097ZM1962.18 561.027C1964.77 561.027 1966.93 560.295 1968.66 558.832C1970.39 557.345 1971.69 555.321 1972.57 552.761C1973.47 550.2 1973.92 547.286 1973.92 544.019C1973.92 540.751 1973.47 537.837 1972.57 535.277C1971.69 532.717 1970.39 530.693 1968.66 529.205C1966.93 527.718 1964.77 526.974 1962.18 526.974C1959.57 526.974 1957.38 527.718 1955.6 529.205C1953.84 530.693 1952.51 532.717 1951.61 535.277C1950.73 537.837 1950.29 540.751 1950.29 544.019C1950.29 547.286 1950.73 550.2 1951.61 552.761C1952.51 555.321 1953.84 557.345 1955.6 558.832C1957.38 560.295 1959.57 561.027 1962.18 561.027ZM2030.11 515.818V527.523H1995.43V515.818H2030.11ZM2003.37 572V511.758C2003.37 507.686 2004.16 504.309 2005.75 501.626C2007.35 498.944 2009.55 496.932 2012.33 495.591C2015.11 494.25 2018.27 493.58 2021.8 493.58C2024.19 493.58 2026.37 493.762 2028.35 494.128C2030.35 494.494 2031.84 494.823 2032.81 495.116L2030.03 506.82C2029.42 506.625 2028.67 506.442 2027.76 506.272C2026.89 506.101 2025.98 506.016 2025.06 506.016C2022.77 506.016 2021.17 506.552 2020.27 507.625C2019.36 508.674 2018.91 510.149 2018.91 512.051V572H2003.37ZM2073.08 593.068C2071.11 593.068 2069.25 592.91 2067.52 592.593C2065.82 592.3 2064.4 591.922 2063.28 591.459L2066.79 579.827C2068.62 580.388 2070.27 580.693 2071.73 580.742C2073.22 580.791 2074.5 580.449 2075.57 579.718C2076.67 578.986 2077.56 577.743 2078.24 575.987L2079.15 573.609L2059 515.818H2075.39L2087.02 557.077H2087.6L2099.34 515.818H2115.84L2094 578.072C2092.96 581.095 2091.53 583.729 2089.73 585.972C2087.95 588.24 2085.69 589.984 2082.96 591.203C2080.23 592.446 2076.94 593.068 2073.08 593.068ZM2147.39 573.097C2141.71 573.097 2136.79 571.89 2132.65 569.476C2128.53 567.038 2125.34 563.648 2123.1 559.308C2120.86 554.943 2119.74 549.883 2119.74 544.129C2119.74 538.325 2120.86 533.253 2123.1 528.913C2125.34 524.548 2128.53 521.158 2132.65 518.744C2136.79 516.306 2141.71 515.087 2147.39 515.087C2153.07 515.087 2157.97 516.306 2162.09 518.744C2166.24 521.158 2169.43 524.548 2171.68 528.913C2173.92 533.253 2175.04 538.325 2175.04 544.129C2175.04 549.883 2173.92 554.943 2171.68 559.308C2169.43 563.648 2166.24 567.038 2162.09 569.476C2157.97 571.89 2153.07 573.097 2147.39 573.097ZM2147.46 561.027C2150.05 561.027 2152.2 560.295 2153.94 558.832C2155.67 557.345 2156.97 555.321 2157.85 552.761C2158.75 550.2 2159.2 547.286 2159.2 544.019C2159.2 540.751 2158.75 537.837 2157.85 535.277C2156.97 532.717 2155.67 530.693 2153.94 529.205C2152.2 527.718 2150.05 526.974 2147.46 526.974C2144.85 526.974 2142.66 527.718 2140.88 529.205C2139.12 530.693 2137.79 532.717 2136.89 535.277C2136.01 537.837 2135.57 540.751 2135.57 544.019C2135.57 547.286 2136.01 550.2 2136.89 552.761C2137.79 555.321 2139.12 557.345 2140.88 558.832C2142.66 560.295 2144.85 561.027 2147.46 561.027ZM2221.2 548.079V515.818H2236.78V572H2221.82V561.795H2221.24C2219.97 565.087 2217.86 567.733 2214.91 569.732C2211.98 571.732 2208.41 572.732 2204.19 572.732C2200.44 572.732 2197.13 571.878 2194.28 570.171C2191.43 568.464 2189.2 566.038 2187.59 562.892C2186 559.747 2185.2 555.979 2185.17 551.59V515.818H2200.75V548.81C2200.78 552.127 2201.67 554.748 2203.42 556.674C2205.18 558.601 2207.53 559.564 2210.48 559.564C2212.36 559.564 2214.12 559.137 2215.75 558.284C2217.38 557.406 2218.7 556.114 2219.7 554.407C2220.72 552.7 2221.22 550.59 2221.2 548.079ZM2249.25 572V515.818H2264.35V525.621H2264.94C2265.96 522.134 2267.68 519.5 2270.09 517.72C2272.51 515.916 2275.29 515.013 2278.43 515.013C2279.21 515.013 2280.06 515.062 2280.96 515.16C2281.86 515.257 2282.65 515.391 2283.33 515.562V529.388C2282.6 529.169 2281.59 528.974 2280.3 528.803C2279.01 528.632 2277.82 528.547 2276.75 528.547C2274.46 528.547 2272.41 529.047 2270.61 530.047C2268.83 531.022 2267.41 532.387 2266.36 534.143C2265.34 535.899 2264.83 537.923 2264.83 540.215V572H2249.25ZM2331.36 497.091V572H2315.52V497.091H2331.36ZM2344.1 572V515.818H2358.95V525.73H2359.61C2360.78 522.439 2362.73 519.842 2365.46 517.94C2368.19 516.038 2371.46 515.087 2375.26 515.087C2379.11 515.087 2382.39 516.05 2385.1 517.976C2387.81 519.878 2389.61 522.463 2390.51 525.73H2391.1C2392.25 522.512 2394.32 519.939 2397.32 518.013C2400.34 516.062 2403.91 515.087 2408.03 515.087C2413.28 515.087 2417.53 516.757 2420.8 520.098C2424.09 523.414 2425.74 528.12 2425.74 534.216V572H2410.19V537.289C2410.19 534.167 2409.36 531.827 2407.7 530.266C2406.05 528.705 2403.97 527.925 2401.49 527.925C2398.66 527.925 2396.45 528.827 2394.87 530.632C2393.28 532.412 2392.49 534.765 2392.49 537.691V572H2377.38V536.96C2377.38 534.204 2376.59 532.009 2375.01 530.376C2373.44 528.742 2371.38 527.925 2368.82 527.925C2367.09 527.925 2365.53 528.364 2364.14 529.242C2362.78 530.095 2361.69 531.302 2360.89 532.863C2360.08 534.399 2359.68 536.204 2359.68 538.276V572H2344.1ZM2438.05 593.068V515.818H2453.41V525.255H2454.1C2454.79 523.743 2455.77 522.207 2457.07 520.646C2458.38 519.061 2460.09 517.745 2462.19 516.696C2464.31 515.623 2466.94 515.087 2470.09 515.087C2474.18 515.087 2477.96 516.16 2481.43 518.305C2484.89 520.427 2487.66 523.633 2489.73 527.925C2491.8 532.192 2492.84 537.545 2492.84 543.982C2492.84 550.249 2491.83 555.54 2489.8 559.857C2487.8 564.148 2485.07 567.404 2481.61 569.623C2478.17 571.817 2474.32 572.914 2470.05 572.914C2467.03 572.914 2464.45 572.415 2462.33 571.415C2460.24 570.415 2458.52 569.159 2457.17 567.647C2455.83 566.111 2454.81 564.563 2454.1 563.002H2453.63V593.068H2438.05ZM2453.3 543.909C2453.3 547.25 2453.76 550.164 2454.69 552.651C2455.61 555.138 2456.96 557.077 2458.71 558.467C2460.47 559.832 2462.6 560.515 2465.11 560.515C2467.65 560.515 2469.79 559.82 2471.55 558.43C2473.31 557.016 2474.63 555.065 2475.54 552.578C2476.46 550.066 2476.93 547.177 2476.93 543.909C2476.93 540.666 2476.48 537.813 2475.57 535.35C2474.67 532.887 2473.34 530.961 2471.59 529.571C2469.83 528.181 2467.67 527.486 2465.11 527.486C2462.58 527.486 2460.43 528.157 2458.67 529.498C2456.94 530.839 2455.61 532.741 2454.69 535.204C2453.76 537.667 2453.3 540.568 2453.3 543.909ZM2528.61 573.097C2522.93 573.097 2518.01 571.89 2513.87 569.476C2509.75 567.038 2506.57 563.648 2504.32 559.308C2502.08 554.943 2500.96 549.883 2500.96 544.129C2500.96 538.325 2502.08 533.253 2504.32 528.913C2506.57 524.548 2509.75 521.158 2513.87 518.744C2518.01 516.306 2522.93 515.087 2528.61 515.087C2534.29 515.087 2539.19 516.306 2543.31 518.744C2547.46 521.158 2550.65 524.548 2552.9 528.913C2555.14 533.253 2556.26 538.325 2556.26 544.129C2556.26 549.883 2555.14 554.943 2552.9 559.308C2550.65 563.648 2547.46 567.038 2543.31 569.476C2539.19 571.89 2534.29 573.097 2528.61 573.097ZM2528.68 561.027C2531.27 561.027 2533.43 560.295 2535.16 558.832C2536.89 557.345 2538.19 555.321 2539.07 552.761C2539.97 550.2 2540.42 547.286 2540.42 544.019C2540.42 540.751 2539.97 537.837 2539.07 535.277C2538.19 532.717 2536.89 530.693 2535.16 529.205C2533.43 527.718 2531.27 526.974 2528.68 526.974C2526.07 526.974 2523.88 527.718 2522.1 529.205C2520.34 530.693 2519.01 532.717 2518.11 535.277C2517.23 537.837 2516.79 540.751 2516.79 544.019C2516.79 547.286 2517.23 550.2 2518.11 552.761C2519.01 555.321 2520.34 557.345 2522.1 558.832C2523.88 560.295 2526.07 561.027 2528.68 561.027ZM2566.39 572V515.818H2581.5V525.621H2582.08C2583.11 522.134 2584.83 519.5 2587.24 517.72C2589.66 515.916 2592.44 515.013 2595.58 515.013C2596.36 515.013 2597.2 515.062 2598.1 515.16C2599.01 515.257 2599.8 515.391 2600.48 515.562V529.388C2599.75 529.169 2598.74 528.974 2597.45 528.803C2596.15 528.632 2594.97 528.547 2593.9 528.547C2591.61 528.547 2589.56 529.047 2587.75 530.047C2585.97 531.022 2584.56 532.387 2583.51 534.143C2582.49 535.899 2581.97 537.923 2581.97 540.215V572H2566.39ZM2641.24 515.818V527.523H2607.4V515.818H2641.24ZM2615.09 502.358H2630.67V554.736C2630.67 556.174 2630.89 557.296 2631.33 558.101C2631.76 558.881 2632.37 559.43 2633.15 559.747C2633.96 560.064 2634.89 560.222 2635.93 560.222C2636.67 560.222 2637.4 560.161 2638.13 560.039C2638.86 559.893 2639.42 559.783 2639.81 559.71L2642.26 571.305C2641.48 571.549 2640.38 571.829 2638.97 572.146C2637.56 572.488 2635.84 572.695 2633.81 572.768C2630.06 572.914 2626.77 572.415 2623.94 571.268C2621.13 570.122 2618.95 568.342 2617.39 565.928C2615.83 563.514 2615.06 560.466 2615.09 556.784V502.358ZM2697.43 531.839L2683.16 532.717C2682.92 531.497 2682.4 530.4 2681.59 529.425C2680.79 528.425 2679.73 527.632 2678.41 527.047C2677.12 526.438 2675.57 526.133 2673.76 526.133C2671.35 526.133 2669.31 526.645 2667.66 527.669C2666 528.669 2665.17 530.01 2665.17 531.692C2665.17 533.034 2665.7 534.167 2666.78 535.094C2667.85 536.021 2669.69 536.764 2672.3 537.325L2682.47 539.374C2687.93 540.495 2692 542.3 2694.69 544.787C2697.37 547.274 2698.71 550.542 2698.71 554.589C2698.71 558.272 2697.62 561.502 2695.45 564.282C2693.31 567.062 2690.36 569.232 2686.6 570.793C2682.87 572.329 2678.57 573.097 2673.69 573.097C2666.25 573.097 2660.33 571.549 2655.91 568.452C2651.53 565.331 2648.95 561.088 2648.2 555.723L2663.52 554.919C2663.99 557.186 2665.11 558.918 2666.89 560.113C2668.67 561.283 2670.95 561.868 2673.73 561.868C2676.46 561.868 2678.65 561.344 2680.31 560.295C2681.99 559.223 2682.85 557.845 2682.87 556.162C2682.85 554.748 2682.25 553.59 2681.08 552.688C2679.91 551.761 2678.1 551.054 2675.67 550.566L2665.94 548.627C2660.45 547.53 2656.37 545.628 2653.68 542.922C2651.03 540.215 2649.7 536.764 2649.7 532.57C2649.7 528.961 2650.67 525.852 2652.62 523.243C2654.6 520.634 2657.37 518.622 2660.93 517.208C2664.51 515.794 2668.7 515.087 2673.51 515.087C2680.6 515.087 2686.19 516.586 2690.26 519.586C2694.36 522.585 2696.75 526.669 2697.43 531.839ZM2727.14 497.091L2725.71 549.542H2712.32L2710.86 497.091H2727.14ZM2719.02 572.951C2716.6 572.951 2714.53 572.098 2712.8 570.391C2711.07 568.659 2710.22 566.587 2710.24 564.173C2710.22 561.783 2711.07 559.735 2712.8 558.028C2714.53 556.321 2716.6 555.467 2719.02 555.467C2721.33 555.467 2723.37 556.321 2725.13 558.028C2726.88 559.735 2727.77 561.783 2727.8 564.173C2727.77 565.782 2727.35 567.257 2726.52 568.598C2725.71 569.915 2724.65 570.976 2723.33 571.781C2722.02 572.561 2720.58 572.951 2719.02 572.951Z" fill="#C9C9C9"/>
<path d="M891.236 640.455C890.857 637.252 889.318 634.766 886.621 632.996C883.924 631.226 880.616 630.341 876.697 630.341C873.832 630.341 871.325 630.804 869.175 631.732C867.047 632.659 865.383 633.933 864.182 635.556C863.002 637.178 862.412 639.022 862.412 641.087C862.412 642.814 862.823 644.3 863.645 645.543C864.487 646.765 865.562 647.787 866.868 648.609C868.175 649.409 869.544 650.073 870.977 650.6C872.41 651.105 873.727 651.516 874.928 651.832L881.501 653.602C883.187 654.045 885.062 654.656 887.127 655.435C889.213 656.215 891.204 657.279 893.1 658.627C895.018 659.955 896.598 661.662 897.841 663.748C899.084 665.833 899.706 668.393 899.706 671.428C899.706 674.925 898.789 678.086 896.956 680.909C895.144 683.732 892.489 685.976 888.992 687.641C885.515 689.306 881.291 690.138 876.318 690.138C871.683 690.138 867.669 689.39 864.277 687.894C860.905 686.398 858.251 684.312 856.312 681.636C854.395 678.96 853.31 675.852 853.057 672.312H861.148C861.358 674.757 862.18 676.779 863.613 678.381C865.067 679.961 866.9 681.141 869.112 681.92C871.346 682.679 873.748 683.058 876.318 683.058C879.31 683.058 881.997 682.574 884.377 681.604C886.758 680.614 888.644 679.245 890.035 677.496C891.425 675.726 892.121 673.661 892.121 671.301C892.121 669.152 891.52 667.403 890.319 666.055C889.118 664.706 887.538 663.611 885.578 662.768C883.619 661.925 881.501 661.187 879.226 660.555L871.261 658.28C866.205 656.826 862.201 654.751 859.251 652.054C856.302 649.357 854.827 645.827 854.827 641.466C854.827 637.842 855.806 634.681 857.766 631.984C859.747 629.266 862.401 627.159 865.73 625.663C869.081 624.146 872.821 623.388 876.95 623.388C881.122 623.388 884.83 624.136 888.075 625.632C891.32 627.107 893.891 629.129 895.787 631.7C897.704 634.27 898.716 637.189 898.821 640.455H891.236ZM931.935 690.011C927.258 690.011 923.223 688.979 919.831 686.914C916.459 684.828 913.857 681.92 912.024 678.191C910.212 674.441 909.306 670.079 909.306 665.107C909.306 660.134 910.212 655.751 912.024 651.959C913.857 648.145 916.407 645.174 919.672 643.046C922.959 640.897 926.794 639.822 931.177 639.822C933.705 639.822 936.202 640.244 938.667 641.087C941.132 641.929 943.376 643.299 945.399 645.195C947.422 647.071 949.034 649.557 950.235 652.654C951.436 655.751 952.036 659.565 952.036 664.095V667.256H914.616V660.808H944.451C944.451 658.069 943.903 655.625 942.807 653.476C941.733 651.327 940.195 649.631 938.193 648.387C936.213 647.144 933.874 646.523 931.177 646.523C928.206 646.523 925.635 647.26 923.465 648.735C921.316 650.189 919.662 652.085 918.503 654.424C917.344 656.763 916.765 659.27 916.765 661.946V666.244C916.765 669.911 917.397 673.018 918.661 675.568C919.946 678.096 921.727 680.024 924.002 681.352C926.278 682.658 928.922 683.311 931.935 683.311C933.895 683.311 935.665 683.037 937.245 682.489C938.846 681.92 940.226 681.078 941.385 679.961C942.544 678.823 943.44 677.411 944.072 675.726L951.278 677.749C950.519 680.193 949.244 682.342 947.453 684.196C945.662 686.029 943.45 687.462 940.816 688.494C938.183 689.506 935.222 690.011 931.935 690.011ZM983.736 690.011C979.059 690.011 975.024 688.979 971.631 686.914C968.26 684.828 965.658 681.92 963.825 678.191C962.013 674.441 961.107 670.079 961.107 665.107C961.107 660.134 962.013 655.751 963.825 651.959C965.658 648.145 968.207 645.174 971.473 643.046C974.76 640.897 978.595 639.822 982.978 639.822C985.506 639.822 988.003 640.244 990.468 641.087C992.933 641.929 995.177 643.299 997.2 645.195C999.223 647.071 1000.83 649.557 1002.04 652.654C1003.24 655.751 1003.84 659.565 1003.84 664.095V667.256H966.416V660.808H996.252C996.252 658.069 995.704 655.625 994.608 653.476C993.534 651.327 991.996 649.631 989.994 648.387C988.013 647.144 985.675 646.523 982.978 646.523C980.007 646.523 977.436 647.26 975.266 648.735C973.117 650.189 971.463 652.085 970.304 654.424C969.145 656.763 968.566 659.27 968.566 661.946V666.244C968.566 669.911 969.198 673.018 970.462 675.568C971.747 678.096 973.528 680.024 975.803 681.352C978.079 682.658 980.723 683.311 983.736 683.311C985.696 683.311 987.465 683.037 989.046 682.489C990.647 681.92 992.027 681.078 993.186 679.961C994.345 678.823 995.24 677.411 995.872 675.726L1003.08 677.749C1002.32 680.193 1001.05 682.342 999.254 684.196C997.463 686.029 995.251 687.462 992.617 688.494C989.983 689.506 987.023 690.011 983.736 690.011ZM1061.33 640.455V646.776H1036.17V640.455H1061.33ZM1043.5 628.824H1050.96V675.094C1050.96 677.201 1051.27 678.781 1051.88 679.835C1052.51 680.867 1053.31 681.562 1054.28 681.92C1055.27 682.258 1056.31 682.426 1057.41 682.426C1058.23 682.426 1058.9 682.384 1059.43 682.3C1059.96 682.194 1060.38 682.11 1060.69 682.047L1062.21 688.747C1061.71 688.937 1061 689.126 1060.09 689.316C1059.19 689.527 1058.04 689.632 1056.65 689.632C1054.54 689.632 1052.48 689.179 1050.45 688.273C1048.45 687.367 1046.79 685.987 1045.46 684.133C1044.15 682.279 1043.5 679.94 1043.5 677.116V628.824ZM1081.05 659.797V689H1073.59V624.273H1081.05V648.04H1081.68C1082.82 645.532 1084.52 643.541 1086.8 642.066C1089.1 640.57 1092.15 639.822 1095.97 639.822C1099.27 639.822 1102.17 640.486 1104.66 641.814C1107.14 643.12 1109.07 645.132 1110.44 647.85C1111.83 650.547 1112.53 653.982 1112.53 658.153V689H1105.07V658.659C1105.07 654.803 1104.07 651.822 1102.07 649.715C1100.09 647.587 1097.34 646.523 1093.82 646.523C1091.37 646.523 1089.18 647.039 1087.24 648.071C1085.33 649.104 1083.81 650.61 1082.69 652.591C1081.6 654.571 1081.05 656.973 1081.05 659.797ZM1146.53 690.011C1141.85 690.011 1137.81 688.979 1134.42 686.914C1131.05 684.828 1128.45 681.92 1126.61 678.191C1124.8 674.441 1123.9 670.079 1123.9 665.107C1123.9 660.134 1124.8 655.751 1126.61 651.959C1128.45 648.145 1131 645.174 1134.26 643.046C1137.55 640.897 1141.39 639.822 1145.77 639.822C1148.3 639.822 1150.79 640.244 1153.26 641.087C1155.72 641.929 1157.97 643.299 1159.99 645.195C1162.01 647.071 1163.62 649.557 1164.83 652.654C1166.03 655.751 1166.63 659.565 1166.63 664.095V667.256H1129.21V660.808H1159.04C1159.04 658.069 1158.49 655.625 1157.4 653.476C1156.32 651.327 1154.79 649.631 1152.78 648.387C1150.8 647.144 1148.46 646.523 1145.77 646.523C1142.8 646.523 1140.23 647.26 1138.06 648.735C1135.91 650.189 1134.25 652.085 1133.09 654.424C1131.94 656.763 1131.36 659.27 1131.36 661.946V666.244C1131.36 669.911 1131.99 673.018 1133.25 675.568C1134.54 678.096 1136.32 680.024 1138.59 681.352C1140.87 682.658 1143.51 683.311 1146.53 683.311C1148.49 683.311 1150.26 683.037 1151.84 682.489C1153.44 681.92 1154.82 681.078 1155.98 679.961C1157.13 678.823 1158.03 677.411 1158.66 675.726L1165.87 677.749C1165.11 680.193 1163.84 682.342 1162.04 684.196C1160.25 686.029 1158.04 687.462 1155.41 688.494C1152.77 689.506 1149.81 690.011 1146.53 690.011ZM1203 689V640.455H1210.46V689H1203ZM1206.8 632.364C1205.34 632.364 1204.09 631.868 1203.04 630.878C1202 629.888 1201.49 628.697 1201.49 627.307C1201.49 625.916 1202 624.726 1203.04 623.735C1204.09 622.745 1205.34 622.25 1206.8 622.25C1208.25 622.25 1209.49 622.745 1210.53 623.735C1211.58 624.726 1212.11 625.916 1212.11 627.307C1212.11 628.697 1211.58 629.888 1210.53 630.878C1209.49 631.868 1208.25 632.364 1206.8 632.364ZM1224.12 689V640.455H1231.33V648.04H1231.96C1232.97 645.448 1234.61 643.436 1236.86 642.003C1239.12 640.549 1241.82 639.822 1244.98 639.822C1248.19 639.822 1250.85 640.549 1252.98 642.003C1255.13 643.436 1256.8 645.448 1258.01 648.04H1258.51C1259.75 645.532 1261.62 643.541 1264.11 642.066C1266.59 640.57 1269.57 639.822 1273.05 639.822C1277.39 639.822 1280.94 641.181 1283.7 643.9C1286.46 646.596 1287.84 650.8 1287.84 656.51V689H1280.38V656.51C1280.38 652.928 1279.4 650.368 1277.44 648.83C1275.48 647.292 1273.18 646.523 1270.52 646.523C1267.11 646.523 1264.46 647.555 1262.59 649.62C1260.71 651.664 1259.78 654.255 1259.78 657.395V689H1252.19V655.751C1252.19 652.991 1251.29 650.768 1249.5 649.083C1247.71 647.376 1245.41 646.523 1242.58 646.523C1240.64 646.523 1238.83 647.039 1237.15 648.071C1235.48 649.104 1234.13 650.537 1233.1 652.37C1232.09 654.182 1231.58 656.278 1231.58 658.659V689H1224.12ZM1301.48 707.205V640.455H1308.68V648.166H1309.57C1310.12 647.323 1310.88 646.249 1311.84 644.942C1312.83 643.615 1314.25 642.435 1316.08 641.403C1317.93 640.349 1320.44 639.822 1323.6 639.822C1327.69 639.822 1331.29 640.844 1334.41 642.888C1337.53 644.932 1339.96 647.829 1341.71 651.58C1343.46 655.33 1344.33 659.755 1344.33 664.854C1344.33 669.995 1343.46 674.451 1341.71 678.223C1339.96 681.973 1337.54 684.881 1334.44 686.946C1331.34 688.989 1327.77 690.011 1323.73 690.011C1320.61 690.011 1318.11 689.495 1316.24 688.463C1314.36 687.409 1312.92 686.219 1311.91 684.891C1310.9 683.543 1310.12 682.426 1309.57 681.541H1308.94V707.205H1301.48ZM1308.81 664.727C1308.81 668.393 1309.35 671.628 1310.42 674.43C1311.5 677.211 1313.07 679.392 1315.13 680.972C1317.2 682.531 1319.72 683.311 1322.72 683.311C1325.84 683.311 1328.44 682.489 1330.52 680.846C1332.63 679.181 1334.21 676.948 1335.26 674.146C1336.34 671.322 1336.88 668.183 1336.88 664.727C1336.88 661.314 1336.35 658.238 1335.3 655.499C1334.26 652.738 1332.69 650.558 1330.59 648.956C1328.5 647.334 1325.88 646.523 1322.72 646.523C1319.68 646.523 1317.13 647.292 1315.07 648.83C1313 650.347 1311.44 652.475 1310.39 655.214C1309.34 657.932 1308.81 661.103 1308.81 664.727ZM1370 690.138C1366.92 690.138 1364.13 689.558 1361.62 688.4C1359.12 687.22 1357.12 685.523 1355.65 683.311C1354.17 681.078 1353.44 678.381 1353.44 675.22C1353.44 672.439 1353.98 670.184 1355.08 668.457C1356.18 666.708 1357.64 665.338 1359.47 664.348C1361.31 663.358 1363.33 662.62 1365.54 662.136C1367.78 661.63 1370.02 661.23 1372.27 660.935C1375.22 660.555 1377.61 660.271 1379.45 660.081C1381.3 659.871 1382.65 659.523 1383.49 659.038C1384.36 658.554 1384.79 657.711 1384.79 656.51V656.257C1384.79 653.139 1383.94 650.716 1382.23 648.988C1380.54 647.26 1377.98 646.396 1374.55 646.396C1370.99 646.396 1368.2 647.176 1366.17 648.735C1364.15 650.294 1362.73 651.959 1361.91 653.729L1354.83 651.2C1356.09 648.25 1357.78 645.954 1359.88 644.31C1362.01 642.646 1364.33 641.487 1366.84 640.834C1369.37 640.16 1371.85 639.822 1374.3 639.822C1375.86 639.822 1377.65 640.012 1379.67 640.391C1381.71 640.75 1383.68 641.498 1385.58 642.635C1387.5 643.773 1389.09 645.49 1390.35 647.787C1391.62 650.084 1392.25 653.16 1392.25 657.016V689H1384.79V682.426H1384.41C1383.9 683.48 1383.06 684.607 1381.88 685.808C1380.7 687.009 1379.13 688.031 1377.17 688.874C1375.21 689.716 1372.82 690.138 1370 690.138ZM1371.14 683.438C1374.09 683.438 1376.57 682.858 1378.59 681.699C1380.64 680.54 1382.18 679.044 1383.21 677.211C1384.26 675.378 1384.79 673.45 1384.79 671.428V664.601C1384.47 664.98 1383.78 665.328 1382.7 665.644C1381.65 665.939 1380.43 666.202 1379.04 666.434C1377.67 666.645 1376.33 666.834 1375.02 667.003C1373.74 667.15 1372.69 667.277 1371.89 667.382C1369.96 667.635 1368.14 668.046 1366.46 668.615C1364.79 669.163 1363.45 669.995 1362.41 671.112C1361.4 672.207 1360.9 673.703 1360.9 675.599C1360.9 678.191 1361.85 680.151 1363.77 681.478C1365.71 682.784 1368.16 683.438 1371.14 683.438ZM1425.58 690.011C1421.03 690.011 1417.11 688.937 1413.83 686.788C1410.54 684.638 1408.01 681.678 1406.24 677.907C1404.47 674.135 1403.59 669.826 1403.59 664.98C1403.59 660.05 1404.49 655.699 1406.3 651.927C1408.14 648.135 1410.69 645.174 1413.95 643.046C1417.24 640.897 1421.07 639.822 1425.46 639.822C1428.87 639.822 1431.95 640.455 1434.69 641.719C1437.42 642.983 1439.67 644.753 1441.42 647.028C1443.17 649.304 1444.25 651.959 1444.67 654.993H1437.21C1436.65 652.781 1435.38 650.821 1433.42 649.114C1431.48 647.387 1428.87 646.523 1425.58 646.523C1422.68 646.523 1420.13 647.281 1417.94 648.798C1415.76 650.294 1414.07 652.412 1412.85 655.151C1411.65 657.869 1411.05 661.061 1411.05 664.727C1411.05 668.478 1411.64 671.744 1412.81 674.525C1414.02 677.306 1415.7 679.466 1417.87 681.004C1420.06 682.542 1422.63 683.311 1425.58 683.311C1427.52 683.311 1429.28 682.974 1430.86 682.3C1432.44 681.625 1433.78 680.656 1434.88 679.392C1435.97 678.128 1436.75 676.611 1437.21 674.841H1444.67C1444.25 677.706 1443.21 680.288 1441.54 682.584C1439.9 684.86 1437.72 686.672 1435 688.02C1432.3 689.348 1429.17 690.011 1425.58 690.011ZM1476.69 640.455V646.776H1451.53V640.455H1476.69ZM1458.86 628.824H1466.32V675.094C1466.32 677.201 1466.63 678.781 1467.24 679.835C1467.87 680.867 1468.67 681.562 1469.64 681.92C1470.63 682.258 1471.67 682.426 1472.77 682.426C1473.59 682.426 1474.27 682.384 1474.79 682.3C1475.32 682.194 1475.74 682.11 1476.06 682.047L1477.57 688.747C1477.07 688.937 1476.36 689.126 1475.46 689.316C1474.55 689.527 1473.4 689.632 1472.01 689.632C1469.9 689.632 1467.84 689.179 1465.82 688.273C1463.82 687.367 1462.15 685.987 1460.82 684.133C1459.52 682.279 1458.86 679.94 1458.86 677.116V628.824ZM1527.23 690.138C1524.15 690.138 1521.36 689.558 1518.85 688.4C1516.34 687.22 1514.35 685.523 1512.88 683.311C1511.4 681.078 1510.66 678.381 1510.66 675.22C1510.66 672.439 1511.21 670.184 1512.31 668.457C1513.4 666.708 1514.87 665.338 1516.7 664.348C1518.53 663.358 1520.56 662.62 1522.77 662.136C1525 661.63 1527.25 661.23 1529.5 660.935C1532.45 660.555 1534.84 660.271 1536.68 660.081C1538.53 659.871 1539.88 659.523 1540.72 659.038C1541.58 658.554 1542.02 657.711 1542.02 656.51V656.257C1542.02 653.139 1541.16 650.716 1539.46 648.988C1537.77 647.26 1535.21 646.396 1531.78 646.396C1528.22 646.396 1525.42 647.176 1523.4 648.735C1521.38 650.294 1519.96 651.959 1519.13 653.729L1512.06 651.2C1513.32 648.25 1515 645.954 1517.11 644.31C1519.24 642.646 1521.56 641.487 1524.06 640.834C1526.59 640.16 1529.08 639.822 1531.52 639.822C1533.08 639.822 1534.87 640.012 1536.9 640.391C1538.94 640.75 1540.91 641.498 1542.81 642.635C1544.72 643.773 1546.31 645.49 1547.58 647.787C1548.84 650.084 1549.48 653.16 1549.48 657.016V689H1542.02V682.426H1541.64C1541.13 683.48 1540.29 684.607 1539.11 685.808C1537.93 687.009 1536.36 688.031 1534.4 688.874C1532.44 689.716 1530.05 690.138 1527.23 690.138ZM1528.36 683.438C1531.31 683.438 1533.8 682.858 1535.82 681.699C1537.87 680.54 1539.4 679.044 1540.44 677.211C1541.49 675.378 1542.02 673.45 1542.02 671.428V664.601C1541.7 664.98 1541.01 665.328 1539.93 665.644C1538.88 665.939 1537.66 666.202 1536.26 666.434C1534.9 666.645 1533.56 666.834 1532.25 667.003C1530.97 667.15 1529.92 667.277 1529.12 667.382C1527.18 667.635 1525.37 668.046 1523.69 668.615C1522.02 669.163 1520.67 669.995 1519.64 671.112C1518.63 672.207 1518.12 673.703 1518.12 675.599C1518.12 678.191 1519.08 680.151 1521 681.478C1522.94 682.784 1525.39 683.438 1528.36 683.438ZM1570.55 659.797V689H1563.09V640.455H1570.3V648.04H1570.93C1572.07 645.575 1573.79 643.594 1576.11 642.098C1578.43 640.581 1581.42 639.822 1585.09 639.822C1588.37 639.822 1591.25 640.497 1593.71 641.845C1596.18 643.173 1598.1 645.195 1599.47 647.913C1600.84 650.61 1601.52 654.024 1601.52 658.153V689H1594.06V658.659C1594.06 654.845 1593.07 651.875 1591.09 649.746C1589.11 647.597 1586.39 646.523 1582.94 646.523C1580.56 646.523 1578.43 647.039 1576.55 648.071C1574.7 649.104 1573.23 650.61 1572.16 652.591C1571.09 654.571 1570.55 656.973 1570.55 659.797ZM1633.48 690.011C1629.44 690.011 1625.87 688.989 1622.77 686.946C1619.67 684.881 1617.25 681.973 1615.5 678.223C1613.75 674.451 1612.88 669.995 1612.88 664.854C1612.88 659.755 1613.75 655.33 1615.5 651.58C1617.25 647.829 1619.68 644.932 1622.8 642.888C1625.92 640.844 1629.52 639.822 1633.61 639.822C1636.77 639.822 1639.27 640.349 1641.1 641.403C1642.95 642.435 1644.36 643.615 1645.33 644.942C1646.32 646.249 1647.09 647.323 1647.64 648.166H1648.27V624.273H1655.73V689H1648.53V681.541H1647.64C1647.09 682.426 1646.31 683.543 1645.3 684.891C1644.29 686.219 1642.85 687.409 1640.97 688.463C1639.1 689.495 1636.6 690.011 1633.48 690.011ZM1634.49 683.311C1637.49 683.311 1640.01 682.531 1642.08 680.972C1644.14 679.392 1645.71 677.211 1646.79 674.43C1647.86 671.628 1648.4 668.393 1648.4 664.727C1648.4 661.103 1647.87 657.932 1646.82 655.214C1645.77 652.475 1644.21 650.347 1642.14 648.83C1640.08 647.292 1637.53 646.523 1634.49 646.523C1631.33 646.523 1628.7 647.334 1626.59 648.956C1624.51 650.558 1622.94 652.738 1621.88 655.499C1620.85 658.238 1620.33 661.314 1620.33 664.727C1620.33 668.183 1620.86 671.322 1621.91 674.146C1622.99 676.948 1624.57 679.181 1626.66 680.846C1628.76 682.489 1631.37 683.311 1634.49 683.311ZM1715.81 690.011C1711.14 690.011 1707.1 688.979 1703.71 686.914C1700.34 684.828 1697.74 681.92 1695.9 678.191C1694.09 674.441 1693.18 670.079 1693.18 665.107C1693.18 660.134 1694.09 655.751 1695.9 651.959C1697.74 648.145 1700.28 645.174 1703.55 643.046C1706.84 640.897 1710.67 639.822 1715.05 639.822C1717.58 639.822 1720.08 640.244 1722.55 641.087C1725.01 641.929 1727.25 643.299 1729.28 645.195C1731.3 647.071 1732.91 649.557 1734.11 652.654C1735.31 655.751 1735.91 659.565 1735.91 664.095V667.256H1698.49V660.808H1728.33C1728.33 658.069 1727.78 655.625 1726.69 653.476C1725.61 651.327 1724.07 649.631 1722.07 648.387C1720.09 647.144 1717.75 646.523 1715.05 646.523C1712.08 646.523 1709.51 647.26 1707.34 648.735C1705.19 650.189 1703.54 652.085 1702.38 654.424C1701.22 656.763 1700.64 659.27 1700.64 661.946V666.244C1700.64 669.911 1701.27 673.018 1702.54 675.568C1703.82 678.096 1705.6 680.024 1707.88 681.352C1710.16 682.658 1712.8 683.311 1715.81 683.311C1717.77 683.311 1719.54 683.037 1721.12 682.489C1722.72 681.92 1724.1 681.078 1725.26 679.961C1726.42 678.823 1727.32 677.411 1727.95 675.726L1735.16 677.749C1734.4 680.193 1733.12 682.342 1731.33 684.196C1729.54 686.029 1727.33 687.462 1724.69 688.494C1722.06 689.506 1719.1 690.011 1715.81 690.011ZM1751.52 640.455L1763.15 660.303L1774.78 640.455H1783.38L1767.7 664.727L1783.38 689H1774.78L1763.15 670.163L1751.52 689H1742.92L1758.35 664.727L1742.92 640.455H1751.52ZM1794.02 707.205V640.455H1801.23V648.166H1802.11C1802.66 647.323 1803.42 646.249 1804.39 644.942C1805.38 643.615 1806.79 642.435 1808.62 641.403C1810.48 640.349 1812.98 639.822 1816.14 639.822C1820.23 639.822 1823.83 640.844 1826.95 642.888C1830.07 644.932 1832.5 647.829 1834.25 651.58C1836 655.33 1836.88 659.755 1836.88 664.854C1836.88 669.995 1836 674.451 1834.25 678.223C1832.5 681.973 1830.08 684.881 1826.98 686.946C1823.89 688.989 1820.32 690.011 1816.27 690.011C1813.15 690.011 1810.65 689.495 1808.78 688.463C1806.9 687.409 1805.46 686.219 1804.45 684.891C1803.44 683.543 1802.66 682.426 1802.11 681.541H1801.48V707.205H1794.02ZM1801.35 664.727C1801.35 668.393 1801.89 671.628 1802.96 674.43C1804.04 677.211 1805.61 679.392 1807.67 680.972C1809.74 682.531 1812.27 683.311 1815.26 683.311C1818.38 683.311 1820.98 682.489 1823.07 680.846C1825.17 679.181 1826.75 676.948 1827.81 674.146C1828.88 671.322 1829.42 668.183 1829.42 664.727C1829.42 661.314 1828.89 658.238 1827.84 655.499C1826.81 652.738 1825.24 650.558 1823.13 648.956C1821.04 647.334 1818.42 646.523 1815.26 646.523C1812.22 646.523 1809.68 647.292 1807.61 648.83C1805.55 650.347 1803.99 652.475 1802.93 655.214C1801.88 657.932 1801.35 661.103 1801.35 664.727ZM1855.71 624.273V689H1848.25V624.273H1855.71ZM1889.1 690.011C1884.71 690.011 1880.87 688.968 1877.56 686.882C1874.27 684.797 1871.7 681.878 1869.85 678.128C1868.02 674.377 1867.1 669.995 1867.1 664.98C1867.1 659.923 1868.02 655.509 1869.85 651.738C1871.7 647.966 1874.27 645.037 1877.56 642.951C1880.87 640.865 1884.71 639.822 1889.1 639.822C1893.48 639.822 1897.31 640.865 1900.6 642.951C1903.91 645.037 1906.48 647.966 1908.31 651.738C1910.17 655.509 1911.09 659.923 1911.09 664.98C1911.09 669.995 1910.17 674.377 1908.31 678.128C1906.48 681.878 1903.91 684.797 1900.6 686.882C1897.31 688.968 1893.48 690.011 1889.1 690.011ZM1889.1 683.311C1892.43 683.311 1895.16 682.458 1897.31 680.751C1899.46 679.044 1901.05 676.8 1902.09 674.019C1903.12 671.238 1903.63 668.225 1903.63 664.98C1903.63 661.735 1903.12 658.712 1902.09 655.909C1901.05 653.107 1899.46 650.842 1897.31 649.114C1895.16 647.387 1892.43 646.523 1889.1 646.523C1885.77 646.523 1883.03 647.387 1880.88 649.114C1878.73 650.842 1877.14 653.107 1876.11 655.909C1875.07 658.712 1874.56 661.735 1874.56 664.98C1874.56 668.225 1875.07 671.238 1876.11 674.019C1877.14 676.8 1878.73 679.044 1880.88 680.751C1883.03 682.458 1885.77 683.311 1889.1 683.311ZM1922.48 689V640.455H1929.69V647.787H1930.19C1931.08 645.385 1932.68 643.436 1934.99 641.94C1937.31 640.444 1939.93 639.696 1942.83 639.696C1943.38 639.696 1944.07 639.707 1944.89 639.728C1945.71 639.749 1946.33 639.78 1946.75 639.822V647.408C1946.5 647.344 1945.92 647.25 1945.01 647.123C1944.13 646.976 1943.19 646.902 1942.2 646.902C1939.84 646.902 1937.73 647.397 1935.88 648.387C1934.05 649.357 1932.59 650.705 1931.52 652.433C1930.46 654.14 1929.94 656.089 1929.94 658.28V689H1922.48ZM1974.47 690.011C1969.79 690.011 1965.76 688.979 1962.36 686.914C1958.99 684.828 1956.39 681.92 1954.56 678.191C1952.75 674.441 1951.84 670.079 1951.84 665.107C1951.84 660.134 1952.75 655.751 1954.56 651.959C1956.39 648.145 1958.94 645.174 1962.21 643.046C1965.49 640.897 1969.33 639.822 1973.71 639.822C1976.24 639.822 1978.74 640.244 1981.2 641.087C1983.67 641.929 1985.91 643.299 1987.93 645.195C1989.96 647.071 1991.57 649.557 1992.77 652.654C1993.97 655.751 1994.57 659.565 1994.57 664.095V667.256H1957.15V660.808H1986.99C1986.99 658.069 1986.44 655.625 1985.34 653.476C1984.27 651.327 1982.73 649.631 1980.73 648.387C1978.75 647.144 1976.41 646.523 1973.71 646.523C1970.74 646.523 1968.17 647.26 1966 648.735C1963.85 650.189 1962.2 652.085 1961.04 654.424C1959.88 656.763 1959.3 659.27 1959.3 661.946V666.244C1959.3 669.911 1959.93 673.018 1961.2 675.568C1962.48 678.096 1964.26 680.024 1966.54 681.352C1968.81 682.658 1971.46 683.311 1974.47 683.311C1976.43 683.311 1978.2 683.037 1979.78 682.489C1981.38 681.92 1982.76 681.078 1983.92 679.961C1985.08 678.823 1985.97 677.411 1986.61 675.726L1993.81 677.749C1993.05 680.193 1991.78 682.342 1989.99 684.196C1988.2 686.029 1985.98 687.462 1983.35 688.494C1980.72 689.506 1977.76 690.011 1974.47 690.011ZM2035.75 707.205C2034.49 707.205 2033.36 707.099 2032.37 706.888C2031.38 706.699 2030.69 706.509 2030.32 706.32L2032.21 699.746C2034.02 700.209 2035.63 700.378 2037.02 700.251C2038.41 700.125 2039.64 699.503 2040.71 698.387C2041.81 697.291 2042.81 695.511 2043.72 693.045L2045.11 689.253L2027.16 640.455H2035.25L2048.65 679.139H2049.15L2062.55 640.455H2070.64L2050.04 696.08C2049.11 698.587 2047.96 700.662 2046.59 702.306C2045.22 703.97 2043.63 705.203 2041.82 706.004C2040.03 706.804 2038.01 707.205 2035.75 707.205ZM2098.47 690.011C2094.09 690.011 2090.24 688.968 2086.94 686.882C2083.65 684.797 2081.08 681.878 2079.22 678.128C2077.39 674.377 2076.47 669.995 2076.47 664.98C2076.47 659.923 2077.39 655.509 2079.22 651.738C2081.08 647.966 2083.65 645.037 2086.94 642.951C2090.24 640.865 2094.09 639.822 2098.47 639.822C2102.85 639.822 2106.69 640.865 2109.98 642.951C2113.28 645.037 2115.85 647.966 2117.69 651.738C2119.54 655.509 2120.47 659.923 2120.47 664.98C2120.47 669.995 2119.54 674.377 2117.69 678.128C2115.85 681.878 2113.28 684.797 2109.98 686.882C2106.69 688.968 2102.85 690.011 2098.47 690.011ZM2098.47 683.311C2101.8 683.311 2104.54 682.458 2106.69 680.751C2108.84 679.044 2110.43 676.8 2111.46 674.019C2112.49 671.238 2113.01 668.225 2113.01 664.98C2113.01 661.735 2112.49 658.712 2111.46 655.909C2110.43 653.107 2108.84 650.842 2106.69 649.114C2104.54 647.387 2101.8 646.523 2098.47 646.523C2095.14 646.523 2092.4 647.387 2090.25 649.114C2088.11 650.842 2086.51 653.107 2085.48 655.909C2084.45 658.712 2083.93 661.735 2083.93 664.98C2083.93 668.225 2084.45 671.238 2085.48 674.019C2086.51 676.8 2088.11 679.044 2090.25 680.751C2092.4 682.458 2095.14 683.311 2098.47 683.311ZM2162.45 669.152V640.455H2169.91V689H2162.45V680.783H2161.94C2160.81 683.248 2159.04 685.344 2156.63 687.072C2154.23 688.779 2151.2 689.632 2147.53 689.632C2144.5 689.632 2141.8 688.968 2139.44 687.641C2137.08 686.292 2135.23 684.27 2133.88 681.573C2132.53 678.855 2131.86 675.431 2131.86 671.301V640.455H2139.31V670.795C2139.31 674.335 2140.3 677.159 2142.28 679.266C2144.29 681.373 2146.84 682.426 2149.93 682.426C2151.79 682.426 2153.67 681.952 2155.59 681.004C2157.53 680.056 2159.15 678.602 2160.46 676.642C2161.79 674.683 2162.45 672.186 2162.45 669.152ZM2183.57 689V640.455H2190.77V647.787H2191.28C2192.17 645.385 2193.77 643.436 2196.08 641.94C2198.4 640.444 2201.01 639.696 2203.92 639.696C2204.47 639.696 2205.16 639.707 2205.98 639.728C2206.8 639.749 2207.42 639.78 2207.84 639.822V647.408C2207.59 647.344 2207.01 647.25 2206.1 647.123C2205.22 646.976 2204.28 646.902 2203.29 646.902C2200.93 646.902 2198.82 647.397 2196.97 648.387C2195.14 649.357 2193.68 650.705 2192.61 652.433C2191.55 654.14 2191.03 656.089 2191.03 658.28V689H2183.57ZM2261.44 690.011C2257.05 690.011 2253.21 688.968 2249.9 686.882C2246.61 684.797 2244.04 681.878 2242.19 678.128C2240.36 674.377 2239.44 669.995 2239.44 664.98C2239.44 659.923 2240.36 655.509 2242.19 651.738C2244.04 647.966 2246.61 645.037 2249.9 642.951C2253.21 640.865 2257.05 639.822 2261.44 639.822C2265.82 639.822 2269.65 640.865 2272.94 642.951C2276.25 645.037 2278.82 647.966 2280.65 651.738C2282.51 655.509 2283.43 659.923 2283.43 664.98C2283.43 669.995 2282.51 674.377 2280.65 678.128C2278.82 681.878 2276.25 684.797 2272.94 686.882C2269.65 688.968 2265.82 690.011 2261.44 690.011ZM2261.44 683.311C2264.77 683.311 2267.5 682.458 2269.65 680.751C2271.8 679.044 2273.39 676.8 2274.43 674.019C2275.46 671.238 2275.97 668.225 2275.97 664.98C2275.97 661.735 2275.46 658.712 2274.43 655.909C2273.39 653.107 2271.8 650.842 2269.65 649.114C2267.5 647.387 2264.77 646.523 2261.44 646.523C2258.11 646.523 2255.37 647.387 2253.22 649.114C2251.07 650.842 2249.48 653.107 2248.45 655.909C2247.41 658.712 2246.9 661.735 2246.9 664.98C2246.9 668.225 2247.41 671.238 2248.45 674.019C2249.48 676.8 2251.07 679.044 2253.22 680.751C2255.37 682.458 2258.11 683.311 2261.44 683.311ZM2294.82 707.205V640.455H2302.02V648.166H2302.91C2303.46 647.323 2304.22 646.249 2305.19 644.942C2306.18 643.615 2307.59 642.435 2309.42 641.403C2311.27 640.349 2313.78 639.822 2316.94 639.822C2321.03 639.822 2324.63 640.844 2327.75 642.888C2330.87 644.932 2333.3 647.829 2335.05 651.58C2336.8 655.33 2337.68 659.755 2337.68 664.854C2337.68 669.995 2336.8 674.451 2335.05 678.223C2333.3 681.973 2330.88 684.881 2327.78 686.946C2324.69 688.989 2321.11 690.011 2317.07 690.011C2313.95 690.011 2311.45 689.495 2309.58 688.463C2307.7 687.409 2306.26 686.219 2305.25 684.891C2304.24 683.543 2303.46 682.426 2302.91 681.541H2302.28V707.205H2294.82ZM2302.15 664.727C2302.15 668.393 2302.69 671.628 2303.76 674.43C2304.84 677.211 2306.41 679.392 2308.47 680.972C2310.54 682.531 2313.07 683.311 2316.06 683.311C2319.18 683.311 2321.78 682.489 2323.86 680.846C2325.97 679.181 2327.55 676.948 2328.6 674.146C2329.68 671.322 2330.22 668.183 2330.22 664.727C2330.22 661.314 2329.69 658.238 2328.64 655.499C2327.6 652.738 2326.03 650.558 2323.93 648.956C2321.84 647.334 2319.22 646.523 2316.06 646.523C2313.02 646.523 2310.47 647.292 2308.41 648.83C2306.34 650.347 2304.79 652.475 2303.73 655.214C2302.68 657.932 2302.15 661.103 2302.15 664.727ZM2370.17 640.455V646.776H2345.01V640.455H2370.17ZM2352.34 628.824H2359.8V675.094C2359.8 677.201 2360.1 678.781 2360.72 679.835C2361.35 680.867 2362.15 681.562 2363.12 681.92C2364.11 682.258 2365.15 682.426 2366.25 682.426C2367.07 682.426 2367.74 682.384 2368.27 682.3C2368.8 682.194 2369.22 682.11 2369.53 682.047L2371.05 688.747C2370.54 688.937 2369.84 689.126 2368.93 689.316C2368.03 689.527 2366.88 689.632 2365.49 689.632C2363.38 689.632 2361.32 689.179 2359.29 688.273C2357.29 687.367 2355.63 685.987 2354.3 684.133C2352.99 682.279 2352.34 679.94 2352.34 677.116V628.824ZM2381.39 689V640.455H2388.84V689H2381.39ZM2385.18 632.364C2383.72 632.364 2382.47 631.868 2381.42 630.878C2380.38 629.888 2379.87 628.697 2379.87 627.307C2379.87 625.916 2380.38 624.726 2381.42 623.735C2382.47 622.745 2383.72 622.25 2385.18 622.25C2386.63 622.25 2387.87 622.745 2388.91 623.735C2389.96 624.726 2390.49 625.916 2390.49 627.307C2390.49 628.697 2389.96 629.888 2388.91 630.878C2387.87 631.868 2386.63 632.364 2385.18 632.364ZM2422.23 690.011C2417.84 690.011 2414 688.968 2410.69 686.882C2407.4 684.797 2404.83 681.878 2402.98 678.128C2401.15 674.377 2400.23 669.995 2400.23 664.98C2400.23 659.923 2401.15 655.509 2402.98 651.738C2404.83 647.966 2407.4 645.037 2410.69 642.951C2414 640.865 2417.84 639.822 2422.23 639.822C2426.61 639.822 2430.44 640.865 2433.73 642.951C2437.04 645.037 2439.61 647.966 2441.44 651.738C2443.3 655.509 2444.22 659.923 2444.22 664.98C2444.22 669.995 2443.3 674.377 2441.44 678.128C2439.61 681.878 2437.04 684.797 2433.73 686.882C2430.44 688.968 2426.61 690.011 2422.23 690.011ZM2422.23 683.311C2425.56 683.311 2428.3 682.458 2430.44 680.751C2432.59 679.044 2434.18 676.8 2435.22 674.019C2436.25 671.238 2436.77 668.225 2436.77 664.98C2436.77 661.735 2436.25 658.712 2435.22 655.909C2434.18 653.107 2432.59 650.842 2430.44 649.114C2428.3 647.387 2425.56 646.523 2422.23 646.523C2418.9 646.523 2416.16 647.387 2414.01 649.114C2411.86 650.842 2410.27 653.107 2409.24 655.909C2408.2 658.712 2407.69 661.735 2407.69 664.98C2407.69 668.225 2408.2 671.238 2409.24 674.019C2410.27 676.8 2411.86 679.044 2414.01 680.751C2416.16 682.458 2418.9 683.311 2422.23 683.311ZM2463.07 659.797V689H2455.61V640.455H2462.82V648.04H2463.45C2464.59 645.575 2466.31 643.594 2468.63 642.098C2470.95 640.581 2473.94 639.822 2477.61 639.822C2480.89 639.822 2483.77 640.497 2486.24 641.845C2488.7 643.173 2490.62 645.195 2491.99 647.913C2493.36 650.61 2494.04 654.024 2494.04 658.153V689H2486.58V658.659C2486.58 654.845 2485.59 651.875 2483.61 649.746C2481.63 647.597 2478.91 646.523 2475.46 646.523C2473.08 646.523 2470.95 647.039 2469.07 648.071C2467.22 649.104 2465.76 650.61 2464.68 652.591C2463.61 654.571 2463.07 656.973 2463.07 659.797ZM2542.06 651.327L2535.36 653.223C2534.94 652.106 2534.31 651.021 2533.49 649.968C2532.69 648.893 2531.6 648.008 2530.21 647.313C2528.82 646.618 2527.03 646.27 2524.86 646.27C2521.89 646.27 2519.42 646.955 2517.44 648.324C2515.48 649.673 2514.5 651.39 2514.5 653.476C2514.5 655.33 2515.17 656.794 2516.52 657.869C2517.87 658.944 2519.98 659.839 2522.84 660.555L2530.05 662.325C2534.39 663.379 2537.62 664.991 2539.75 667.161C2541.88 669.31 2542.94 672.081 2542.94 675.473C2542.94 678.254 2542.14 680.741 2540.54 682.932C2538.96 685.123 2536.75 686.851 2533.9 688.115C2531.06 689.379 2527.75 690.011 2523.98 690.011C2519.03 690.011 2514.93 688.937 2511.69 686.788C2508.44 684.638 2506.39 681.499 2505.52 677.369L2512.6 675.599C2513.28 678.212 2514.55 680.172 2516.43 681.478C2518.32 682.784 2520.8 683.438 2523.85 683.438C2527.33 683.438 2530.09 682.7 2532.13 681.225C2534.2 679.729 2535.23 677.938 2535.23 675.852C2535.23 674.167 2534.64 672.755 2533.46 671.617C2532.28 670.458 2530.47 669.594 2528.03 669.026L2519.93 667.129C2515.49 666.076 2512.22 664.443 2510.14 662.23C2508.07 659.997 2507.04 657.205 2507.04 653.855C2507.04 651.116 2507.81 648.693 2509.35 646.586C2510.91 644.479 2513.02 642.825 2515.7 641.624C2518.4 640.423 2521.45 639.822 2524.86 639.822C2529.67 639.822 2533.44 640.876 2536.18 642.983C2538.94 645.09 2540.9 647.871 2542.06 651.327Z" fill="#6B6B6B"/>
<path d="M2270.46 401.726C2267.41 401.726 2264.68 401.121 2262.24 399.911C2259.8 398.701 2257.85 397.042 2256.38 394.934C2254.91 392.826 2254.11 390.423 2253.97 387.727H2260.19C2260.43 390.129 2261.52 392.117 2263.46 393.69C2265.41 395.245 2267.74 396.023 2270.46 396.023C2272.63 396.023 2274.57 395.513 2276.26 394.493C2277.97 393.474 2279.31 392.074 2280.28 390.294C2281.27 388.496 2281.76 386.466 2281.76 384.202C2281.76 381.886 2281.25 379.821 2280.23 378.006C2279.23 376.174 2277.84 374.731 2276.08 373.677C2274.32 372.623 2272.31 372.087 2270.04 372.07C2268.42 372.052 2266.75 372.303 2265.04 372.821C2263.33 373.323 2261.92 373.971 2260.81 374.766L2254.8 374.04L2258.01 347.909H2285.6V353.612H2263.41L2261.54 369.27H2261.85C2262.94 368.406 2264.3 367.689 2265.95 367.118C2267.59 366.548 2269.3 366.263 2271.08 366.263C2274.33 366.263 2277.22 367.04 2279.76 368.596C2282.32 370.134 2284.33 372.242 2285.78 374.921C2287.25 377.6 2287.98 380.659 2287.98 384.098C2287.98 387.485 2287.22 390.51 2285.7 393.171C2284.2 395.815 2282.12 397.906 2279.48 399.445C2276.83 400.965 2273.83 401.726 2270.46 401.726ZM2318.91 401V361.182H2324.82V367.403H2325.34C2326.17 365.278 2327.51 363.627 2329.36 362.452C2331.21 361.26 2333.43 360.663 2336.02 360.663C2338.65 360.663 2340.84 361.26 2342.58 362.452C2344.34 363.627 2345.72 365.278 2346.7 367.403H2347.12C2348.14 365.347 2349.67 363.714 2351.71 362.504C2353.75 361.277 2356.19 360.663 2359.04 360.663C2362.6 360.663 2365.51 361.778 2367.78 364.007C2370.04 366.22 2371.17 369.667 2371.17 374.351V401H2365.06V374.351C2365.06 371.413 2364.25 369.313 2362.65 368.051C2361.04 366.79 2359.15 366.159 2356.97 366.159C2354.17 366.159 2352 367.006 2350.46 368.7C2348.92 370.376 2348.15 372.502 2348.15 375.077V401H2341.93V373.729C2341.93 371.465 2341.2 369.641 2339.73 368.259C2338.26 366.859 2336.37 366.159 2334.05 366.159C2332.46 366.159 2330.98 366.583 2329.59 367.429C2328.23 368.276 2327.12 369.451 2326.28 370.955C2325.45 372.441 2325.03 374.161 2325.03 376.114V401H2318.91ZM2382.36 401V361.182H2388.48V401H2382.36ZM2385.47 354.545C2384.28 354.545 2383.25 354.139 2382.39 353.327C2381.54 352.515 2381.12 351.538 2381.12 350.398C2381.12 349.257 2381.54 348.281 2382.39 347.468C2383.25 346.656 2384.28 346.25 2385.47 346.25C2386.66 346.25 2387.68 346.656 2388.53 347.468C2389.39 348.281 2389.83 349.257 2389.83 350.398C2389.83 351.538 2389.39 352.515 2388.53 353.327C2387.68 354.139 2386.66 354.545 2385.47 354.545ZM2405.8 377.047V401H2399.68V361.182H2405.59V367.403H2406.11C2407.05 365.381 2408.46 363.757 2410.36 362.53C2412.27 361.286 2414.72 360.663 2417.73 360.663C2420.42 360.663 2422.78 361.216 2424.8 362.322C2426.83 363.411 2428.4 365.07 2429.52 367.3C2430.64 369.512 2431.21 372.312 2431.21 375.699V401H2425.09V376.114C2425.09 372.986 2424.28 370.549 2422.65 368.803C2421.03 367.04 2418.8 366.159 2415.96 366.159C2414.01 366.159 2412.27 366.583 2410.73 367.429C2409.21 368.276 2408.01 369.512 2407.12 371.136C2406.24 372.761 2405.8 374.731 2405.8 377.047ZM2467.48 384.72V361.182H2473.6V401H2467.48V394.26H2467.07C2466.13 396.282 2464.68 398.002 2462.71 399.419C2460.74 400.819 2458.25 401.518 2455.24 401.518C2452.76 401.518 2450.54 400.974 2448.61 399.885C2446.67 398.779 2445.15 397.12 2444.05 394.908C2442.94 392.679 2442.39 389.87 2442.39 386.483V361.182H2448.5V386.068C2448.5 388.972 2449.32 391.287 2450.94 393.016C2452.58 394.744 2454.67 395.608 2457.21 395.608C2458.74 395.608 2460.28 395.219 2461.85 394.441C2463.44 393.664 2464.78 392.471 2465.85 390.864C2466.94 389.257 2467.48 387.209 2467.48 384.72ZM2502.12 361.182V366.366H2481.48V361.182H2502.12ZM2487.5 351.642H2493.62V389.594C2493.62 391.322 2493.87 392.618 2494.37 393.482C2494.89 394.329 2495.54 394.899 2496.34 395.193C2497.15 395.47 2498.01 395.608 2498.91 395.608C2499.58 395.608 2500.13 395.573 2500.56 395.504C2501 395.418 2501.34 395.349 2501.6 395.297L2502.85 400.793C2502.43 400.948 2501.85 401.104 2501.11 401.259C2500.37 401.432 2499.42 401.518 2498.28 401.518C2496.55 401.518 2494.86 401.147 2493.2 400.404C2491.56 399.661 2490.2 398.529 2489.11 397.008C2488.03 395.487 2487.5 393.569 2487.5 391.253V351.642ZM2527.59 401.83C2523.75 401.83 2520.44 400.983 2517.66 399.289C2514.9 397.578 2512.76 395.193 2511.26 392.134C2509.77 389.058 2509.03 385.481 2509.03 381.402C2509.03 377.323 2509.77 373.729 2511.26 370.618C2512.76 367.49 2514.85 365.053 2517.53 363.308C2520.23 361.545 2523.37 360.663 2526.97 360.663C2529.04 360.663 2531.09 361.009 2533.11 361.7C2535.13 362.392 2536.97 363.515 2538.63 365.07C2540.29 366.608 2541.61 368.648 2542.6 371.188C2543.58 373.729 2544.08 376.857 2544.08 380.572V383.165H2513.38V377.876H2537.86C2537.86 375.63 2537.41 373.625 2536.51 371.862C2535.63 370.099 2534.36 368.708 2532.72 367.689C2531.1 366.669 2529.18 366.159 2526.97 366.159C2524.53 366.159 2522.42 366.764 2520.64 367.974C2518.88 369.166 2517.52 370.722 2516.57 372.64C2515.62 374.558 2515.15 376.615 2515.15 378.81V382.335C2515.15 385.342 2515.66 387.891 2516.7 389.983C2517.76 392.056 2519.22 393.638 2521.08 394.727C2522.95 395.798 2525.12 396.334 2527.59 396.334C2529.2 396.334 2530.65 396.109 2531.94 395.66C2533.26 395.193 2534.39 394.502 2535.34 393.586C2536.29 392.653 2537.03 391.495 2537.54 390.112L2543.45 391.771C2542.83 393.776 2541.79 395.539 2540.32 397.06C2538.85 398.563 2537.03 399.738 2534.87 400.585C2532.71 401.415 2530.29 401.83 2527.59 401.83ZM2581.59 370.099L2576.09 371.655C2575.75 370.739 2575.24 369.849 2574.56 368.985C2573.91 368.103 2573.01 367.377 2571.87 366.807C2570.73 366.237 2569.27 365.952 2567.49 365.952C2565.05 365.952 2563.02 366.513 2561.39 367.637C2559.79 368.743 2558.98 370.151 2558.98 371.862C2558.98 373.383 2559.54 374.584 2560.64 375.466C2561.75 376.347 2563.48 377.081 2565.83 377.669L2571.74 379.121C2575.3 379.985 2577.95 381.307 2579.7 383.087C2581.44 384.85 2582.31 387.122 2582.31 389.905C2582.31 392.186 2581.66 394.225 2580.34 396.023C2579.05 397.82 2577.23 399.237 2574.9 400.274C2572.57 401.311 2569.85 401.83 2566.76 401.83C2562.7 401.83 2559.34 400.948 2556.68 399.185C2554.01 397.423 2552.33 394.848 2551.62 391.46L2557.43 390.009C2557.98 392.152 2559.03 393.759 2560.56 394.83C2562.12 395.902 2564.15 396.438 2566.66 396.438C2569.51 396.438 2571.77 395.833 2573.45 394.623C2575.14 393.396 2575.99 391.927 2575.99 390.216C2575.99 388.833 2575.5 387.675 2574.54 386.742C2573.57 385.792 2572.08 385.083 2570.08 384.616L2563.44 383.061C2559.79 382.197 2557.12 380.858 2555.41 379.043C2553.71 377.211 2552.86 374.921 2552.86 372.173C2552.86 369.927 2553.5 367.939 2554.76 366.211C2556.04 364.483 2557.77 363.126 2559.97 362.141C2562.18 361.156 2564.69 360.663 2567.49 360.663C2571.43 360.663 2574.52 361.527 2576.77 363.256C2579.03 364.984 2580.64 367.265 2581.59 370.099ZM2623.77 401.933C2621.25 401.933 2618.96 401.458 2616.9 400.507C2614.85 399.54 2613.21 398.148 2612 396.334C2610.79 394.502 2610.19 392.29 2610.19 389.697C2610.19 387.416 2610.64 385.567 2611.54 384.15C2612.43 382.715 2613.64 381.592 2615.14 380.78C2616.64 379.968 2618.3 379.363 2620.12 378.965C2621.95 378.55 2623.79 378.222 2625.64 377.98C2628.06 377.669 2630.02 377.436 2631.52 377.28C2633.04 377.107 2634.15 376.822 2634.84 376.425C2635.55 376.027 2635.9 375.336 2635.9 374.351V374.143C2635.9 371.586 2635.2 369.598 2633.8 368.181C2632.42 366.764 2630.32 366.055 2627.5 366.055C2624.58 366.055 2622.29 366.695 2620.63 367.974C2618.98 369.253 2617.81 370.618 2617.13 372.07L2611.33 369.996C2612.37 367.576 2613.75 365.692 2615.48 364.344C2617.22 362.979 2619.12 362.029 2621.18 361.493C2623.25 360.94 2625.29 360.663 2627.3 360.663C2628.58 360.663 2630.04 360.819 2631.7 361.13C2633.38 361.424 2635 362.037 2636.55 362.971C2638.12 363.904 2639.43 365.312 2640.47 367.196C2641.5 369.08 2642.02 371.603 2642.02 374.766V401H2635.9V395.608H2635.59C2635.18 396.472 2634.49 397.397 2633.52 398.382C2632.55 399.367 2631.26 400.205 2629.66 400.896C2628.05 401.588 2626.09 401.933 2623.77 401.933ZM2624.7 396.438C2627.12 396.438 2629.16 395.962 2630.82 395.012C2632.5 394.061 2633.76 392.834 2634.61 391.331C2635.47 389.827 2635.9 388.246 2635.9 386.587V380.987C2635.64 381.298 2635.07 381.583 2634.19 381.843C2633.33 382.085 2632.33 382.301 2631.19 382.491C2630.06 382.664 2628.96 382.819 2627.89 382.957C2626.84 383.078 2625.98 383.182 2625.33 383.268C2623.74 383.476 2622.25 383.813 2620.87 384.279C2619.5 384.729 2618.4 385.411 2617.55 386.327C2616.72 387.226 2616.31 388.453 2616.31 390.009C2616.31 392.134 2617.09 393.741 2618.66 394.83C2620.25 395.902 2622.27 396.438 2624.7 396.438ZM2669.26 416.761C2666.3 416.761 2663.76 416.381 2661.64 415.621C2659.51 414.878 2657.74 413.893 2656.32 412.665C2654.92 411.456 2653.81 410.16 2652.98 408.777L2657.85 405.355C2658.41 406.081 2659.11 406.911 2659.95 407.844C2660.8 408.794 2661.96 409.615 2663.43 410.306C2664.91 411.015 2666.86 411.369 2669.26 411.369C2672.47 411.369 2675.13 410.592 2677.22 409.036C2679.31 407.481 2680.36 405.044 2680.36 401.726V393.638H2679.84C2679.39 394.364 2678.75 395.262 2677.92 396.334C2677.11 397.388 2675.93 398.33 2674.39 399.159C2672.87 399.972 2670.82 400.378 2668.22 400.378C2665.01 400.378 2662.12 399.617 2659.56 398.097C2657.02 396.576 2655.01 394.364 2653.52 391.46C2652.06 388.557 2651.32 385.031 2651.32 380.884C2651.32 376.805 2652.04 373.253 2653.47 370.229C2654.91 367.187 2656.9 364.837 2659.46 363.178C2662.02 361.502 2664.97 360.663 2668.33 360.663C2670.92 360.663 2672.98 361.095 2674.5 361.96C2676.03 362.806 2677.21 363.774 2678.02 364.863C2678.85 365.934 2679.49 366.816 2679.94 367.507H2680.56V361.182H2686.47V402.141C2686.47 405.562 2685.7 408.345 2684.14 410.488C2682.6 412.648 2680.53 414.23 2677.92 415.232C2675.33 416.252 2672.44 416.761 2669.26 416.761ZM2669.05 394.882C2671.51 394.882 2673.58 394.32 2675.27 393.197C2676.97 392.074 2678.26 390.458 2679.14 388.349C2680.02 386.241 2680.46 383.718 2680.46 380.78C2680.46 377.911 2680.03 375.379 2679.16 373.184C2678.3 370.989 2677.02 369.27 2675.33 368.026C2673.63 366.781 2671.54 366.159 2669.05 366.159C2666.46 366.159 2664.3 366.816 2662.57 368.129C2660.86 369.443 2659.57 371.205 2658.71 373.418C2657.86 375.63 2657.44 378.084 2657.44 380.78C2657.44 383.545 2657.87 385.99 2658.74 388.116C2659.62 390.225 2660.91 391.884 2662.62 393.093C2664.35 394.286 2666.5 394.882 2669.05 394.882ZM2713.85 401.83C2710.25 401.83 2707.1 400.974 2704.39 399.263C2701.69 397.552 2699.58 395.159 2698.06 392.082C2696.56 389.006 2695.81 385.411 2695.81 381.298C2695.81 377.151 2696.56 373.53 2698.06 370.436C2699.58 367.343 2701.69 364.941 2704.39 363.23C2707.1 361.519 2710.25 360.663 2713.85 360.663C2717.44 360.663 2720.59 361.519 2723.28 363.23C2726 364.941 2728.11 367.343 2729.61 370.436C2731.13 373.53 2731.89 377.151 2731.89 381.298C2731.89 385.411 2731.13 389.006 2729.61 392.082C2728.11 395.159 2726 397.552 2723.28 399.263C2720.59 400.974 2717.44 401.83 2713.85 401.83ZM2713.85 396.334C2716.58 396.334 2718.83 395.634 2720.59 394.234C2722.35 392.834 2723.66 390.994 2724.5 388.712C2725.35 386.431 2725.77 383.96 2725.77 381.298C2725.77 378.637 2725.35 376.157 2724.5 373.858C2723.66 371.56 2722.35 369.702 2720.59 368.285C2718.83 366.868 2716.58 366.159 2713.85 366.159C2711.12 366.159 2708.87 366.868 2707.11 368.285C2705.35 369.702 2704.04 371.56 2703.19 373.858C2702.35 376.157 2701.92 378.637 2701.92 381.298C2701.92 383.96 2702.35 386.431 2703.19 388.712C2704.04 390.994 2705.35 392.834 2707.11 394.234C2708.87 395.634 2711.12 396.334 2713.85 396.334Z" fill="#919191"/>
<path d="M852.828 412V337.091H873.165V366.352H900.085V337.091H920.422V412H900.085V382.739H873.165V412H852.828ZM928.03 353.477V337.091H993.136V353.477H970.605V412H950.561V353.477H928.03ZM1041.17 360.5C1040.98 358.062 1040.06 356.16 1038.43 354.794C1036.82 353.429 1034.37 352.746 1031.08 352.746C1028.98 352.746 1027.26 353.002 1025.92 353.514C1024.6 354.002 1023.63 354.672 1022.99 355.526C1022.36 356.379 1022.03 357.354 1022 358.452C1021.96 359.354 1022.11 360.171 1022.48 360.902C1022.87 361.609 1023.48 362.256 1024.31 362.841C1025.14 363.402 1026.2 363.914 1027.49 364.377C1028.78 364.84 1030.32 365.255 1032.1 365.621L1038.24 366.938C1042.39 367.815 1045.94 368.974 1048.89 370.412C1051.84 371.851 1054.25 373.546 1056.13 375.496C1058.01 377.423 1059.39 379.593 1060.26 382.007C1061.17 384.421 1061.63 387.055 1061.65 389.908C1061.63 394.833 1060.4 399.003 1057.96 402.417C1055.52 405.831 1052.03 408.428 1047.5 410.208C1042.99 411.988 1037.56 412.878 1031.22 412.878C1024.71 412.878 1019.03 411.915 1014.18 409.988C1009.35 408.062 1005.59 405.099 1002.91 401.1C1000.25 397.077 998.912 391.932 998.888 385.665H1018.2C1018.32 387.957 1018.9 389.883 1019.92 391.444C1020.94 393.004 1022.38 394.187 1024.24 394.992C1026.11 395.797 1028.34 396.199 1030.93 396.199C1033.1 396.199 1034.92 395.931 1036.38 395.394C1037.84 394.858 1038.95 394.114 1039.71 393.163C1040.46 392.212 1040.85 391.127 1040.88 389.908C1040.85 388.762 1040.48 387.762 1039.74 386.908C1039.04 386.031 1037.87 385.25 1036.23 384.567C1034.6 383.86 1032.39 383.202 1029.61 382.592L1022.15 380.983C1015.52 379.544 1010.29 377.142 1006.46 373.777C1002.66 370.388 1000.77 365.767 1000.79 359.915C1000.77 355.16 1002.03 351.002 1004.59 347.442C1007.18 343.858 1010.75 341.066 1015.31 339.066C1019.9 337.067 1025.15 336.067 1031.08 336.067C1037.12 336.067 1042.35 337.079 1046.77 339.103C1051.18 341.127 1054.58 343.98 1056.97 347.662C1059.39 351.319 1060.61 355.599 1060.63 360.5H1041.17ZM1089.91 412V337.091H1110.25V366.352H1137.17V337.091H1157.5V412H1137.17V382.739H1110.25V412H1089.91ZM1194.37 413.024C1188.37 413.024 1183.2 411.878 1178.86 409.586C1174.55 407.269 1171.22 403.953 1168.88 399.637C1166.56 395.297 1165.4 390.103 1165.4 384.055C1165.4 378.252 1166.57 373.18 1168.91 368.839C1171.26 364.499 1174.56 361.122 1178.83 358.708C1183.09 356.294 1188.13 355.087 1193.93 355.087C1198.18 355.087 1202.02 355.745 1205.45 357.062C1208.89 358.379 1211.83 360.293 1214.27 362.804C1216.71 365.292 1218.59 368.315 1219.9 371.875C1221.22 375.435 1221.88 379.447 1221.88 383.909V388.591H1171.69V377.472H1203.3C1203.27 375.862 1202.86 374.448 1202.05 373.229C1201.27 371.985 1200.21 371.022 1198.87 370.339C1197.55 369.632 1196.05 369.278 1194.37 369.278C1192.74 369.278 1191.24 369.632 1189.87 370.339C1188.51 371.022 1187.41 371.973 1186.58 373.192C1185.78 374.411 1185.35 375.838 1185.3 377.472V389.469C1185.3 391.273 1185.68 392.883 1186.44 394.297C1187.19 395.711 1188.28 396.821 1189.69 397.625C1191.1 398.43 1192.81 398.832 1194.81 398.832C1196.2 398.832 1197.47 398.637 1198.62 398.247C1199.79 397.857 1200.79 397.296 1201.61 396.565C1202.44 395.809 1203.05 394.906 1203.44 393.858H1221.88C1221.24 397.759 1219.74 401.149 1217.38 404.026C1215.01 406.879 1211.88 409.098 1207.98 410.683C1204.1 412.244 1199.57 413.024 1194.37 413.024ZM1230.12 412V355.818H1249.72V366.499H1250.31C1251.33 362.548 1252.95 359.659 1255.17 357.83C1257.42 356.001 1260.04 355.087 1263.04 355.087C1263.91 355.087 1264.78 355.16 1265.63 355.306C1266.51 355.428 1267.35 355.611 1268.16 355.855V373.082C1267.16 372.741 1265.93 372.485 1264.46 372.314C1263 372.144 1261.74 372.058 1260.69 372.058C1258.72 372.058 1256.94 372.509 1255.35 373.412C1253.79 374.289 1252.56 375.533 1251.66 377.142C1250.76 378.727 1250.31 380.593 1250.31 382.739V412H1230.12ZM1298.62 413.024C1292.53 413.024 1287.31 411.817 1282.97 409.403C1278.63 406.965 1275.3 403.575 1272.98 399.235C1270.67 394.87 1269.51 389.81 1269.51 384.055C1269.51 378.301 1270.67 373.253 1272.98 368.913C1275.3 364.548 1278.63 361.158 1282.97 358.744C1287.31 356.306 1292.53 355.087 1298.62 355.087C1304.72 355.087 1309.94 356.306 1314.28 358.744C1318.62 361.158 1321.95 364.548 1324.27 368.913C1326.58 373.253 1327.74 378.301 1327.74 384.055C1327.74 389.81 1326.58 394.87 1324.27 399.235C1321.95 403.575 1318.62 406.965 1314.28 409.403C1309.94 411.817 1304.72 413.024 1298.62 413.024ZM1298.77 398.101C1300.48 398.101 1301.95 397.528 1303.2 396.382C1304.44 395.236 1305.4 393.602 1306.09 391.48C1306.77 389.359 1307.11 386.835 1307.11 383.909C1307.11 380.959 1306.77 378.435 1306.09 376.338C1305.4 374.216 1304.44 372.583 1303.2 371.436C1301.95 370.29 1300.48 369.717 1298.77 369.717C1296.97 369.717 1295.42 370.29 1294.13 371.436C1292.83 372.583 1291.85 374.216 1291.16 376.338C1290.48 378.435 1290.14 380.959 1290.14 383.909C1290.14 386.835 1290.48 389.359 1291.16 391.48C1291.85 393.602 1292.83 395.236 1294.13 396.382C1295.42 397.528 1296.97 398.101 1298.77 398.101Z" fill="#D6D6D6"/>
<rect x="320" y="312" width="400" height="400" rx="85" fill="#617BFF"/>
<rect x="368" y="418" width="303" height="186" rx="34" fill="#D9D9D9"/>
<path d="M682.523 613L520.5 494L358 613" stroke="#617BFF" stroke-width="6" stroke-linecap="round"/>
<rect x="494" y="484" width="51" height="28" fill="#D9D9D9"/>
<path d="M359.575 411L501.611 515.15C512.858 523.397 528.151 523.41 539.412 515.182L681.998 411" stroke="#617BFF" stroke-width="6" stroke-linecap="round"/>
<defs>
<filter id="filter0_d_768_762" x="0" y="0" width="3056" height="1024" filterUnits="userSpaceOnUse" color-interpolation-filters="sRGB">
<feFlood flood-opacity="0" result="BackgroundImageFix"/>
<feColorMatrix in="SourceAlpha" type="matrix" values="0 0 0 0 0 0 0 0 0 0 0 0 0 0 0 0 0 0 127 0" result="hardAlpha"/>
<feMorphology radius="55" operator="dilate" in="SourceAlpha" result="effect1_dropShadow_768_762"/>
<feOffset/>
<feGaussianBlur stdDeviation="74"/>
<feComposite in2="hardAlpha" operator="out"/>
<feColorMatrix type="matrix" values="0 0 0 0 0.37863 0 0 0 0 0.482191 0 0 0 0 1 0 0 0 1 0"/>
<feBlend mode="normal" in2="BackgroundImageFix" result="effect1_dropShadow_768_762"/>
<feBlend mode="normal" in="SourceGraphic" in2="effect1_dropShadow_768_762" result="shape"/>
</filter>
</defs>
</svg>
